<svg id="Layer_1" data-name="Layer 1" xmlns="http://www.w3.org/2000/svg" xmlns:xlink="http://www.w3.org/1999/xlink" viewBox="0 0 430 212.6"><defs><style>.cls-1,.cls-11,.cls-12,.cls-13,.cls-14,.cls-23,.cls-5{fill:none;}.cls-2{fill:#fff;}.cls-3{fill:#979797;}.cls-4{fill:#e5ebf2;}.cls-5{stroke:#3c388d;stroke-width:0.3px;}.cls-11,.cls-23,.cls-5{stroke-miterlimit:2.4;}.cls-6{fill:url(#linear-gradient);}.cls-7{fill:#8f1f81;}.cls-8{fill:url(#linear-gradient-2);}.cls-9{fill:url(#linear-gradient-3);}.cls-10,.cls-16{fill:#1d1d1b;}.cls-10{opacity:0.6;isolation:isolate;}.cls-11,.cls-23{stroke:#1d1d1b;}.cls-11{stroke-width:1.8px;}.cls-12,.cls-13,.cls-14{stroke:#003b61;stroke-width:0.5px;}.cls-12,.cls-13{stroke-linecap:round;stroke-linejoin:round;}.cls-12{stroke-dasharray:0 0.8;}.cls-15{fill:#004268;}.cls-17{fill:#003b61;}.cls-18{clip-path:url(#clip-path);}.cls-19{fill:#0d3b5e;}.cls-20{clip-path:url(#clip-path-2);}.cls-21{fill:#0a8243;}.cls-22{clip-path:url(#clip-path-3);}.cls-23{stroke-width:0.6px;}.cls-24{clip-path:url(#clip-path-4);}.cls-25{fill:#003b64;}.cls-26{fill:#b5c427;}.cls-27{clip-path:url(#clip-path-5);}.cls-28{fill:#fffdfd;}</style><linearGradient id="linear-gradient" x1="1.22" y1="748.55" x2="4.02" y2="748.55" gradientTransform="translate(0 -624.9)" gradientUnits="userSpaceOnUse"><stop offset="0" stop-color="#003b61"/><stop offset="1" stop-color="#0068a9"/></linearGradient><linearGradient id="linear-gradient-2" x1="265.97" y1="1804.02" x2="640.8" y2="1804.02" gradientTransform="translate(-98.32 -973.06) scale(0.6)" gradientUnits="userSpaceOnUse"><stop offset="0" stop-color="#fff" stop-opacity="0"/><stop offset="1" stop-opacity="0.37"/></linearGradient><linearGradient id="linear-gradient-3" x1="163.87" y1="1621.77" x2="163.87" y2="1621.77" xlink:href="#linear-gradient-2"/><clipPath id="clip-path" transform="translate(0 0)"><rect class="cls-1" x="125.31" y="120.71" width="8.85" height="7.15"/></clipPath><clipPath id="clip-path-2" transform="translate(0 0)"><rect class="cls-1" x="125.17" y="112.17" width="9" height="7.26"/></clipPath><clipPath id="clip-path-3" transform="translate(0 0)"><rect class="cls-1" x="125.53" y="133.86" width="8.64" height="6.97"/></clipPath><clipPath id="clip-path-4" transform="translate(0 0)"><rect class="cls-1" x="18.7" y="14.91" width="29.5" height="5.96"/></clipPath><clipPath id="clip-path-5" transform="translate(0 0)"><rect class="cls-1" x="18.7" y="14.93" width="29.5" height="5.96"/></clipPath></defs><path class="cls-2" d="M.5,1H150.8v211.4H.5Z" transform="translate(0 0)"/><path class="cls-3" d="M150.3,1.2V211.4H1.2V1.2H150.3M151.5,0H0V212.6H151.5Z" transform="translate(0 0)"/><path class="cls-4" d="M1.1,97.1H150.2v53.1H1.1Z" transform="translate(0 0)"/><path class="cls-2" d="M32.94,127.4H48.82c.07,0,.14.2.14.5v6.5c0,.3-.07.5-.14.5H32.94c-.07,0-.14-.2-.14-.5v-6.5C32.87,127.7,32.94,127.4,32.94,127.4Z" transform="translate(0 0)"/><path class="cls-2" d="M0,0" transform="translate(0 0)"/><path class="cls-5" d="M0,0" transform="translate(0 0)"/><path class="cls-5" d="M0,0" transform="translate(0 0)"/><path class="cls-6" d="M1.2,97.1H4v53.1H1.2Z" transform="translate(0 0)"/><path class="cls-7" d="M0,0" transform="translate(0 0)"/><path class="cls-8" d="M270.4,14.7,57.7,129.3,282.6,204Z" transform="translate(0 0)"/><path class="cls-9" d="M0,0" transform="translate(0 0)"/><path class="cls-9" d="M0,0" transform="translate(0 0)"/><path class="cls-9" d="M0,0" transform="translate(0 0)"/><path class="cls-9" d="M0,0" transform="translate(0 0)"/><path class="cls-9" d="M0,0" transform="translate(0 0)"/><path class="cls-9" d="M0,0" transform="translate(0 0)"/><path class="cls-9" d="M0,0" transform="translate(0 0)"/><path class="cls-9" d="M0,0" transform="translate(0 0)"/><path class="cls-10" d="M18.7,40.1H47v.8H18.7Zm0,4.5H47v.8H18.7Zm0,4.4H47v.8H18.7Zm0,4.4H47v.8H18.7Zm0,22.5H47v.8H18.7Zm0,4.4H133.3v.8H18.7Zm0,4.4H133.3v.8H18.7Zm0,4.5H133.3V90H18.7ZM96.6,40.1h36.7v1.1H96.6Zm0,4.7h36.7v1.1H96.6Zm0,4.7h36.7v1.1H96.6Zm0,4.7h36.7v1.1H96.6Zm0,4.7h36.7V60H96.6ZM18.7,164.7H127.6v.8H18.7Zm0,6H127.6v.8H18.7Zm0,6H127.6v.8H18.7Zm-.1,10.1H67.4v.8H18.6Zm.1,10H133v.1H18.7Z" transform="translate(0 0)"/><path class="cls-2" d="M0,0" transform="translate(0 0)"/><path class="cls-2" d="M0,0" transform="translate(0 0)"/><circle class="cls-2" cx="323.99" cy="106.26" r="104.5"/><path class="cls-2" d="M0,0" transform="translate(0 0)"/><path class="cls-4" d="M407.2,40.1H243.7a104.62,104.62,0,0,0,0,130.4H407.2A104.62,104.62,0,0,0,407.2,40.1Z" transform="translate(0 0)"/><path class="cls-2" d="M0,0" transform="translate(0 0)"/><path class="cls-11" d="M0,0" transform="translate(0 0)"/><path class="cls-11" d="M0,0" transform="translate(0 0)"/><path class="cls-11" d="M0,0" transform="translate(0 0)"/><circle class="cls-11" cx="323.99" cy="106.26" r="104.5"/><line class="cls-12" x1="21.5" y1="126.5" x2="21.5" y2="135.1"/><line class="cls-12" x1="21.5" y1="118.5" x2="21.5" y2="120.4"/><path class="cls-2" d="M232.88,92.86c-.14,0-.28.8-.28,1.9v23c0,1,.14,1.9.28,1.9h40.59c.14,0,.28-.8.28-1.9v-23c0-1-.14-1.9-.28-1.9Z" transform="translate(0 0)"/><rect class="cls-1" x="295.8" y="92.86" width="59.1" height="26.7"/><rect class="cls-1" x="358.9" y="92.86" width="59.1" height="26.7"/><rect class="cls-10" x="28.4" y="114.8" width="79.2" height="1.4"/><rect class="cls-10" x="18.7" y="107.4" width="64.5" height="1.9"/><rect class="cls-10" x="18.6" y="156" width="42.4" height="1.9"/><rect class="cls-10" x="18.7" y="103" width="42.3" height="1.9"/><rect class="cls-10" x="28.4" y="122.8" width="79.2" height="1.4"/><rect class="cls-10" x="28.4" y="137.8" width="79.2" height="1.4"/><path class="cls-13" d="M21.4,138.2" transform="translate(0 0)"/><path class="cls-13" d="M21.4,117.3" transform="translate(0 0)"/><path class="cls-13" d="M21.4,138.5h0m0-21.7h0" transform="translate(0 0)"/><path class="cls-2" d="M21.5,118.5a3.1,3.1,0,1,0-3.1-3.1h0a3,3,0,0,0,3,3.1h.1" transform="translate(0 0)"/><circle class="cls-14" cx="21.5" cy="115.5" r="3.1"/><path class="cls-15" d="M21.68,116.92h-.3v-2.4l-.11.1-.12.1-.32.25-.16-.21.74-.57h.26Z" transform="translate(0 0)"/><path class="cls-2" d="M21.5,126.5a3.1,3.1,0,1,0-3.1-3.1h0a3,3,0,0,0,3,3.1h.1" transform="translate(0 0)"/><circle class="cls-14" cx="21.5" cy="123.5" r="3.1"/><path class="cls-2" d="M21.5,141.2a3.1,3.1,0,1,0-3.1-3.1,3.1,3.1,0,0,0,3.1,3.1" transform="translate(0 0)"/><circle class="cls-14" cx="21.5" cy="138.1" r="3.1"/><path class="cls-15" d="M22.32,124.88H20.53v-.26l.73-.74c.13-.14.25-.26.34-.37a1.69,1.69,0,0,0,.21-.31.84.84,0,0,0,.07-.35.45.45,0,0,0-.13-.35.58.58,0,0,0-.36-.12,1,1,0,0,0-.35.06,1.27,1.27,0,0,0-.31.2l-.17-.21a.81.81,0,0,1,.24-.17l.27-.11a.86.86,0,0,1,.32,0,1,1,0,0,1,.43.09.62.62,0,0,1,.28.25.76.76,0,0,1,.1.39.92.92,0,0,1-.08.4,2.92,2.92,0,0,1-.24.37c-.11.12-.23.25-.37.38l-.59.6h1.4Z" transform="translate(0 0)"/><path class="cls-15" d="M22.21,137.46a.71.71,0,0,1-.07.32A.57.57,0,0,1,22,138a1,1,0,0,1-.3.11h0a.9.9,0,0,1,.49.21.65.65,0,0,1,.16.44.88.88,0,0,1-.11.42.74.74,0,0,1-.34.29,1.5,1.5,0,0,1-.59.1,2.67,2.67,0,0,1-.4,0,2.06,2.06,0,0,1-.35-.12v-.29a1.63,1.63,0,0,0,.37.13,2.54,2.54,0,0,0,.39,0,.87.87,0,0,0,.54-.15.53.53,0,0,0,.16-.41.43.43,0,0,0-.36-.44,1.4,1.4,0,0,0-.41-.06h-.27V138h.27a1,1,0,0,0,.38-.07.5.5,0,0,0,.23-.18.47.47,0,0,0,.09-.28.4.4,0,0,0-.14-.32.58.58,0,0,0-.38-.12h-.26a.92.92,0,0,0-.23.09,1.13,1.13,0,0,0-.21.12l-.15-.22a1.24,1.24,0,0,1,.36-.19,1.37,1.37,0,0,1,.49-.09,1,1,0,0,1,.63.19A.62.62,0,0,1,22.21,137.46Z" transform="translate(0 0)"/><path class="cls-16" d="M123.45,17.15c-.08.16-.15.25-.14.36s.14.21.2.33c0-.14.14-.25.13-.36s-.16-.25-.19-.33" transform="translate(0 0)"/><path class="cls-16" d="M125.52,17.15c.08.16.15.25.14.36s-.13.21-.19.33c-.06-.14-.15-.25-.14-.36s.17-.25.19-.33" transform="translate(0 0)"/><path class="cls-16" d="M122.26,17.1a.14.14,0,1,0-.14-.14h0a.14.14,0,0,0,.14.14" transform="translate(0 0)"/><path class="cls-16" d="M122.35,17.26a.14.14,0,1,0-.14.14h0a.14.14,0,0,0,.14-.14" transform="translate(0 0)"/><path class="cls-16" d="M122.42,17.6a.14.14,0,1,0-.14.14h0a.14.14,0,0,0,.14-.14" transform="translate(0 0)"/><path class="cls-16" d="M123,16.4a.15.15,0,0,0,.13-.14.13.13,0,0,0-.1-.16h0a.14.14,0,1,0,0,.28" transform="translate(0 0)"/><path class="cls-16" d="M122.69,16.5a.14.14,0,1,0-.14-.14.14.14,0,0,0,.14.14h0" transform="translate(0 0)"/><path class="cls-16" d="M122.41,16.74a.14.14,0,1,0-.14-.14.14.14,0,0,0,.14.14h0" transform="translate(0 0)"/><path class="cls-16" d="M123.4,16.43a.14.14,0,1,0-.14-.14h0a.14.14,0,0,0,.14.14" transform="translate(0 0)"/><path class="cls-16" d="M123.75,16.53a.14.14,0,1,0-.14-.14.14.14,0,0,0,.14.14" transform="translate(0 0)"/><path class="cls-16" d="M124.07,16.68a.14.14,0,1,0-.14-.14.14.14,0,0,0,.14.14" transform="translate(0 0)"/><path class="cls-16" d="M126.57,16.92a.14.14,0,1,0,.14-.14h0a.14.14,0,0,0-.14.14" transform="translate(0 0)"/><path class="cls-16" d="M126.76,17.1a.14.14,0,1,0,.14.14.14.14,0,0,0-.14-.14" transform="translate(0 0)"/><path class="cls-16" d="M126.69,17.46a.14.14,0,1,0,.14.14.14.14,0,0,0-.14-.14" transform="translate(0 0)"/><path class="cls-16" d="M125.94,16.4a.14.14,0,0,0,0-.28.14.14,0,1,0,0,.28" transform="translate(0 0)"/><path class="cls-16" d="M126.28,16.5a.14.14,0,1,0-.14-.14.14.14,0,0,0,.14.14" transform="translate(0 0)"/><path class="cls-16" d="M126.56,16.74a.14.14,0,1,0-.14-.14.14.14,0,0,0,.14.14h0" transform="translate(0 0)"/><path class="cls-16" d="M125.57,16.43a.14.14,0,1,0-.14-.14h0a.14.14,0,0,0,.14.14" transform="translate(0 0)"/><path class="cls-16" d="M125.22,16.53a.14.14,0,1,0-.14-.14.14.14,0,0,0,.14.14" transform="translate(0 0)"/><path class="cls-16" d="M124.76,16.54a.14.14,0,1,0,.14-.14.14.14,0,0,0-.14.14" transform="translate(0 0)"/><path class="cls-16" d="M124.25,17.3h.15v-.6l-.15-.05Z" transform="translate(0 0)"/><path class="cls-16" d="M124.72,16.65l-.15.05v.6h.15Z" transform="translate(0 0)"/><path class="cls-16" d="M124.4,16v-.36a.45.45,0,0,0-.35.36Z" transform="translate(0 0)"/><path class="cls-16" d="M124.58,16h.34a.44.44,0,0,0-.34-.36Z" transform="translate(0 0)"/><path class="cls-16" d="M124.06,16.16a.44.44,0,0,0,.43.35.43.43,0,0,0,.42-.35Z" transform="translate(0 0)"/><path class="cls-16" d="M124.73,15.58a.48.48,0,0,1-.19-.31.58.58,0,0,1,.31.2V15a.58.58,0,0,1-.31.2.63.63,0,0,1,.18-.34h-.47a.72.72,0,0,1,.19.34.52.52,0,0,1-.32-.2v.48a.52.52,0,0,1,.32-.2.58.58,0,0,1-.2.31Z" transform="translate(0 0)"/><path class="cls-16" d="M125.24,25.19a9.27,9.27,0,0,1-1.45-.52h0a.45.45,0,0,0-.1-.3.41.41,0,0,0-.28-.13h-.13l-.21-.2a2.44,2.44,0,0,1-.43-.75,2.83,2.83,0,0,1-.13-.5.44.44,0,0,1-.45.33V23a.34.34,0,0,1-.43.08,4,4,0,0,0,.16.57,3.2,3.2,0,0,0,.64,1.06,1.92,1.92,0,0,0,.28.29h0a.42.42,0,0,0,.25.34.33.33,0,0,0,.36,0,3.7,3.7,0,0,0,.78.3,3.84,3.84,0,0,0,.89.14,1.56,1.56,0,0,0,.78-.27,1.7,1.7,0,0,0,.3-.23h0a2.84,2.84,0,0,1-.82-.1m-1.61-.66h0a.17.17,0,0,0-.23,0,.52.52,0,0,0-.1.11v.06h0a.18.18,0,0,1,.08.2h0a.17.17,0,0,1-.17,0h0a.43.43,0,0,0,0,.16h0a.2.2,0,0,0,.09.09h0l.14.09a.26.26,0,0,1-.24,0A.37.37,0,0,1,123,25a.73.73,0,0,1,.14-.37h0a.34.34,0,0,1-.06-.12h.13a.67.67,0,0,1,.41-.24.27.27,0,0,1,.22.11.35.35,0,0,1,.08.16l-.08-.05m.28.83a.18.18,0,0,1-.18-.18h0a.18.18,0,0,1,.17-.19h0a.18.18,0,0,1,.19.17v0a.18.18,0,0,1-.18.18h0m.83.26a.18.18,0,0,1,0-.35h0a.18.18,0,0,1,.17.18.18.18,0,0,1-.17.17" transform="translate(0 0)"/><path class="cls-16" d="M125,26.49h-.09V26a2.87,2.87,0,0,1-.77-.11v.64H124a.29.29,0,0,0-.3.3h0a.53.53,0,0,0,.15.34A.15.15,0,0,1,124,27s0,.45.31.47v.07a.21.21,0,0,0,.42,0h0v-.07c.26,0,.22-.47.31-.47s.08.06.12.15a.53.53,0,0,0,.15-.34.29.29,0,0,0-.3-.3h0m-.48,1.15a.12.12,0,0,1-.12-.12h0a.12.12,0,1,1,.12.12h0m.63-.67a.16.16,0,0,0-.12-.09c-.18,0-.11.48-.32.48a.13.13,0,0,1-.15-.11v-.16c0-.05,0-.07-.09-.07s-.09,0-.09.07v.14a.13.13,0,0,1-.13.13h0c-.21,0-.14-.48-.32-.48a.16.16,0,0,0-.12.09.54.54,0,0,1,0-.18.2.2,0,0,1,.19-.21h0c.24,0,.19.33.3.33s.08,0,.09-.07h0c0-.1-.17-.18-.17-.32s.13-.24.26-.35c.13.11.26.22.26.35s-.17.22-.17.32a.09.09,0,0,0,.08.08h0c.11,0,.06-.33.3-.33a.2.2,0,0,1,.2.2h0a.54.54,0,0,1,0,.18" transform="translate(0 0)"/><path class="cls-16" d="M131.15,27.1a0,0,0,0,0-.07,0c-.61.18-1.38-.33-2.12-.83a3.75,3.75,0,0,0-1.71-.8,1.25,1.25,0,0,0-.5.11.84.84,0,0,0-.39.46,2.94,2.94,0,0,1-.25.46.73.73,0,0,0-.15.35.41.41,0,0,0,.13.28,1.46,1.46,0,0,0,.33.22l.09,0c.12.06.2.1.21.17a5.05,5.05,0,0,1-.92.26,8.17,8.17,0,0,1-1.31.1,8.38,8.38,0,0,1-1.32-.1,6,6,0,0,1-.92-.26c0-.11.09-.15.22-.21l.1-.05a1.27,1.27,0,0,0,.31-.2.33.33,0,0,0,.13-.26.65.65,0,0,0-.15-.35,2,2,0,0,1-.24-.46,1,1,0,0,0-.39-.46,1.25,1.25,0,0,0-.5-.11,3.75,3.75,0,0,0-1.71.8c-.75.5-1.51,1-2.13.83a0,0,0,1,0-.07.07,3.58,3.58,0,0,1,.52.34,1.2,1.2,0,0,0,.66.34,1.6,1.6,0,0,0,.74-.22c.26-.15.52-.31.76-.48a3.53,3.53,0,0,1,1.47-.71l-.15.13a.59.59,0,0,0-.26.46,1.07,1.07,0,0,0,.14.47.23.23,0,0,0,.08.17,1.42,1.42,0,0,1,.11.35v.19a.72.72,0,0,0,.44.5,4.76,4.76,0,0,0,2.08.32,4.91,4.91,0,0,0,2.08-.32.72.72,0,0,0,.44-.5V28a1.4,1.4,0,0,1,.1-.35l.11-.22a.73.73,0,0,0,.13-.4.59.59,0,0,0-.27-.47l-.15-.14a3.53,3.53,0,0,1,1.47.71c.25.17.51.35.75.48a1.67,1.67,0,0,0,.75.22,1.2,1.2,0,0,0,.66-.34,3.48,3.48,0,0,1,.51-.34,0,0,0,0,0,0-.07" transform="translate(0 0)"/><path class="cls-16" d="M127.45,22.18a.78.78,0,0,1-.24-.27c-.07-.15-.38-.76-.43-.84a.3.3,0,0,1-.06-.18.24.24,0,0,1,.07-.16.69.69,0,0,0,.11-.13l.06-.07a3.75,3.75,0,0,0-.38-.51,2.89,2.89,0,0,0-.59-.51.48.48,0,0,0,.23-.37.32.32,0,0,0-.12-.26,3.3,3.3,0,0,1,.53-1.08l-.39-.17a.64.64,0,0,1,.08.45.55.55,0,0,1-.22-.3,2.16,2.16,0,0,1-.14.43.31.31,0,0,1,.32,0,.46.46,0,0,1-.5.16c-.14,0-.28-.11-.27-.22a.13.13,0,0,1,.13-.13h0c.08,0,.09.14.06.2s.23-.4.05-.45-.26.16-.31.3c0-.17-.1-.34-.24-.33s-.12.35-.06.43a.16.16,0,0,1,.13-.18s.11,0,.1.15-.16.17-.34.17a.44.44,0,0,1-.49-.37.63.63,0,0,1,.36.21,1.63,1.63,0,0,1,0-.54.53.53,0,0,1-.35.21.64.64,0,0,1,.29-.37h-.72a.64.64,0,0,1,.29.37.56.56,0,0,1-.35-.21,1.63,1.63,0,0,1,0,.54.61.61,0,0,1,.35-.21.43.43,0,0,1-.48.37h0c-.17,0-.33-.06-.34-.17a.13.13,0,0,1,.1-.15c.06,0,.12.06.13.18.07-.08.13-.42-.06-.43s-.21.16-.24.33c0-.14-.17-.33-.31-.3s-.06.38.05.45,0-.19.07-.2.13.07.14.13-.14.19-.28.22a.46.46,0,0,1-.49-.16.31.31,0,0,1,.32,0,2.16,2.16,0,0,1-.14-.43.5.5,0,0,1-.23.3.59.59,0,0,1,.09-.45l-.4.17a3.65,3.65,0,0,1,.54,1.08.32.32,0,0,0-.12.26.48.48,0,0,0,.23.37,3.68,3.68,0,0,0-.6.51,3.35,3.35,0,0,0-.63,1.06l.35.38a.66.66,0,0,1,.16.35.55.55,0,0,0,.14.37.84.84,0,0,1,.08.27h2v2.14a.28.28,0,0,0-.23.11l.66.24a.6.6,0,0,1,.12-.32h-.44V22.45h1.92a2.51,2.51,0,0,1-.58,1.6,2.22,2.22,0,0,1-.64.5s0,.05-.08.06a.51.51,0,0,0-.09.18.61.61,0,0,0,0,.19l.23.06c.67.17.84.12.88.09h0a2.65,2.65,0,0,0,.42-.4,3.2,3.2,0,0,0,.64-1.06,3.87,3.87,0,0,0,.23-1.3v-.19m-3,.15h-2a2.91,2.91,0,0,1,.16-.88,2.44,2.44,0,0,1,.43-.75,1.85,1.85,0,0,1,.64-.5,1.77,1.77,0,0,1,.75-.19Zm0-3.28a2.38,2.38,0,0,0-1.37.37c-.16-.09-.22-.18-.22-.28,0-.38,1-.41,1.59-.41h0c.53,0,1.59,0,1.59.41,0,.1-.07.19-.22.28a2.38,2.38,0,0,0-1.37-.37m.08,3.28V20a1.73,1.73,0,0,1,.7.18,1.85,1.85,0,0,1,.64.5,2.44,2.44,0,0,1,.43.75,2.91,2.91,0,0,1,.16.88Z" transform="translate(0 0)"/><path class="cls-16" d="M126.19,22V22a2,2,0,0,0-.37-1h0a.14.14,0,0,0,.08-.1.14.14,0,0,0-.08.1v-.06a2,2,0,0,0-.42-.39,1.28,1.28,0,0,0-.46-.21H125s0-.07-.06-.08h0v.05a.11.11,0,0,0-.09-.05.14.14,0,0,0,0,.09h0s0,.08.07.09,0-.07,0-.07v.75a.15.15,0,0,0-.13,0,.15.15,0,0,0,.13,0v.81s-.06,0,0-.07a.09.09,0,0,0-.08.08h.07m0,.05V22s.08,0,.08-.07m-.07,0h.57a.15.15,0,0,0,0,.13.15.15,0,0,0,0-.13h.63M126,22c0,.07.06.09.08.07s0,0,0-.06h.09a.11.11,0,0,0,0-.08.09.09,0,0,0,.07,0s0-.08-.07-.09h0m-.49-.95a.11.11,0,0,0,0,.08h.09m0,.06h0a2,2,0,0,1,.29.78.09.09,0,0,0-.07,0,.14.14,0,0,0,0,.09h-.48a.09.09,0,0,0,0-.07h-.06a.11.11,0,0,0,0-.08v.08h-.06a0,0,0,0,0,0,.07H125a.05.05,0,0,0,0-.06.06.06,0,0,0-.06,0s0,0,0,0v-.66H125a.09.09,0,0,0,0-.07.11.11,0,0,0,.08,0H125V21s0,0-.07,0v-.56H125a.11.11,0,0,0,0-.08,1.27,1.27,0,0,1,.37.18,2.11,2.11,0,0,1,.38.35" transform="translate(0 0)"/><path class="cls-16" d="M125.85,21.75h-.06c-.06,0-.18,0-.18-.13h.15l.06-.06c.06-.06-.06-.09-.12-.14l-.07-.06a.31.31,0,0,0-.06-.17v-.07a.21.21,0,0,0,0,.24c.06.07.2.14.19.2h-.06a1.15,1.15,0,0,1-.14-.17c-.07-.08,0-.16,0-.23s0-.19-.07-.22a.06.06,0,0,0,0-.06h0a.29.29,0,0,0-.09.15h0a.13.13,0,0,0-.06-.07l-.06-.05a.06.06,0,0,1,0-.06v-.07H125m0,0s0,.07,0,.06h0a.4.4,0,0,0,.14.15.28.28,0,0,0-.1.09s0,.05-.08,0H125v.05h.06v.05h.07m0,0a0,0,0,0,1,0-.05c0,.12.16.11.2.19a.33.33,0,0,0-.14,0s-.1,0-.11.09,0,.1.07.13-.07,0-.11,0h0s0-.06-.09,0h0v-.06a.1.1,0,0,1,.12-.09.26.26,0,0,0,.15.17h.1v.07h-.08v-.05h0Z" transform="translate(0 0)"/><path class="cls-16" d="M124.23,22.83h0a.18.18,0,0,0-.16-.2h0a3.27,3.27,0,0,1-.62.14.85.85,0,0,1-.38-.12v.09h0a.08.08,0,0,0-.08-.07.07.07,0,0,0-.07.07.08.08,0,0,0,.07.08H123v.09h0a1.21,1.21,0,0,0,.89,1.21c.08,0,.17,0,.17.09s0,.08-.08.08h-.06s.07,0,.08-.05,0,0-.06,0a.09.09,0,0,0-.1.1.13.13,0,0,0,.13.13h0a.16.16,0,0,0,.18-.16v0h.08v-.09h0v-1h0s.07,0,.07-.05,0-.06,0-.07h0m-1.07.08.72,1a1,1,0,0,1-.72-1m.74.94-.65-.94h.16l.52.75V24m0-.3-.46-.67h.15l.34.5v.21m.11-.73h0s0,0-.07,0v0a.07.07,0,0,0,.07.07h0v.26l-.29-.42a1.82,1.82,0,0,1,.3-.11s.06,0,0,.12" transform="translate(0 0)"/><path class="cls-16" d="M124.11,20.74c.14,0,.21,0,.21-.09s-.39-.06-.39-.15h0c.2,0,.2-.15.34-.17-.17,0-.19.1-.26.11a.11.11,0,0,0,0-.08.53.53,0,0,0-.15.1h0a0,0,0,0,0,0,.05c0,.15.39,0,.39.16s-.07.06-.18.06-.13-.06-.28,0,0-.07,0-.09h-.05v.05h0a.14.14,0,0,0,0,.09h0v-.06h0v.05a.14.14,0,0,1-.09,0h-.16l.06-.06h.08c.08,0,0-.07.11-.06h0v.07h0s0-.06-.08,0h0m-.43-.16h0m.1,0h0m0,0h0m0,.1h0" transform="translate(0 0)"/><path class="cls-16" d="M124.3,21.26s0-.07-.18-.07-.45.06-.45,0,.06,0,.13,0h0a1.33,1.33,0,0,0,.49,0c-.12-.09-.23,0-.36,0,.08,0,.1,0,.11-.05s-.18,0-.25,0h0c-.1,0-.18,0-.18.06s.37.06.48.06h0a2.81,2.81,0,0,0-.58,0s0-.06,0-.09h-.13v0h0v.06h0v0h0l-.06,0v-.12h0v-.05h-.06s0,.08.06.06h0l.06,0h.06c.06,0,0,.06,0,.06h-.14v0h.06l.08-.06h0a.18.18,0,0,0,.12-.09h0c.12,0,0-.11.23-.07h0v.09h0s0-.06-.08,0h.06a.06.06,0,0,0,.06,0v-.11h.08a.11.11,0,0,0,.11,0,.11.11,0,0,1,.08,0h0v.05h0v-.05h-.15c.09,0,.22,0,.22-.08m-1.08.08h0m.22-.19h.06m0,0h0m0,.11h0m.11.24h0" transform="translate(0 0)"/><path class="cls-16" d="M124.24,21.87s0-.07-.18-.07-.53.05-.53,0,.14,0,.24,0h0a1,1,0,0,1,.46,0c-.09-.08-.22,0-.35,0h-.13c-.12,0-.28,0-.28.06s.46.05.57.05h0a2.73,2.73,0,0,0-.7,0s0-.08,0-.1h-.12m0,.05h-.11L123,21.8c-.07-.06,0,0,0-.05v-.07h0v.05h0v.05h0s0,0,.09.08h0v.06h-.2v0h.17c.21,0,.09-.09.34-.06h0V22h0s0-.06-.09,0h.06v-.06h.19a.09.09,0,0,1,.07,0h0v0h-.07v0H124c.07,0,.21,0,.21-.07m-1-.11h0m0,0h0m0,.11h0" transform="translate(0 0)"/><path class="cls-16" d="M126.1,22.88h-.16c.08,0,.22,0,.22-.07s0-.06-.18-.06-.53.05-.53,0,.13,0,.23,0h0c.17,0,.36-.08.47-.05-.14-.05-.22,0-.35,0h-.13c-.13,0-.28,0-.28.05s.46.06.57.06h0a2.73,2.73,0,0,0-.7,0v-.09h-.06v.05h0v.05h-.07l-.07-.06a.06.06,0,0,1,0-.06v-.06h0m0,.06h0s0,.05.09.08H125l.08-.06h.07c.22,0,.1-.09.35-.07h0v.08h0s0-.06-.08,0h.08v-.06h.19a.11.11,0,0,1,.08,0h0m-.94-.25h0m0,0h0m0,.1Zm0-.06h0m.2.3h0" transform="translate(0 0)"/><path class="cls-16" d="M125.52,23.21h0c.17,0,.35-.08.45-.05h-.33a.19.19,0,0,0,.15,0h-.28c-.09,0-.16,0-.16.05s.33.06.44.06h-.09a2.35,2.35,0,0,0-.53,0v-.08h-.06v0H125v-.12h0v.05h0v.06h-.17v.05h0l.08-.06h0a.1.1,0,0,0,.09-.06h0s0-.09.2-.06h0v.08h0s0-.06-.08,0h.07v-.07h.08s.21,0,.21-.06,0-.06-.13-.06h-.28m-.41,0h0m0,.07h0m0,0h0" transform="translate(0 0)"/><path class="cls-16" d="M125.38,23.79h0c.16,0,.35-.08.45-.05-.13,0-.21,0-.33,0a.19.19,0,0,0,.15,0h-.28s-.09,0-.09.07.41,0,.41.06-.08.06-.19.06a.9.9,0,0,0-.4,0h0v-.1H125v.05h0v.05h0a.21.21,0,0,0,0,.11l-.09-.11h0v-.06h0s0,.06.06,0h0l0,.08h-.08l.07-.05h0v-.09h.11a.06.06,0,0,0,0,.06v.06h0v-.18s.12,0,.14,0h.06s-.07,0-.07-.06h0c.14,0,.23,0,.23-.09s-.42,0-.42-.06h0m-.3,0h0m0,0h0m0,.1h.06" transform="translate(0 0)"/><path class="cls-17" d="M118.66,16.55a.1.1,0,0,0-.2,0,.09.09,0,0,0,.1.1.1.1,0,0,0,.1-.1h0" transform="translate(0 0)"/><path class="cls-17" d="M118.63,16.28a.11.11,0,0,0-.11-.1.11.11,0,0,0-.1.1.09.09,0,0,0,.1.1.1.1,0,0,0,.11-.09h0" transform="translate(0 0)"/><path class="cls-17" d="M118.68,16.16a.09.09,0,0,0,.1-.08v0a.09.09,0,0,0-.1-.1.11.11,0,0,0-.1.1.09.09,0,0,0,.1.1" transform="translate(0 0)"/><path class="cls-17" d="M119,16.15a.09.09,0,0,0,.1-.1A.09.09,0,0,0,119,16h0a.09.09,0,0,0-.1.1.11.11,0,0,0,.1.1" transform="translate(0 0)"/><path class="cls-16" d="M120.09,16a.11.11,0,0,0,.15,0,.12.12,0,0,0,0-.14.11.11,0,0,0-.15,0,.1.1,0,0,0,0,.14" transform="translate(0 0)"/><path class="cls-16" d="M120.07,15.75a.11.11,0,0,0,0-.15.1.1,0,0,0-.14,0,.11.11,0,0,0,0,.15.1.1,0,0,0,.14,0" transform="translate(0 0)"/><path class="cls-16" d="M119.8,15.7a.1.1,0,1,0-.14,0h0a.1.1,0,0,0,.14,0" transform="translate(0 0)"/><path class="cls-16" d="M119.58,15.87a.1.1,0,0,0,0-.14.11.11,0,0,0-.15,0,.1.1,0,0,0,0,.14.11.11,0,0,0,.15,0" transform="translate(0 0)"/><path class="cls-16" d="M118.93,15.73l.09.18.1-.12h0V16a.13.13,0,1,0,.26,0,.12.12,0,0,0-.07-.11l-.14-.13h.17l-.07-.18-.13.11h0v-.2l-.17.07.12.14h-.17Z" transform="translate(0 0)"/><path class="cls-16" d="M120.1,16.1a.35.35,0,0,1,.06.14.52.52,0,0,1-.11-.1v.23s0-.07.09-.08c0,.15-.07.22-.13.23a.1.1,0,0,1-.12-.08h0c0-.07,0-.11.11-.05,0-.14-.1-.14-.15-.08a.21.21,0,0,0-.07-.29h0a.23.23,0,0,0,0,.31c-.09-.05-.17,0-.09.13,0-.09.1-.07.12,0s0,.14-.15.17a.17.17,0,0,1-.22-.13c0-.08.1,0,.18,0l-.07-.23a.25.25,0,0,1-.13.14.67.67,0,0,1,0-.2l-.28.11.18.11a.18.18,0,0,1-.2,0l.11.21a.21.21,0,0,1,.11-.16c0,.08.06.18-.08.25a.22.22,0,0,1-.22,0s0-.13.08-.08c0-.13-.13-.13-.16,0,0-.14,0-.22-.18-.26a.21.21,0,0,0,.12.27h0c-.08,0-.16.06,0,.16,0-.09.07-.1.11,0a.1.1,0,0,1,0,.14.48.48,0,0,1-.25-.08h.12l-.15-.18a.17.17,0,0,1,0,.14.24.24,0,0,1,0-.14l-.12.1a1.28,1.28,0,0,1,.43.3,5.12,5.12,0,0,1,.62-.31,4.92,4.92,0,0,1,.65-.21,1.19,1.19,0,0,1,0-.53Z" transform="translate(0 0)"/><path class="cls-16" d="M122.31,22.45c0-.11-.16-.23-.18-.39a.83.83,0,0,0-.18-.5c-.18-.21-.78-.85-1-1a.28.28,0,0,1,.26.07l.32.3a3.11,3.11,0,0,1,.64-1l.11-.12a1.09,1.09,0,0,0-.36.12.55.55,0,0,0-.12-.44c0-.24,0-.54-.54-.91.28.07.45.32.66.13-.19,0-.19-.43-.9-.79.27,0,.48.43.79.19-.29,0-.39-.56-.92-.72.19,0,.38.11.53-.1-.18,0-.29-.13-.49-.14a.64.64,0,0,0,0-.54.65.65,0,0,0-.38.13c0-.12-.15-.13-.26-.12s0,.13,0,.14c-.22.06-.44.12-.65.2a4.3,4.3,0,0,0-.6.32.13.13,0,0,1-.12-.08c0-.08-.17.17-.11.26a.76.76,0,0,0-.41.15.46.46,0,0,0,.33.39c-.33.33,0,.62-.32.91.4,0,.33-.55.54-.63,0,.4-.25.47-.25.89,0,.23.14.48,0,.63.34-.09.25-.84.46-1.07a.62.62,0,0,1,0,.38c-.12.35,0,.83-.17,1,.34,0,.38-.58.67-.79a18,18,0,0,1-.86,2.09c-.59.79-.93,1.76-1.47,1.76a.4.4,0,0,1-.42-.38v-.07c0-.9,1.55-1.52,1.55-2.48a.58.58,0,0,0-.57-.59h0a.77.77,0,0,0-.47.2.54.54,0,0,0-.18,0c-.55,0-.41,1-.88,1,.19.11.51-.1.7-.37-.08.63-1,.46-.92,1.23.13-.6,1.59-.51,1.59-1.42a.38.38,0,0,0-.13-.26.56.56,0,0,1,.31-.09.33.33,0,0,1,.33.35v0c0,.81-1.53,1.49-1.53,2.47a.7.7,0,0,0,.13.42.27.27,0,0,1-.32-.08c0,.25.36.41.59.28a.43.43,0,0,0,.16,0,.43.43,0,0,1-.43.24.67.67,0,0,0,1-.43,5.2,5.2,0,0,0,.7-.92v.19a3.28,3.28,0,0,0-.49,1.28c0,.44-.27.84-.58.84-.07,0-.18-.09-.23,0s0,.17,0,.25-.24.25-.24.64c0,.17.1.38.07.5a.74.74,0,0,0,.28-.43c.11.51-.22.49,0,.94a.2.2,0,0,1,.21-.17l.06,0c.09.06,0,.11,0,.18s-.13.4.18.38c-.06,0-.07-.13.09-.16s.27.06.5.06.18-.19.29-.19.11.09.08.15c.18,0,.21-.14.21-.24s-.08-.17,0-.21.27,0,.19.18a.21.21,0,0,0,.16-.23c0-.13-.15-.21-.29-.18s-.14-.13-.25-.13c-.26,0-.22.2-.39.2s-.54-.36-.54-1c0-.32.34-.4.59-.51a2.11,2.11,0,0,0,.94-.81,1.91,1.91,0,0,0,.18-1.15.71.71,0,0,1,.39.69.42.42,0,0,1-.25.43c-.09.05-.12,0-.13.08a.12.12,0,0,0,.07.13c.13.07.1.19.14.32a1,1,0,0,0,.34.48,1.15,1.15,0,0,0,0-.37c.26.13,0,.67.57.67a.14.14,0,0,1,0-.2l0,0c.06,0,.13,0,.23.17s.07.13.32.13.13-.08.26-.08.12.15.06.26a.29.29,0,0,0,.23-.34s0,0,0-.06a.22.22,0,0,1,.29.06s0,.05,0,.08a.25.25,0,0,0,0-.35.25.25,0,0,0-.16-.08.14.14,0,0,0-.13-.15h-.25c-.1,0-.15.14-.25.14-.33,0-1-.59-1-.85s.62-.41.62-.8-.51-.7-.94-1a.86.86,0,0,1,.85-.09c0-.14.12-.11.15-.36.09.22,0,.41.09.5.08-.1.26-.09.25-.36,0,.17-.07.43,0,.54a.15.15,0,0,1,.16-.16c.05,0,.1,0,.1.12s-.25.11-.25.34.12.14.12.2a.13.13,0,0,1-.16.11.09.09,0,0,1-.07,0,.29.29,0,0,0,.23.17.31.31,0,0,0,.28-.21.26.26,0,0,1-.09.34c.11,0,.38,0,.35-.34.15,0,.23.12.14.31a.23.23,0,0,0,.24-.23c0-.13-.11-.13-.06-.26m-2.92-4.67c-.14,0-.14-.12-.39-.18a4.22,4.22,0,0,0,.6-.2c0,.16,0,.37-.21.38m1,1.06a.29.29,0,0,1-.36-.17v0c0-.11-.06-.2,0-.24a.14.14,0,0,0,0-.23c-.1-.09-.17-.06-.3,0,.06-.11.07-.18,0-.17s-.1.16-.15.15,0-.11,0-.16,0-.09.11-.12l.53-.2h.16s.12.08.09.13-.14-.06-.21,0,0,.1.11.13c-.12.07-.24.11-.2.23s.09.13.2.13.1.09.15.19a.27.27,0,0,1-.09.36h0m0-1.46a.29.29,0,0,1-.4-.11s0,0,0,0a4,4,0,0,0,.56-.26c-.14.21,0,.31-.15.4" transform="translate(0 0)"/><path class="cls-16" d="M132.15,24.93a.44.44,0,1,0,.45-.43h0a.44.44,0,0,0-.44.43m.11,0a.33.33,0,1,1,.34.32h0a.32.32,0,0,1-.33-.31h0" transform="translate(0 0)"/><path class="cls-16" d="M130.53,25.33a.23.23,0,0,0-.11.16.26.26,0,0,0,.07.22.38.38,0,0,0,.46.08.22.22,0,0,0,.14-.18.31.31,0,0,0-.28-.33.39.39,0,0,0-.28,0m.2.39a.2.2,0,0,1-.2-.21.18.18,0,0,1,.06-.09.34.34,0,0,1,.2,0,.2.2,0,0,1,.19.18h0a.21.21,0,0,1-.25.13" transform="translate(0 0)"/><path class="cls-16" d="M128.14,19.24a.28.28,0,0,0-.09.38h0a.28.28,0,0,0,.4,0h0a.29.29,0,0,0,.13-.22.25.25,0,0,0,0-.17.18.18,0,0,0-.15-.08.29.29,0,0,0-.25.07m0,.25a.24.24,0,0,1,.25-.21h.08a.07.07,0,0,1,0,.09.24.24,0,0,1-.09.15.16.16,0,0,1-.24,0,.09.09,0,0,1,0-.07" transform="translate(0 0)"/><path class="cls-16" d="M130,24.61a.47.47,0,0,0-.11.26h0a.39.39,0,0,0,.1.25.25.25,0,0,0,.18.08.29.29,0,0,0,.18-.07.35.35,0,0,0,.1-.26.4.4,0,0,0-.07-.24.31.31,0,0,0-.2-.11.25.25,0,0,0-.18.08m.17.49h0a.17.17,0,0,1-.1,0,.26.26,0,0,1-.06-.19.24.24,0,0,1,.07-.18.09.09,0,0,1,.1,0c.09,0,.16.1.16.23a.29.29,0,0,1-.07.18.17.17,0,0,1-.1,0" transform="translate(0 0)"/><path class="cls-16" d="M127.9,21.1a.24.24,0,0,0-.15.13.31.31,0,0,0,.18.4.48.48,0,0,0,.29,0,.29.29,0,0,0,.14-.13.21.21,0,0,0,0-.19.36.36,0,0,0-.19-.21.45.45,0,0,0-.28,0m.08.43c-.11-.06-.17-.17-.13-.25a.18.18,0,0,1,.08-.07.34.34,0,0,1,.2,0,.27.27,0,0,1,.13.15.09.09,0,0,1,0,.1.14.14,0,0,1-.08.07.34.34,0,0,1-.2,0" transform="translate(0 0)"/><path class="cls-16" d="M132.46,20.66c.14.38.42.52.63.42-.47,0-.09-.87-.7-.87h-.1a.5.5,0,0,0-.4-.16.77.77,0,0,0-.71.77c0,1.12,1.3,1.22,1.3,2.21a.47.47,0,0,1-.45.47h0c-.21,0-.39-.24-.57-.63a5.33,5.33,0,0,0-.48-.69.33.33,0,0,0,.19.06.24.24,0,0,0,.26-.22v0h0a.36.36,0,0,0-.11-.25.37.37,0,0,0-.25-.12.24.24,0,0,0-.18.07.21.21,0,0,0-.08.17h0V22a2.35,2.35,0,0,1-.54-.93.88.88,0,0,1,.27-.5h0l.43-.46h0l.05-.06-.14-.11a1.43,1.43,0,0,0,.09-.27c.05.18.14.29.27.25-.09-.18.08-.43,0-.89.11.18.26.27.37.24-.29-.26.09-.61-.29-1.17a.21.21,0,0,0,.26,0c-.34,0-.19-.48-.79-.64.15,0,.24-.11.22-.19-.16.11-.3-.22-.82-.21a.75.75,0,0,0-.42-.5.68.68,0,0,1,0,.4l-1.7-1.66a0,0,0,0,0-.09,0,.2.2,0,0,0,0,.08l1.44,1.73-.33.12a.2.2,0,0,0-.12.19,3,3,0,0,0-.63.41c-.09.08-.16.1-.08.28s-.06.25.15.12.45-.26.5-.15-.13.13-.24.17-.22.13-.21.17.11,0,.11,0,0,.09.08.09.1-.09.13-.06a.37.37,0,0,1-.05.28.33.33,0,0,0,.28-.3c0-.12,0-.15.06-.17s.06.13,0,.22.18-.13.17-.35a.27.27,0,0,1,.12-.06c.06,0,.17.16.32.16a.48.48,0,0,0,.47-.35.33.33,0,0,0,0-.24.44.44,0,0,1,.13.31c0,.41-.72.6-1,.89h0L129,18.7v.13a2.79,2.79,0,0,1-.15.5v.06h0a2.07,2.07,0,0,0-.4.88l-.25-.23V20a.3.3,0,0,0-.08-.24.22.22,0,0,0-.15-.08.27.27,0,0,0-.17.06h0l-.34-.28a.18.18,0,0,0-.14-.06H127a.16.16,0,0,0-.13.09l-.19.15.12.13.06.08.06-.05a.29.29,0,0,1,.13,0,.19.19,0,0,1,.14.09,4.4,4.4,0,0,0,.54.66h-.08a1,1,0,0,1-.41,0c-.1,0-.12,0-.18.07l-.09.13a.2.2,0,0,0,0,.2,9.16,9.16,0,0,1,.43.82c.08.2.18.23.34.3a2.55,2.55,0,0,1,.46.25v-.15l-.2,0h0a2.91,2.91,0,0,1,.39.12,1,1,0,0,0-.27-.41.42.42,0,0,0-.27,0s0,.07-.06.08h0a.06.06,0,0,1-.06-.06v0s.08-.06.07-.15-.12-.1-.19-.11-.18-.28-.26-.43a.15.15,0,0,1,0-.15,2.38,2.38,0,0,1,.6.05h.43a1,1,0,0,0,.76.92.91.91,0,0,1,.65.52c-1.11,0-1.28.42-1.28.83s.39.44.39.79-.94.43-1.22.47a.8.8,0,0,0-.49.2l-.44.44h.17l.16-.2c0-.07.08-.13.11-.12s0,.06,0,.13l-.13.22c.54,0,.58-.17.58-.25s-.13-.14-.06-.19.15,0,.21,0,.09.14.24.08l1.35-.56c.13-.07.09-.13,0-.19a.38.38,0,0,1-.1-.32c0-.36.22-.48.61-.47v.18c0,.56.86,1.11,1.09,1.11s.24-.07.25.27a2.89,2.89,0,0,1,0,.72.52.52,0,0,1-.3.45c-.17.12-.34.51-.41.59.08,0,.16.06.22-.13s.12-.27.19-.3c-.07.17-.12.42-.15.49.22,0,.57-.16.57-.31s-.12-.14-.12-.25a.1.1,0,0,1,.12-.09.18.18,0,0,1,.16.1c.1-.05.16-.15.15-.37v-.28h0a.31.31,0,0,0,.2.11.34.34,0,0,0,.24-.07.3.3,0,0,0,.16-.23h0a.15.15,0,0,0,0-.13.21.21,0,0,0-.25-.13.35.35,0,0,0-.28.06.36.36,0,0,0-.15.21v-1s-.13.07-.21.07A.56.56,0,0,1,131,24c0-.24.26-.56.25-.89,0-.11.06-.16.1-.06a1.58,1.58,0,0,0,.24.39c-.07.42.39.83.77.53a.46.46,0,0,1-.4-.31h.16a.41.41,0,0,0,.58-.05.4.4,0,0,0,.09-.21.43.43,0,0,1-.34.13.65.65,0,0,0,.24-.54c0-1.07-1.29-1.19-1.29-2.16a.6.6,0,0,1,.53-.6.31.31,0,0,1,.2.07.5.5,0,0,0-.12.37c0,.77,1.29.73,1.31,1.1.14-.56-.8-.39-.83-1.13m-3.34-2.95c.06-.11,0-.29.22-.29s.19.1.32.14a1.29,1.29,0,0,0-.54.15M128,20.1a.24.24,0,0,1-.07.16h-.08a.18.18,0,0,1-.13-.19h0a.21.21,0,0,1,.07-.15.11.11,0,0,1,.08,0H128a.22.22,0,0,1,0,.16m3.7,5.39a.29.29,0,0,1,.31-.2.15.15,0,0,1,.09.06h0a.17.17,0,0,1,0,.1.28.28,0,0,1-.12.16.21.21,0,0,1-.28,0,.11.11,0,0,1,0-.11m-.78-3.57a.17.17,0,0,1,0-.1h.1a.26.26,0,0,1,.18.09.25.25,0,0,1,.08.18.17.17,0,0,1,0,.1h0a.21.21,0,0,1-.11,0,.2.2,0,0,1-.12-.08.25.25,0,0,1-.08-.18M128.8,19.5c.06-.18.17-.56.17-.56l.2.08-.17.08a.19.19,0,0,0,.18,0l-.08.2s-.07-.11-.13-.12a.21.21,0,0,0,.13.26c.12.06.2.07.23,0s0-.16-.14-.12a.13.13,0,0,1,.1-.16h0a.13.13,0,0,1,.11.12.33.33,0,0,1,.22-.35.34.34,0,0,1-.11.4h.17s0,.13-.07.18a.1.1,0,0,0-.13-.05.12.12,0,0,0-.05.05c0,.06,0,.13.13.19a.22.22,0,0,0,.29-.06v0a.21.21,0,0,0-.19,0l.14-.25a.19.19,0,0,0,.08.15.33.33,0,0,0,0-.24l.28.16a.3.3,0,0,0-.2.13.22.22,0,0,0,.16,0l-.14.23a.28.28,0,0,0-.06-.18.21.21,0,0,0,.05.29l0,0c.1.06.19.07.23,0a.1.1,0,0,0-.06-.13.09.09,0,0,0-.07,0c0-.11.06-.16.12-.16a.15.15,0,0,1,.11.14.32.32,0,0,1,.28-.29.31.31,0,0,1-.19.36.12.12,0,0,1,.16,0,.11.11,0,0,1,0,.16l0,0a.09.09,0,0,0-.1-.1.09.09,0,0,0-.08,0c0,.06,0,.12.13.19a.2.2,0,0,0,.28,0h0a.25.25,0,0,0-.16-.06l.13-.16a.21.21,0,0,0,.08.16.89.89,0,0,0,0-.23l.18.23-.39.43Zm1.75,4.43a.21.21,0,0,1-.27.08.21.21,0,0,1,0-.29.22.22,0,0,1,.28-.08.21.21,0,0,1,0,.29m.44-.83a.21.21,0,0,1-.27.08.19.19,0,0,1,0-.28.18.18,0,0,1,.34.11.15.15,0,0,1-.06.09" transform="translate(0 0)"/><rect class="cls-2" x="125.72" y="122.45" width="8.1" height="5.01"/><rect class="cls-2" x="125.84" y="122.52" width="7.8" height="4.82"/><g class="cls-18"><path class="cls-2" d="M133.56,122.61V127a.26.26,0,0,1-.26.25h-7.12a.26.26,0,0,1-.26-.26v-4.38Z" transform="translate(0 0)"/><path class="cls-19" d="M133.56,127a.26.26,0,0,1-.26.25h-7.12a.26.26,0,0,1-.26-.26v-4.38h7.64Zm-.26-6.06h-7.12a.64.64,0,0,0-.64.64V127a.63.63,0,0,0,.63.63h7.13a.63.63,0,0,0,.64-.62h0v-5.42a.63.63,0,0,0-.62-.64h0" transform="translate(0 0)"/><path class="cls-2" d="M126.44,121.59a.29.29,0,0,1,.3.28v0a.3.3,0,0,1-.6,0,.29.29,0,0,1,.28-.3h0" transform="translate(0 0)"/><path class="cls-2" d="M127.34,121.59a.29.29,0,0,1,.3.3h0a.32.32,0,0,1-.3.3.29.29,0,0,1-.3-.3h0a.29.29,0,0,1,.28-.3h0" transform="translate(0 0)"/><path class="cls-2" d="M128.24,121.59a.29.29,0,0,1,.3.3h0a.32.32,0,0,1-.3.3.29.29,0,0,1-.3-.3h0a.29.29,0,0,1,.28-.3h0" transform="translate(0 0)"/><path class="cls-19" d="M126.73,124.29h1.54a.1.1,0,0,1,.11.09h0v1a.09.09,0,0,1-.1.1h-1.55a.09.09,0,0,1-.1-.08v-1a.09.09,0,0,1,.08-.1h0" transform="translate(0 0)"/><path class="cls-19" d="M129,124.29h1.55a.09.09,0,0,1,.1.08v1a.09.09,0,0,1-.08.1H129a.09.09,0,0,1-.1-.1h0v-1a.09.09,0,0,1,.1-.1h0" transform="translate(0 0)"/><path class="cls-19" d="M131.2,124.29h1.55a.09.09,0,0,1,.1.1h0v1a.09.09,0,0,1-.1.1H131.2a.09.09,0,0,1-.1-.1h0v-1a.09.09,0,0,1,.1-.1h0" transform="translate(0 0)"/></g><rect class="cls-2" x="125.58" y="113.94" width="8.23" height="5.1"/><rect class="cls-2" x="125.71" y="114.01" width="7.92" height="4.9"/><g class="cls-20"><path class="cls-2" d="M133.55,114.1v4.46a.27.27,0,0,1-.27.26h-7.23a.26.26,0,0,1-.26-.26h0V114.1Z" transform="translate(0 0)"/><path class="cls-19" d="M133.55,118.56a.27.27,0,0,1-.27.26h-7.23a.26.26,0,0,1-.26-.26h0V114.1h7.76Zm-.27-6.16h-7.23a.65.65,0,0,0-.65.65h0v5.51a.65.65,0,0,0,.65.64h7.23a.64.64,0,0,0,.66-.62v0h0V113.1a.65.65,0,0,0-.65-.65h0" transform="translate(0 0)"/><path class="cls-2" d="M126.31,113.1a.29.29,0,0,1,.31.29h0a.31.31,0,0,1-.31.31.29.29,0,0,1-.3-.3h0a.29.29,0,0,1,.28-.3h0" transform="translate(0 0)"/><path class="cls-2" d="M127.23,113.1a.29.29,0,0,1,.3.3h0a.31.31,0,1,1-.61.11.21.21,0,0,1,0-.11.29.29,0,0,1,.3-.3h0" transform="translate(0 0)"/><path class="cls-2" d="M128.14,113.1a.29.29,0,0,1,.31.29h0a.31.31,0,0,1-.31.31.29.29,0,0,1-.3-.3h0a.29.29,0,0,1,.28-.3h0" transform="translate(0 0)"/></g><rect class="cls-21" x="126.26" y="115.45" width="6.81" height="2.25"/><rect class="cls-2" x="125.93" y="135.56" width="7.9" height="4.89"/><rect class="cls-2" x="126.05" y="135.62" width="7.61" height="4.71"/><g class="cls-22"><path class="cls-2" d="M133.57,135.71V140a.25.25,0,0,1-.25.25h-6.95a.25.25,0,0,1-.25-.25v-4.28Z" transform="translate(0 0)"/><path class="cls-19" d="M133.57,140a.25.25,0,0,1-.25.25h-6.95a.25.25,0,0,1-.25-.25v-4.28h7.45Zm-.25-5.91h-6.95a.62.62,0,0,0-.62.62V140a.62.62,0,0,0,.62.62h6.95A.64.64,0,0,0,134,140h0V134.7a.62.62,0,0,0-.62-.62h0" transform="translate(0 0)"/><path class="cls-2" d="M126.63,134.71a.29.29,0,1,1-.29.29.29.29,0,0,1,.29-.29" transform="translate(0 0)"/><path class="cls-2" d="M127.5,134.71a.29.29,0,1,1-.29.29h0a.29.29,0,0,1,.29-.29" transform="translate(0 0)"/><path class="cls-2" d="M128.38,134.71a.29.29,0,1,1-.29.29.29.29,0,0,1,.29-.29" transform="translate(0 0)"/></g><rect class="cls-21" x="126.58" y="137" width="6.54" height="2.16"/><path class="cls-11" d="M231.52,92.86c-.14,0-.29.8-.29,1.9v23c0,1,.15,1.9.29,1.9h42c.14,0,.28-.8.28-1.9v-23c0-1-.14-1.9-.28-1.9Z" transform="translate(0 0)"/><path class="cls-2" d="M279.83,93.5c-.14,0-.28.8-.28,1.9v23c0,1,.14,1.9.28,1.9h40.59c.14,0,.28-.8.28-1.9v-23c0-1-.14-1.9-.28-1.9Z" transform="translate(0 0)"/><path class="cls-2" d="M327.46,92.81c-.14,0-.28.8-.28,1.9v23c0,1,.14,1.9.28,1.9h40.6c.13,0,.27-.8.27-1.9v-23a4,4,0,0,0-.27-1.9Z" transform="translate(0 0)"/><path class="cls-2" d="M375.1,93.5c-.14,0-.27.8-.27,1.9v23c0,1,.13,1.9.27,1.9h40.6c.14,0,.28-.8.28-1.9v-23c0-1-.14-1.9-.28-1.9Z" transform="translate(0 0)"/><path class="cls-11" d="M279.14,92.86c-.14,0-.29.8-.29,1.9v23c0,1,.15,1.9.29,1.9h41.95c.14,0,.28-.8.28-1.9v-23c0-1-.14-1.9-.28-1.9Z" transform="translate(0 0)"/><path class="cls-11" d="M326.78,92.86c-.14,0-.28.8-.28,1.9v23c0,1,.14,1.9.28,1.9h42c.14,0,.29-.8.29-1.9v-23c0-1-.15-1.9-.29-1.9Z" transform="translate(0 0)"/><path class="cls-11" d="M374.43,92.86c-.15,0-.29.8-.29,1.9v23c0,1,.14,1.9.29,1.9h41.95c.14,0,.28-.8.28-1.9v-23c0-1-.14-1.9-.28-1.9Z" transform="translate(0 0)"/><path class="cls-23" d="M32.94,127.4H48.82c.07,0,.14.2.14.5v6.5c0,.3-.07.5-.14.5H32.94c-.07,0-.14-.2-.14-.5v-6.5C32.87,127.7,32.94,127.4,32.94,127.4Z" transform="translate(0 0)"/><path class="cls-2" d="M51.35,127.4H67.22c.07,0,.14.2.14.5v6.5c0,.3-.07.5-.14.5H51.35c-.07,0-.14-.2-.14-.5v-6.5C51.28,127.7,51.35,127.4,51.35,127.4Z" transform="translate(0 0)"/><path class="cls-2" d="M69.4,127.4H85.28c.07,0,.14.2.14.5v6.5c0,.3-.07.5-.14.5H69.4c-.07,0-.14-.2-.14-.5v-6.5C69.33,127.7,69.4,127.4,69.4,127.4Z" transform="translate(0 0)"/><path class="cls-2" d="M87.48,127.4h15.88c.07,0,.14.2.14.5v6.5c0,.3-.07.5-.14.5H87.48c-.07,0-.14-.2-.14-.5v-6.5C87.41,127.7,87.48,127.4,87.48,127.4Z" transform="translate(0 0)"/><path class="cls-23" d="M51.35,127.4H67.22c.07,0,.14.2.14.5v6.5c0,.3-.07.5-.14.5H51.35c-.07,0-.14-.2-.14-.5v-6.5C51.28,127.7,51.35,127.4,51.35,127.4Z" transform="translate(0 0)"/><path class="cls-23" d="M69.4,127.4H85.28c.07,0,.14.2.14.5v6.5c0,.3-.07.5-.14.5H69.4c-.07,0-.14-.2-.14-.5v-6.5C69.33,127.7,69.4,127.4,69.4,127.4Z" transform="translate(0 0)"/><path class="cls-23" d="M87.48,127.4h15.88c.07,0,.14.2.14.5v6.5c0,.3-.07.5-.14.5H87.48c-.07,0-.14-.2-.14-.5v-6.5C87.41,127.7,87.48,127.4,87.48,127.4Z" transform="translate(0 0)"/><path d="M37.07,132.66l-.36-.91H35.57l-.35.91h-.34L36,129.79h.3l1.11,2.87Zm-.46-1.2-.33-.9v-.12a1.09,1.09,0,0,0-.05-.17v.29l-.34.9Z" transform="translate(0 0)"/><path d="M39.54,132.66h-.32v-2.22a.43.43,0,0,1,0-.16v-.14l-.12.11-.13.11-.32.26-.17-.22.77-.6h.27Z" transform="translate(0 0)"/><path d="M41.53,129.8h.81a1.58,1.58,0,0,1,.8.16.58.58,0,0,1,.27.55.72.72,0,0,1-.06.29.55.55,0,0,1-.18.22.79.79,0,0,1-.3.12h0a1.28,1.28,0,0,1,.33.11.54.54,0,0,1,.23.22.79.79,0,0,1-.39,1.07,1.22,1.22,0,0,1-.53.1h-1Zm.33,1.23h.55a.86.86,0,0,0,.52-.13.45.45,0,0,0,.14-.36.4.4,0,0,0-.17-.35,1.12,1.12,0,0,0-.54-.11h-.5Zm0,.28v1.06h.6a.81.81,0,0,0,.54-.15.54.54,0,0,0,.15-.4.53.53,0,0,0-.07-.28.44.44,0,0,0-.23-.17,1.52,1.52,0,0,0-.42-.06Z" transform="translate(0 0)"/><path d="M46.51,132.66H44.64v-.27l.77-.78c.14-.14.26-.27.35-.38a1.5,1.5,0,0,0,.23-.33.89.89,0,0,0,.07-.36.47.47,0,0,0-.14-.37.52.52,0,0,0-.38-.13.89.89,0,0,0-.36.07,1.38,1.38,0,0,0-.33.2l-.17-.22a2.2,2.2,0,0,1,.25-.17,1.39,1.39,0,0,1,.28-.12.92.92,0,0,1,.33,0,1.18,1.18,0,0,1,.46.09.73.73,0,0,1,.29.26.84.84,0,0,1,.11.41,1,1,0,0,1-.09.42,1.42,1.42,0,0,1-.26.38,4.72,4.72,0,0,1-.37.41l-.63.62h1.46Z" transform="translate(0 0)"/><path d="M237.08,108l-.91,2.76H235l3-8.76h1.36l3,8.76h-1.21l-.93-2.76Zm2.92-.87-.86-2.52c-.19-.57-.32-1.09-.45-1.6h0c-.13.52-.27,1-.44,1.58l-.86,2.54Z" transform="translate(0 0)"/><path d="M248,103.34h0l-1.47.8-.22-.87,1.85-1h1v8.45H248Z" transform="translate(0 0)"/><path d="M255,102.1a11.86,11.86,0,0,1,2.06-.18,3.63,3.63,0,0,1,2.41.64,1.88,1.88,0,0,1,.73,1.55,2.08,2.08,0,0,1-1.49,1.92h0a2.24,2.24,0,0,1,1.81,2.19,2.4,2.4,0,0,1-.74,1.76,4.4,4.4,0,0,1-3,.82,11.35,11.35,0,0,1-1.75-.11Zm1.13,3.59h1c1.2,0,1.9-.62,1.9-1.47,0-1-.78-1.43-1.92-1.43a4.77,4.77,0,0,0-1,.08Zm0,4.2a5,5,0,0,0,.95,0c1.17,0,2.25-.43,2.25-1.7s-1-1.69-2.27-1.69h-.93Z" transform="translate(0 0)"/><path d="M264,110.73V110l.9-.87c2.1-2.06,3.1-3.15,3.1-4.42a1.51,1.51,0,0,0-1.34-1.66,1.82,1.82,0,0,0-.33,0,2.93,2.93,0,0,0-1.8.72l-.36-.81a3.66,3.66,0,0,1,2.39-.85,2.37,2.37,0,0,1,2.58,2.14c0,.1,0,.21,0,.31,0,1.56-1.13,2.82-2.92,4.54l-.67.62h3.79v1Z" transform="translate(0 0)"/><path d="M289,110.1a6,6,0,0,1-2.32.41,4.09,4.09,0,0,1-4.38-3.78,3.32,3.32,0,0,1,0-.63,4.36,4.36,0,0,1,4.11-4.6,3.68,3.68,0,0,1,.47,0,4.65,4.65,0,0,1,2.08.39l-.27.92a4.16,4.16,0,0,0-1.77-.36,3.26,3.26,0,0,0-3.44,3.07,3.75,3.75,0,0,0,0,.58,3.19,3.19,0,0,0,2.84,3.51,3.11,3.11,0,0,0,.53,0,4.48,4.48,0,0,0,1.84-.36Z" transform="translate(0 0)"/><path d="M292.57,109.1a3.78,3.78,0,0,0,1.88.53c1.47,0,1.92-.93,1.91-1.64,0-1.18-1.08-1.69-2.19-1.69h-.63v-.85h.63c.83,0,1.89-.43,1.89-1.43,0-.68-.43-1.28-1.48-1.28a3.1,3.1,0,0,0-1.69.56l-.3-.83a4,4,0,0,1,2.21-.65c1.66,0,2.41,1,2.41,2a2.09,2.09,0,0,1-1.55,2h0a2.2,2.2,0,0,1,1.88,2.17c0,1.35-1.05,2.53-3.08,2.53a4.25,4.25,0,0,1-2.2-.57Z" transform="translate(0 0)"/><path d="M301.71,101.77a15,15,0,0,1,2.41-.19,5,5,0,0,1,3.55,1.1,4,4,0,0,1,1.23,3.14,4.63,4.63,0,0,1-1.26,3.41,5.4,5.4,0,0,1-3.87,1.26,20.15,20.15,0,0,1-2.06-.1Zm1.13,7.74a6.35,6.35,0,0,0,1.15.07,3.37,3.37,0,0,0,3.73-3,3.14,3.14,0,0,0,0-.75c0-2.07-1.16-3.38-3.55-3.38a5.93,5.93,0,0,0-1.33.12Z" transform="translate(0 0)"/><path d="M315.84,110.41V108.1h-3.92v-.75l3.77-5.4h1.23v5.25h1.19v.9h-1.19v2.3Zm0-3.2v-4.14h0c-.26.49-.46.85-.7,1.24l-2.06,2.88h0Z" transform="translate(0 0)"/><path d="M337.29,106.62h-3.41v3.16h3.8v1h-4.93V102h4.73v1h-3.6v2.77h3.41Z" transform="translate(0 0)"/><path d="M346.12,103.24H342.9l-.32,2.17h.69a3.39,3.39,0,0,1,1.81.46,2.38,2.38,0,0,1,1.21,2.17,2.92,2.92,0,0,1-3,2.89h-.19a4.1,4.1,0,0,1-2.11-.52l.29-.87a3.66,3.66,0,0,0,1.8.47,1.88,1.88,0,0,0,2-1.74v-.09c0-1.1-.74-1.88-2.43-1.88a11.52,11.52,0,0,0-1.17.09l.54-4h4Z" transform="translate(0 0)"/><path d="M350.49,102h4.72v1h-3.59v2.91h3.32v.93h-3.32v4h-1.13Z" transform="translate(0 0)"/><path d="M363.58,103.1a4.06,4.06,0,0,0-.85.06,3.43,3.43,0,0,0-2.94,3h0a2.58,2.58,0,0,1,4.59,1.76,2.82,2.82,0,0,1-2.65,3h-.16c-1.81,0-3-1.4-3-3.6a5.32,5.32,0,0,1,1.43-3.81,4.67,4.67,0,0,1,2.7-1.25,5.69,5.69,0,0,1,.83-.06Zm-.32,4.88a1.73,1.73,0,0,0-1.49-1.93h-.25a1.88,1.88,0,0,0-1.64,1,1,1,0,0,0-.13.51c0,1.39.66,2.42,1.86,2.42,1,0,1.65-.8,1.65-2Z" transform="translate(0 0)"/><path d="M384.44,110a8.19,8.19,0,0,1-2.69.48,4.11,4.11,0,0,1-4.49-3.71,3.37,3.37,0,0,1,0-.71,4.39,4.39,0,0,1,4.26-4.53,4,4,0,0,1,.49,0,5.41,5.41,0,0,1,2.18.4l-.27.92a4.6,4.6,0,0,0-1.94-.37,3.27,3.27,0,0,0-3.52,3,4.51,4.51,0,0,0,0,.52,3.22,3.22,0,0,0,2.88,3.53,2.79,2.79,0,0,0,.5,0,3.71,3.71,0,0,0,1.51-.24v-2.61h-1.78v-.91h2.88Z" transform="translate(0 0)"/><path d="M393.59,102v.76l-3.67,7.69h-1.19l3.67-7.47h-4.14v-1Z" transform="translate(0 0)"/><path d="M398.65,101.65v3.67h4.24v-3.67H404v8.76h-1.14V106.3h-4.24v4.11h-1.13v-8.76Z" transform="translate(0 0)"/><path d="M407.83,108.27a2.43,2.43,0,0,1,1.68-2.27h0a2.12,2.12,0,0,1-1.34-1.9,2.37,2.37,0,0,1,2.47-2.26h.15a2.18,2.18,0,0,1,2.43,1.89,1.23,1.23,0,0,1,0,.19,2.14,2.14,0,0,1-1.39,2h0a2.35,2.35,0,0,1,1.71,2.19,2.6,2.6,0,0,1-2.73,2.46h-.15C408.89,110.55,407.83,109.5,407.83,108.27Zm4.55-.06c0-1-.72-1.52-1.86-1.84A1.82,1.82,0,0,0,409,108.1a1.55,1.55,0,0,0,1.5,1.61.6.6,0,0,0,.19,0,1.53,1.53,0,0,0,1.68-1.34.86.86,0,0,0,0-.16ZM409.23,104c0,.84.64,1.3,1.61,1.56a1.67,1.67,0,0,0,1.29-1.53,1.31,1.31,0,0,0-1.23-1.38.67.67,0,0,0-.2,0,1.34,1.34,0,0,0-1.46,1.2.76.76,0,0,0,0,.15Z" transform="translate(0 0)"/><path d="M54.82,130.1a1.26,1.26,0,0,0-.43.08,1.08,1.08,0,0,0-.32.24,1.11,1.11,0,0,0-.2.37,1.61,1.61,0,0,0-.07.49,1.66,1.66,0,0,0,.11.62.91.91,0,0,0,.34.41,1,1,0,0,0,.56.14,2.16,2.16,0,0,0,.36,0l.33-.08v.29l-.33.09h-.41a1.31,1.31,0,0,1-.72-.18,1.07,1.07,0,0,1-.44-.52,1.86,1.86,0,0,1-.15-.77,2,2,0,0,1,.09-.6,1.33,1.33,0,0,1,.27-.46,1.28,1.28,0,0,1,.43-.3,1.62,1.62,0,0,1,.58-.11,1.48,1.48,0,0,1,.42,0,1.11,1.11,0,0,1,.36.13l-.13.28-.3-.11A1.37,1.37,0,0,0,54.82,130.1Z" transform="translate(0 0)"/><path d="M58.41,130.47a.64.64,0,0,1-.07.33.66.66,0,0,1-.21.23.84.84,0,0,1-.31.12h0a.82.82,0,0,1,.51.22.6.6,0,0,1,.17.46.86.86,0,0,1-.12.44.74.74,0,0,1-.35.3,1.48,1.48,0,0,1-.62.11H57a1.23,1.23,0,0,1-.37-.12v-.31a1.74,1.74,0,0,0,.38.14,1.41,1.41,0,0,0,.41,0,.8.8,0,0,0,.56-.15.55.55,0,0,0,.18-.43.47.47,0,0,0-.1-.3.62.62,0,0,0-.28-.17,2.1,2.1,0,0,0-.43-.05h-.29V131h.29a1.32,1.32,0,0,0,.39-.06.55.55,0,0,0,.25-.2.5.5,0,0,0,.09-.29.4.4,0,0,0-.15-.34.6.6,0,0,0-.39-.11h-.28l-.23.08-.22.13-.16-.22a1.41,1.41,0,0,1,.38-.21,1.48,1.48,0,0,1,.51-.09.9.9,0,0,1,.65.2A.63.63,0,0,1,58.41,130.47Z" transform="translate(0 0)"/><path d="M62.11,131.2a1.74,1.74,0,0,1-.17.81,1.08,1.08,0,0,1-.51.48,1.74,1.74,0,0,1-.81.17h-.77V129.8h.86a1.61,1.61,0,0,1,.75.16,1.09,1.09,0,0,1,.48.47A1.58,1.58,0,0,1,62.11,131.2Zm-.35,0a1.36,1.36,0,0,0-.12-.63.85.85,0,0,0-.38-.37,1.38,1.38,0,0,0-.6-.13h-.48v2.29h.4a1.26,1.26,0,0,0,.89-.29,1.19,1.19,0,0,0,.29-.86Z" transform="translate(0 0)"/><path d="M65.29,132h-.43v.67h-.32V132H63.16v-.27l1.36-1.93h.34v1.91h.43Zm-.75-.29v-.93a.67.67,0,0,1,0-.2v-.47h0l-.09.17-.09.15-.88,1.25Z" transform="translate(0 0)"/><path d="M73.81,132.52H72.22v-2.85h1.59V130H72.55v.92h1.19v.29H72.55v1.06h1.26Z" transform="translate(0 0)"/><path d="M75.87,130.77a1.25,1.25,0,0,1,.51.1.72.72,0,0,1,.33.29.89.89,0,0,1,.12.45.9.9,0,0,1-.13.51.82.82,0,0,1-.36.33,1.38,1.38,0,0,1-.57.11,1.48,1.48,0,0,1-.42,0,1,1,0,0,1-.32-.12v-.34a1.48,1.48,0,0,0,.35.13,1.31,1.31,0,0,0,.39.05,1,1,0,0,0,.38-.07.49.49,0,0,0,.26-.21.73.73,0,0,0,.09-.35.55.55,0,0,0-.18-.44.78.78,0,0,0-.55-.16h-.5l-.17-.1.11-1.34h1.42v.29H75.49l-.07.86h.45Z" transform="translate(0 0)"/><path d="M78.5,132.52h-.33v-2.85h1.59V130H78.5v1h1.18v.29H78.5Z" transform="translate(0 0)"/><path d="M80.79,131.3a2.09,2.09,0,0,1,0-.5,1.83,1.83,0,0,1,.12-.46,1.1,1.1,0,0,1,.23-.37,1.05,1.05,0,0,1,.37-.25,1.24,1.24,0,0,1,.54-.1h.35v.28a.43.43,0,0,0-.16,0h-.19a.9.9,0,0,0-.57.16.87.87,0,0,0-.3.43,1.81,1.81,0,0,0-.1.61h0a.65.65,0,0,1,.15-.18,1,1,0,0,1,.23-.13.81.81,0,0,1,.31,0,.86.86,0,0,1,.44.1.81.81,0,0,1,.29.29,1.17,1.17,0,0,1,0,1,.66.66,0,0,1-.31.33,1,1,0,0,1-.48.12,1,1,0,0,1-.39-.08.7.7,0,0,1-.3-.24,1,1,0,0,1-.21-.39A2.14,2.14,0,0,1,80.79,131.3Zm1,1a.57.57,0,0,0,.43-.17.75.75,0,0,0,.16-.52.65.65,0,0,0-.14-.44.54.54,0,0,0-.43-.17.77.77,0,0,0-.34.08.66.66,0,0,0-.23.21.44.44,0,0,0-.08.25.93.93,0,0,0,.16.51.81.81,0,0,0,.19.18.53.53,0,0,0,.24.06Z" transform="translate(0 0)"/><path d="M90.81,131.16h1v1.39a3.57,3.57,0,0,1-.47.11h-.53a1.51,1.51,0,0,1-.75-.18,1.19,1.19,0,0,1-.46-.51,1.73,1.73,0,0,1-.16-.78,1.58,1.58,0,0,1,.17-.77,1.28,1.28,0,0,1,.51-.52,1.59,1.59,0,0,1,.8-.18,1.69,1.69,0,0,1,.45,0,1.87,1.87,0,0,1,.4.13l-.13.29a2.06,2.06,0,0,0-.35-.12,1.74,1.74,0,0,0-.39-.05,1.05,1.05,0,0,0-.6.15.92.92,0,0,0-.38.4,1.37,1.37,0,0,0-.13.63,1.48,1.48,0,0,0,.11.62.89.89,0,0,0,.36.41,1.15,1.15,0,0,0,.63.15h.33l.25-.06v-.87h-.66Z" transform="translate(0 0)"/><path d="M93.39,132.66l1.17-2.56H93v-.3h1.9v.3l-1.16,2.61Z" transform="translate(0 0)"/><path d="M98.39,132.66h-.34v-1.35h-1.5v1.35h-.33V129.8h.33V131h1.5V129.8h.34Z" transform="translate(0 0)"/><path d="M100.64,129.76a1.32,1.32,0,0,1,.44.08.57.57,0,0,1,.3.23.62.62,0,0,1,.11.37.61.61,0,0,1-.08.3.74.74,0,0,1-.2.23,2.61,2.61,0,0,1-.28.17l.33.19a.92.92,0,0,1,.23.25.67.67,0,0,1,.09.34.73.73,0,0,1-.12.41.65.65,0,0,1-.32.27,1.32,1.32,0,0,1-1,0,.68.68,0,0,1-.32-.26.84.84,0,0,1-.11-.41.67.67,0,0,1,.09-.34.75.75,0,0,1,.22-.25,1.49,1.49,0,0,1,.3-.18,1.51,1.51,0,0,1-.26-.18.71.71,0,0,1-.19-.23.67.67,0,0,1-.07-.31.62.62,0,0,1,.11-.37.79.79,0,0,1,.31-.23A1.26,1.26,0,0,1,100.64,129.76Zm-.62,2.17a.44.44,0,0,0,.15.36.67.67,0,0,0,.47.15.64.64,0,0,0,.46-.15.44.44,0,0,0,.16-.37.43.43,0,0,0-.07-.25.76.76,0,0,0-.21-.19,1.26,1.26,0,0,0-.33-.16h-.07a1.08,1.08,0,0,0-.3.16.48.48,0,0,0-.19.21.5.5,0,0,0-.09.24Zm.62-1.9a.57.57,0,0,0-.38.11.35.35,0,0,0-.15.31.44.44,0,0,0,.08.25.55.55,0,0,0,.19.18l.27.14.27-.14a.52.52,0,0,0,.18-.18.45.45,0,0,0,.07-.25.35.35,0,0,0-.17-.35.57.57,0,0,0-.36-.07Z" transform="translate(0 0)"/><g class="cls-24"><path class="cls-25" d="M25.83,17.33a1.08,1.08,0,0,1-.48-.1l.07-.17a.72.72,0,0,0,.37.09.39.39,0,0,0,.43-.37c0-.46-.83-.27-.83-.86a.54.54,0,0,1,.59-.53.86.86,0,0,1,.42.1l-.06.15a.63.63,0,0,0-.34-.09.34.34,0,0,0-.38.35c0,.45.84.25.84.87a.58.58,0,0,1-.63.56" transform="translate(0 0)"/><path class="cls-25" d="M28.2,17.29H28l-.33-1.07a1,1,0,0,1,0-.18h0a1,1,0,0,1,0,.18l-.34,1.07h-.19l-.46-1.46h.23l.3,1.07a1.21,1.21,0,0,1,0,.19h0a1.21,1.21,0,0,1,0-.19l.33-1.07h.2l.32,1.07a1.83,1.83,0,0,1,.05.19h0l0-.19.31-1.07h.2Z" transform="translate(0 0)"/><path class="cls-25" d="M29.31,17.88h-.24l.27-.59-.54-1.46H29l.35,1.08a1.72,1.72,0,0,1,.05.2h0a1.72,1.72,0,0,1,0-.2l.36-1.08h.2Z" transform="translate(0 0)"/><path class="cls-25" d="M30.89,17.33a.65.65,0,0,1-.69-.74.69.69,0,0,1,.69-.78,1.14,1.14,0,0,1,.28,0v-.68h.21v2.07a1.13,1.13,0,0,1-.49.1M31.17,16a.85.85,0,0,0-.23,0c-.38,0-.52.32-.52.64s.14.61.49.61a.6.6,0,0,0,.26-.05Z" transform="translate(0 0)"/><path class="cls-25" d="M32.35,17.33a.65.65,0,0,1-.69-.74.69.69,0,0,1,.69-.78,1.14,1.14,0,0,1,.28,0v-.68h.21v2.07a1.13,1.13,0,0,1-.49.1M32.63,16a.85.85,0,0,0-.23,0c-.38,0-.52.32-.52.64s.14.61.49.61a.6.6,0,0,0,.26-.05Z" transform="translate(0 0)"/><path class="cls-25" d="M33.52,16v1.33h-.21V16h-.22v-.13h.22v-.21a.43.43,0,0,1,.47-.46h0v.14h0a.26.26,0,0,0-.28.29v.24h.31V16Z" transform="translate(0 0)"/><path class="cls-25" d="M34.53,17.33c-.41,0-.59-.17-.59-.43s.41-.51.91-.56v-.09c0-.23-.16-.31-.38-.31a.85.85,0,0,0-.38.09L34,15.9a1.06,1.06,0,0,1,.47-.1c.29,0,.54.12.54.47v1a1.2,1.2,0,0,1-.52.1m.32-.88c-.42.05-.7.13-.7.44s.16.31.4.31a.64.64,0,0,0,.3-.06Z" transform="translate(0 0)"/><polygon class="cls-25" points="26.17 19.44 26.17 20.25 25.84 20.25 25.84 19.44 25.27 18.39 25.62 18.39 26.02 19.18 26.02 19.18 26.43 18.39 26.75 18.39 26.17 19.44"/><path class="cls-25" d="M27.27,20.29a.86.86,0,0,1-.44-.11l.08-.2a.55.55,0,0,0,.32.09.26.26,0,0,0,.29-.23c0-.35-.64-.18-.64-.66a.46.46,0,0,1,.51-.43.77.77,0,0,1,.41.11l-.08.18a.53.53,0,0,0-.27-.09.23.23,0,0,0-.26.21c0,.33.65.19.65.67a.51.51,0,0,1-.57.46" transform="translate(0 0)"/><path class="cls-25" d="M28.64,20.28a.38.38,0,0,1-.43-.39V19H28v-.19h.2v-.33l.31-.09v.42h.29V19h-.29v.89a.18.18,0,0,0,.2.2h.09v.19a.34.34,0,0,1-.17,0" transform="translate(0 0)"/><path class="cls-25" d="M29.61,20.29c-.43,0-.63-.17-.63-.45s.41-.5.9-.54v-.09c0-.2-.14-.26-.34-.26a.9.9,0,0,0-.39.09l-.08-.18a1.32,1.32,0,0,1,.53-.11c.32,0,.57.13.57.51v.92a1.18,1.18,0,0,1-.56.11m.27-.85c-.36,0-.6.11-.6.39s.14.28.35.28a.55.55,0,0,0,.25-.05Z" transform="translate(0 0)"/><path class="cls-25" d="M31.16,20.29a.67.67,0,0,1-.73-.75.7.7,0,0,1,.7-.78,1.7,1.7,0,0,1,.26,0v-.67h.31v2.06a1.09,1.09,0,0,1-.54.11M31.39,19l-.19,0c-.32,0-.45.27-.45.58s.12.57.42.57a.45.45,0,0,0,.22-.05Z" transform="translate(0 0)"/><path class="cls-25" d="M32.26,19.63a.43.43,0,0,0,.46.44,1,1,0,0,0,.41-.08l.07.19a1.17,1.17,0,0,1-.51.11.68.68,0,0,1-.73-.77c0-.49.26-.77.67-.77s.63.26.63.75Zm.35-.69c-.21,0-.38.17-.37.54l.72-.1c0-.31-.14-.44-.35-.44" transform="translate(0 0)"/><path class="cls-25" d="M34.07,20.87a1.4,1.4,0,0,1-.54-.1l.08-.2a1.16,1.16,0,0,0,.42.08c.27,0,.39-.14.39-.34v-.1a.68.68,0,0,1-1-.66.72.72,0,0,1,.76-.8,1.07,1.07,0,0,1,.51.11v1.42a.58.58,0,0,1-.66.59M34.42,19a.52.52,0,0,0-.21,0c-.29,0-.43.23-.43.6s.14.55.41.55a.49.49,0,0,0,.23-.05Z" transform="translate(0 0)"/><path class="cls-25" d="M35.61,20.29c-.43,0-.63-.17-.63-.45s.41-.5.9-.54v-.09c0-.2-.14-.26-.34-.26a1,1,0,0,0-.4.09l-.07-.18a1.28,1.28,0,0,1,.53-.11c.32,0,.57.13.57.51v.92a1.18,1.18,0,0,1-.56.11m.27-.85c-.36,0-.61.11-.61.39s.14.28.36.28a.55.55,0,0,0,.25-.05Z" transform="translate(0 0)"/><path class="cls-25" d="M37.08,20.29c-.42,0-.6-.19-.6-.51v-1h.31v1c0,.16.1.27.3.27a.64.64,0,0,0,.27,0V18.79h.31v1.39a1.37,1.37,0,0,1-.59.11" transform="translate(0 0)"/><path class="cls-25" d="M39.58,20.29a.88.88,0,0,1-.91-1,.89.89,0,0,1,.92-1,1.16,1.16,0,0,1,.51.1l-.08.2a1.08,1.08,0,0,0-.39-.07c-.35,0-.62.22-.62.74s.25.74.55.74a.69.69,0,0,0,.26,0v-.64h-.33v-.19h.65v1a1.18,1.18,0,0,1-.56.11" transform="translate(0 0)"/><path class="cls-25" d="M42.06,20.25h-.29l-.29-.95a1.21,1.21,0,0,1,0-.19h0a1.21,1.21,0,0,1,0,.19l-.3.95h-.28l-.45-1.46h.32l.26,1c0,.1,0,.2,0,.2h0a.83.83,0,0,1,.05-.2l.29-1h.27l.29,1,0,.2h0a1,1,0,0,1,0-.2l.26-1h.29Z" transform="translate(0 0)"/><polygon class="cls-25" points="42.73 20.25 42.73 18.12 43.04 18.12 43.04 19 43.04 20.25 42.73 20.25"/><path class="cls-25" d="M43.93,20.29c-.42,0-.63-.17-.63-.45s.41-.5.9-.54v-.09c0-.2-.13-.26-.33-.26a.91.91,0,0,0-.4.09l-.07-.18a1.22,1.22,0,0,1,.52-.11c.33,0,.58.13.58.51v.92a1.22,1.22,0,0,1-.57.11m.27-.85c-.36,0-.6.11-.6.39s.14.28.36.28a.51.51,0,0,0,.24-.05Z" transform="translate(0 0)"/><path class="cls-25" d="M45.49,20.29a.67.67,0,0,1-.73-.75.69.69,0,0,1,.69-.78,1.56,1.56,0,0,1,.26,0v-.67H46v2.06a1,1,0,0,1-.53.11M45.71,19l-.19,0c-.32,0-.45.27-.45.58s.13.57.43.57a.38.38,0,0,0,.21-.05Z" transform="translate(0 0)"/><path class="cls-25" d="M47,20.29c-.45,0-.67-.33-.67-.77s.22-.77.67-.77.66.34.66.77-.22.77-.66.77M47,19c-.27,0-.35.28-.35.57s.08.55.35.55.35-.27.35-.55S47.22,19,47,19" transform="translate(0 0)"/><polygon class="cls-25" points="47.88 20.25 47.88 18.12 48.2 18.12 48.2 19.05 48.2 20.25 47.88 20.25"/><path class="cls-26" d="M18.7,18.19c.08-.17.17-.34.26-.5a5,5,0,0,1-.26-.8v1.3m.51-3.28s-.51,0-.51.63v.33a6.09,6.09,0,0,0,.37,1.65,5.38,5.38,0,0,1,1-1.21,6.49,6.49,0,0,1,3.42-1.4Z" transform="translate(0 0)"/><path class="cls-25" d="M24.08,15.25a6.49,6.49,0,0,0-3.71,1.37A5.1,5.1,0,0,0,19.27,18a4.48,4.48,0,0,0,4,2.35h.2a.63.63,0,0,0,.64-.69V15.25h0m-4.39,3.64a3.82,3.82,0,0,1-.51-.75,7.55,7.55,0,0,0-.48,1.12v1.06h3.42a4.49,4.49,0,0,1-2.43-1.43" transform="translate(0 0)"/></g><g class="cls-27"><path class="cls-25" d="M25.83,17.35a1.08,1.08,0,0,1-.48-.1l.07-.17a.72.72,0,0,0,.37.09.39.39,0,0,0,.43-.37c0-.46-.83-.27-.83-.86a.54.54,0,0,1,.59-.53.86.86,0,0,1,.42.1l-.06.15a.63.63,0,0,0-.34-.09.34.34,0,0,0-.38.35c0,.44.84.25.84.87a.58.58,0,0,1-.63.56" transform="translate(0 0)"/><path class="cls-25" d="M28.2,17.31H28l-.33-1.08a.81.81,0,0,1,0-.17h0a.81.81,0,0,1,0,.17l-.34,1.08h-.19l-.46-1.46h.23l.3,1.07a1.21,1.21,0,0,1,0,.19h0a1.21,1.21,0,0,1,0-.19l.33-1.07h.2l.32,1.07a1.83,1.83,0,0,1,.05.19h0s0-.11,0-.19l.31-1.07h.2Z" transform="translate(0 0)"/><path class="cls-25" d="M29.31,17.89h-.24l.27-.58-.54-1.46H29l.35,1.08a1.83,1.83,0,0,1,.05.19h0a1.83,1.83,0,0,1,0-.19l.36-1.08h.2Z" transform="translate(0 0)"/><path class="cls-25" d="M30.89,17.35a.65.65,0,0,1-.69-.74.69.69,0,0,1,.69-.78,1.14,1.14,0,0,1,.28,0v-.68h.21v2.07a1.13,1.13,0,0,1-.49.1M31.17,16a.85.85,0,0,0-.23,0c-.38,0-.52.32-.52.64s.14.61.49.61a.6.6,0,0,0,.26-.05Z" transform="translate(0 0)"/><path class="cls-25" d="M32.35,17.35a.65.65,0,0,1-.69-.74.69.69,0,0,1,.69-.78,1.14,1.14,0,0,1,.28,0v-.68h.21v2.07a1.13,1.13,0,0,1-.49.1M32.63,16a.85.85,0,0,0-.23,0c-.38,0-.52.32-.52.64s.14.61.49.61a.6.6,0,0,0,.26-.05Z" transform="translate(0 0)"/><path class="cls-25" d="M33.52,16v1.33h-.21V16h-.22v-.13h.22v-.21a.43.43,0,0,1,.47-.46h0v.14h0a.26.26,0,0,0-.28.29v.24h.31V16Z" transform="translate(0 0)"/><path class="cls-25" d="M34.53,17.35c-.41,0-.59-.17-.59-.43s.41-.51.91-.56v-.09c0-.24-.16-.31-.38-.31a.85.85,0,0,0-.38.09L34,15.92a1,1,0,0,1,.47-.11c.29,0,.54.12.54.48v1a1.2,1.2,0,0,1-.52.1m.32-.88c-.42.05-.7.13-.7.44s.16.31.4.31a.79.79,0,0,0,.3-.06Z" transform="translate(0 0)"/><polygon class="cls-25" points="26.17 19.46 26.17 20.27 25.84 20.27 25.84 19.46 25.27 18.41 25.62 18.41 26.02 19.2 26.02 19.2 26.43 18.41 26.75 18.41 26.17 19.46"/><path class="cls-25" d="M27.27,20.31a.86.86,0,0,1-.44-.11l.08-.2a.64.64,0,0,0,.32.09.26.26,0,0,0,.29-.23c0-.35-.64-.18-.64-.66a.46.46,0,0,1,.51-.43.77.77,0,0,1,.41.11l-.08.18a.53.53,0,0,0-.27-.09.23.23,0,0,0-.26.21c0,.33.65.18.65.67a.51.51,0,0,1-.57.46" transform="translate(0 0)"/><path class="cls-25" d="M28.64,20.3a.38.38,0,0,1-.43-.39V19H28v-.19h.2v-.33l.31-.09v.42h.29V19h-.29v.89a.19.19,0,0,0,.2.2h.09v.19a.34.34,0,0,1-.17,0" transform="translate(0 0)"/><path class="cls-25" d="M29.61,20.31c-.43,0-.63-.17-.63-.45s.41-.5.9-.54v-.09c0-.2-.14-.26-.34-.26a.9.9,0,0,0-.39.09l-.08-.18a1.32,1.32,0,0,1,.53-.11c.32,0,.57.13.57.51v.92a1.31,1.31,0,0,1-.56.11m.27-.85c-.36,0-.6.11-.6.39s.14.28.35.28a.55.55,0,0,0,.25-.05Z" transform="translate(0 0)"/><path class="cls-25" d="M31.16,20.31a.67.67,0,0,1-.73-.75.7.7,0,0,1,.7-.78,1.7,1.7,0,0,1,.26,0v-.67h.31V20.2a1.21,1.21,0,0,1-.54.11M31.39,19l-.19,0c-.32,0-.45.27-.45.58s.12.57.42.57a.45.45,0,0,0,.22-.05Z" transform="translate(0 0)"/><path class="cls-25" d="M32.26,19.65a.43.43,0,0,0,.46.44,1,1,0,0,0,.41-.09l.07.2a1.17,1.17,0,0,1-.51.11.68.68,0,0,1-.73-.77c0-.49.26-.77.67-.77s.63.26.63.75Zm.35-.69c-.21,0-.38.17-.37.53l.72-.1c0-.3-.14-.43-.35-.43" transform="translate(0 0)"/><path class="cls-25" d="M34.07,20.89a1.4,1.4,0,0,1-.54-.1l.08-.2a1.16,1.16,0,0,0,.42.08c.27,0,.39-.14.39-.34v-.1a.68.68,0,0,1-1-.66.72.72,0,0,1,.76-.8,1.07,1.07,0,0,1,.51.11V20.3a.58.58,0,0,1-.66.59M34.42,19a.49.49,0,0,0-.21-.05c-.29,0-.43.24-.43.61s.14.55.41.55a.49.49,0,0,0,.23-.05Z" transform="translate(0 0)"/><path class="cls-25" d="M35.61,20.31c-.43,0-.63-.17-.63-.45s.41-.5.9-.54v-.09c0-.2-.14-.26-.34-.26a1,1,0,0,0-.4.09l-.07-.18a1.28,1.28,0,0,1,.53-.11c.32,0,.57.13.57.51v.92a1.31,1.31,0,0,1-.56.11m.27-.85c-.36,0-.61.11-.61.39s.14.28.36.28a.55.55,0,0,0,.25-.05Z" transform="translate(0 0)"/><path class="cls-25" d="M37.08,20.31c-.42,0-.6-.19-.6-.51v-1h.31v1a.27.27,0,0,0,.3.27.62.62,0,0,0,.27-.05V18.81h.31V20.2a1.37,1.37,0,0,1-.59.11" transform="translate(0 0)"/><path class="cls-25" d="M39.58,20.31a.88.88,0,0,1-.91-1,.89.89,0,0,1,.92-1,1.16,1.16,0,0,1,.51.1l-.08.2a1.08,1.08,0,0,0-.39-.07c-.35,0-.62.22-.62.74s.25.74.55.74a.69.69,0,0,0,.26,0V19.4h-.33v-.19h.65v1a1.18,1.18,0,0,1-.56.11" transform="translate(0 0)"/><path class="cls-25" d="M42.06,20.27h-.29l-.29-.95a1.21,1.21,0,0,1,0-.19h0a1.21,1.21,0,0,1,0,.19l-.3.95h-.28l-.45-1.46h.32l.26,1c0,.11,0,.21,0,.21h0a1,1,0,0,1,.05-.21l.29-1h.27l.29,1,0,.21h0a1.23,1.23,0,0,1,0-.21l.26-1h.29Z" transform="translate(0 0)"/><polygon class="cls-25" points="42.73 20.27 42.73 18.14 43.04 18.14 43.04 19.02 43.04 20.27 42.73 20.27"/><path class="cls-25" d="M43.93,20.31c-.42,0-.63-.17-.63-.45s.41-.5.9-.54v-.09c0-.2-.13-.26-.33-.26a.91.91,0,0,0-.4.09l-.07-.18a1.22,1.22,0,0,1,.52-.11c.33,0,.58.13.58.51v.92a1.37,1.37,0,0,1-.57.11m.27-.85c-.36,0-.6.11-.6.39s.14.28.36.28a.51.51,0,0,0,.24-.05Z" transform="translate(0 0)"/><path class="cls-25" d="M45.49,20.31a.67.67,0,0,1-.73-.75.69.69,0,0,1,.69-.78,1.56,1.56,0,0,1,.26,0v-.67H46V20.2a1.17,1.17,0,0,1-.53.11M45.71,19l-.19,0c-.32,0-.45.27-.45.58s.13.57.43.57a.38.38,0,0,0,.21-.05Z" transform="translate(0 0)"/><path class="cls-25" d="M47,20.31c-.45,0-.67-.33-.67-.77s.22-.77.67-.77.66.33.66.77-.22.77-.66.77M47,19c-.27,0-.35.28-.35.57s.08.55.35.55.35-.27.35-.55S47.22,19,47,19" transform="translate(0 0)"/><polygon class="cls-25" points="47.88 20.27 47.88 18.14 48.2 18.14 48.2 19.07 48.2 20.27 47.88 20.27"/><path class="cls-26" d="M18.7,18.21c.08-.17.17-.34.26-.5a5.34,5.34,0,0,1-.26-.8v1.3m.51-3.28s-.51,0-.51.63v.33a6.09,6.09,0,0,0,.37,1.65,5.38,5.38,0,0,1,1-1.21,6.49,6.49,0,0,1,3.42-1.4Z" transform="translate(0 0)"/><path class="cls-25" d="M24.08,15.27a6.42,6.42,0,0,0-3.71,1.37A5.1,5.1,0,0,0,19.27,18a4.48,4.48,0,0,0,4,2.35h.2a.63.63,0,0,0,.64-.69V15.27h0M19.69,18.9a4.07,4.07,0,0,1-.51-.74,7.55,7.55,0,0,0-.48,1.12v1.06h3.42a4.44,4.44,0,0,1-2.43-1.44" transform="translate(0 0)"/></g><path class="cls-28" d="M127.27,117c.12,0,.18,0,.18-.13a.12.12,0,0,0-.12-.12l-.12,0a.26.26,0,0,1-.18-.09.24.24,0,0,1-.07-.17.26.26,0,0,1,.08-.19.34.34,0,0,1,.23-.08.54.54,0,0,1,.3.1l-.08.11a.48.48,0,0,0-.23-.07.2.2,0,0,0-.11,0,.19.19,0,0,0-.05.11.13.13,0,0,0,0,.07.19.19,0,0,0,.1,0l.1,0a.26.26,0,0,1,.19.09.27.27,0,0,1,.06.17c0,.18-.11.27-.32.27a.51.51,0,0,1-.35-.12l.09-.11A.39.39,0,0,0,127.27,117Z" transform="translate(0 0)"/><path class="cls-28" d="M127.74,116.25h.13v.2h.1v.1h-.1v.38s0,0,0,0h0v.13h-.07a.17.17,0,0,1-.12,0s0-.06,0-.12v-.39h-.07v-.1h.07Z" transform="translate(0 0)"/><path class="cls-28" d="M128.44,117.05h0a.12.12,0,0,1-.05,0h-.11a.24.24,0,0,1-.17-.06.17.17,0,0,1-.06-.14.24.24,0,0,1,.05-.14.25.25,0,0,1,.16,0h.19v-.07c0-.06-.05-.09-.14-.09h-.08a.08.08,0,0,0,0,0l-.11-.07a.26.26,0,0,1,.22-.1.3.3,0,0,1,.2,0,.19.19,0,0,1,.08.17v.45h-.13Zm0-.22h-.16c-.08,0-.12,0-.12.08a.05.05,0,0,0,0,0,.13.13,0,0,0,.1,0l.12,0s0,0,0-.1Z" transform="translate(0 0)"/><path class="cls-28" d="M128.74,116.45h.13v.07h0a.19.19,0,0,1,.17-.08.24.24,0,0,1,.14,0l-.1.11a.16.16,0,0,0-.09,0,.11.11,0,0,0-.08,0,.14.14,0,0,0,0,.11v.4h-.13Z" transform="translate(0 0)"/><path class="cls-28" d="M129.25,116.25h.14v.2h.09v.1h-.09v.38s0,0,0,0h0v.13h-.07a.16.16,0,0,1-.11,0,.14.14,0,0,1-.05-.12v-.39h-.06v-.1h.06Z" transform="translate(0 0)"/><path class="cls-28" d="M129.93,116.18h.13l.42.66h0v-.66h.14v.93h-.13l-.42-.66h0v.66h-.14Z" transform="translate(0 0)"/><path class="cls-28" d="M130.78,116.78a.67.67,0,0,1,0-.16.33.33,0,0,1,.06-.1l.07-.06.13,0,.12,0a.28.28,0,0,1,.08.06.31.31,0,0,1,.05.1.57.57,0,0,1,0,.16.54.54,0,0,1,0,.15.31.31,0,0,1-.05.1l0,0-.05,0-.12,0-.13,0-.07-.06a.33.33,0,0,1-.06-.1A.62.62,0,0,1,130.78,116.78Zm.41,0a.34.34,0,0,0,0-.11.05.05,0,0,0,0,0s0,0,0,0H131a.1.1,0,0,0-.05,0,.08.08,0,0,0,0,0,.34.34,0,0,0,0,.11.31.31,0,0,0,0,.1.08.08,0,0,0,0,.05.1.1,0,0,0,.05,0h.12s0,0,0,0a.05.05,0,0,0,0-.05A.31.31,0,0,0,131.19,116.78Z" transform="translate(0 0)"/><path class="cls-28" d="M131.84,116.64h0l-.14.47h-.11l-.21-.66h.14l.12.46h0l.15-.46h.1l.15.46h0l.13-.46h.14l-.21.66H132Z" transform="translate(0 0)"/><path class="cls-28" d="M128.19,138.48c.12,0,.18,0,.18-.13s0-.11-.12-.12l-.12,0a.26.26,0,0,1-.18-.09.21.21,0,0,1-.07-.17.26.26,0,0,1,.08-.19.31.31,0,0,1,.22-.08.49.49,0,0,1,.3.1l-.07.11a.48.48,0,0,0-.23-.07.18.18,0,0,0-.11,0,.14.14,0,0,0,0,.1.13.13,0,0,0,0,.08.23.23,0,0,0,.1,0l.11,0a.29.29,0,0,1,.19.09.27.27,0,0,1,.06.17c0,.18-.11.27-.32.27a.56.56,0,0,1-.36-.12l.09-.11A.44.44,0,0,0,128.19,138.48Z" transform="translate(0 0)"/><path class="cls-28" d="M128.65,138h.13v.39a.12.12,0,0,0,0,.1.12.12,0,0,0,.18,0,.12.12,0,0,0,0-.1V138h.13v.65H129v-.07h0a.19.19,0,0,1-.17.08.2.2,0,0,1-.15-.06.19.19,0,0,1-.07-.17Z" transform="translate(0 0)"/><path class="cls-28" d="M129.35,137.69h.13V138a.16.16,0,0,1,.08-.06s.05,0,.09,0a.22.22,0,0,1,.18.08.19.19,0,0,1,0,.09.67.67,0,0,1,0,.16.72.72,0,0,1,0,.17.19.19,0,0,1,0,.09l-.08.06-.1,0a.24.24,0,0,1-.17-.07v.06h-.13Zm.26.39-.07,0a.1.1,0,0,0,0,.05.14.14,0,0,0,0,.06v.15a.14.14,0,0,0,0,.06.1.1,0,0,0,0,.05l.07,0,.07,0a.1.1,0,0,0,0-.05.14.14,0,0,0,0-.06v-.15a.14.14,0,0,0,0-.07l0,0Z" transform="translate(0 0)"/><path class="cls-28" d="M130,138h.13V138h0a.2.2,0,0,1,.17-.08l.11,0,.08.06a.25.25,0,0,1,.21-.08.3.3,0,0,1,.15.05.25.25,0,0,1,.07.18v.43h-.14v-.39a.15.15,0,0,0,0-.1.12.12,0,0,0-.09,0,.13.13,0,0,0-.1,0,.15.15,0,0,0,0,.1v.39h-.13v-.39a.15.15,0,0,0,0-.1.13.13,0,0,0-.1,0,.1.1,0,0,0-.09,0,.12.12,0,0,0,0,.1v.39H130Z" transform="translate(0 0)"/><path class="cls-28" d="M131.13,137.69h.13v.13h-.13Zm0,.27h.13v.65h-.13Z" transform="translate(0 0)"/><path class="cls-28" d="M131.45,137.75h.13V138h.1v.1h-.1v.38s0,.05,0,.05h.05v.12h-.07a.14.14,0,0,1-.16-.16v-.39h-.07V138h.07Z" transform="translate(0 0)"/></svg>