<svg id="Layer_1" data-name="Layer 1" xmlns="http://www.w3.org/2000/svg" xmlns:xlink="http://www.w3.org/1999/xlink" viewBox="0 0 430 212.6">
  <defs>
    <style>
      .cls-1, .cls-11, .cls-12, .cls-13, .cls-14, .cls-15, .cls-27, .cls-5 {
        fill: none;
      }

      .cls-2 {
        fill: #fff;
      }

      .cls-3 {
        fill: #979797;
      }

      .cls-4 {
        fill: #e5ebf2;
      }

      .cls-5 {
        stroke: #3c388d;
        stroke-width: 0.3px;
      }

      .cls-11, .cls-27, .cls-5 {
        stroke-miterlimit: 2.4;
      }

      .cls-6 {
        fill: url(#linear-gradient);
      }

      .cls-7 {
        fill: #8f1f81;
      }

      .cls-8 {
        fill: url(#linear-gradient-2);
      }

      .cls-9 {
        fill: url(#linear-gradient-3);
      }

      .cls-10, .cls-18 {
        fill: #1d1d1b;
      }

      .cls-10 {
        opacity: 0.6;
      }

      .cls-10, .cls-16 {
        isolation: isolate;
      }

      .cls-11, .cls-12, .cls-27 {
        stroke: #1d1d1b;
      }

      .cls-11 {
        stroke-width: 1.8px;
      }

      .cls-12 {
        stroke-miterlimit: 2.4;
        stroke-width: 1.8px;
      }

      .cls-13, .cls-14, .cls-15 {
        stroke: #003b61;
        stroke-width: 0.5px;
      }

      .cls-13, .cls-14 {
        stroke-linecap: round;
        stroke-linejoin: round;
      }

      .cls-13 {
        stroke-dasharray: 0 0.8;
      }

      .cls-17 {
        fill: #004268;
      }

      .cls-19 {
        fill: #003b61;
      }

      .cls-20 {
        clip-path: url(#clip-path);
      }

      .cls-21 {
        fill: #c1c600;
      }

      .cls-22 {
        clip-path: url(#clip-path-2);
      }

      .cls-23 {
        fill: #0d3b5e;
      }

      .cls-24 {
        clip-path: url(#clip-path-3);
      }

      .cls-25 {
        fill: #0a8243;
      }

      .cls-26 {
        clip-path: url(#clip-path-5);
      }

      .cls-27 {
        stroke-width: 0.6px;
      }
    </style>
    <linearGradient id="linear-gradient" x1="1.22" y1="93.34" x2="4.02" y2="93.34" gradientTransform="matrix(1, 0, 0, -1, 0, 219.89)" gradientUnits="userSpaceOnUse">
      <stop offset="0" stop-color="#003b61"/>
      <stop offset="1" stop-color="#0068a9"/>
    </linearGradient>
    <linearGradient id="linear-gradient-2" x1="211.3" y1="-751.51" x2="585.82" y2="-751.51" gradientTransform="matrix(0.6, 0, 0, -0.6, -65.52, -339.03)" gradientUnits="userSpaceOnUse">
      <stop offset="0" stop-color="#fff" stop-opacity="0"/>
      <stop offset="1" stop-opacity="0.37"/>
    </linearGradient>
    <linearGradient id="linear-gradient-3" x1="109.11" y1="-569.42" x2="109.11" y2="-569.42" xlink:href="#linear-gradient-2"/>
    <clipPath id="clip-path" transform="translate(0 -2.9)">
      <rect class="cls-1" x="18.7" y="17.81" width="28.3" height="5.53"/>
    </clipPath>
    <clipPath id="clip-path-2" transform="translate(0 -2.9)">
      <rect class="cls-1" x="125.31" y="123.61" width="8.85" height="7.15"/>
    </clipPath>
    <clipPath id="clip-path-3" transform="translate(0 -2.9)">
      <rect class="cls-1" x="125.17" y="115.07" width="9" height="7.26"/>
    </clipPath>
    <clipPath id="clip-path-5" transform="translate(0 -2.9)">
      <rect class="cls-1" x="125.53" y="136.76" width="8.64" height="6.97"/>
    </clipPath>
  </defs>
  <path class="cls-2" d="M.5,3.89H150.8v211.4H.5Z" transform="translate(0 -2.9)"/>
  <path class="cls-3" d="M150.3,4.1V214.3H1.2V4.1H150.3m1.2-1.2H0V215.5H151.5Z" transform="translate(0 -2.9)"/>
  <path class="cls-4" d="M1.1,100H150.2v53.1H1.1Z" transform="translate(0 -2.9)"/>
  <path class="cls-2" d="M32.94,130.3H48.82c.07,0,.14.2.14.5v6.5c0,.3-.07.5-.14.5H32.94c-.07,0-.14-.2-.14-.5v-6.5C32.87,130.6,32.94,130.3,32.94,130.3Z" transform="translate(0 -2.9)"/>
  <path class="cls-2" d="M0,2.9" transform="translate(0 -2.9)"/>
  <path class="cls-5" d="M0,2.9" transform="translate(0 -2.9)"/>
  <path class="cls-5" d="M0,2.9" transform="translate(0 -2.9)"/>
  <path class="cls-6" d="M1.2,100H4v53.1H1.2Z" transform="translate(0 -2.9)"/>
  <path class="cls-7" d="M0,2.9" transform="translate(0 -2.9)"/>
  <path class="cls-8" d="M270.4,17.6,57.7,132.2l224.9,74.7L270.4,17.6Z" transform="translate(0 -2.9)"/>
  <path class="cls-9" d="M0,2.9" transform="translate(0 -2.9)"/>
  <path class="cls-9" d="M0,2.9" transform="translate(0 -2.9)"/>
  <path class="cls-9" d="M0,2.9" transform="translate(0 -2.9)"/>
  <path class="cls-9" d="M0,2.9" transform="translate(0 -2.9)"/>
  <path class="cls-9" d="M0,2.9" transform="translate(0 -2.9)"/>
  <path class="cls-9" d="M0,2.9" transform="translate(0 -2.9)"/>
  <path class="cls-9" d="M0,2.9" transform="translate(0 -2.9)"/>
  <path class="cls-9" d="M0,2.9" transform="translate(0 -2.9)"/>
  <path class="cls-10" d="M18.7,43H47v.8H18.7Zm0,4.5H47v.8H18.7Zm0,4.4H47v.8H18.7Zm0,4.4H47v.8H18.7Zm0,22.5H47v.8H18.7Zm0,4.4H133.3V84H18.7Zm0,4.4H133.3v.8H18.7Zm0,4.5H133.3v.8H18.7ZM96.6,43h36.7v1.1H96.6Zm0,4.7h36.7v1.1H96.6Zm0,4.7h36.7v1.1H96.6Zm0,4.7h36.7v1.1H96.6Zm0,4.7h36.7v1.1H96.6ZM18.7,167.6H127.6v.8H18.7Zm0,6H127.6v.8H18.7Zm0,6H127.6v.8H18.7Zm-.1,10.1H67.4v.8H18.6Zm.1,10H133v.1H18.7Z" transform="translate(0 -2.9)"/>
  <path class="cls-2" d="M0,2.9" transform="translate(0 -2.9)"/>
  <path class="cls-2" d="M0,2.9" transform="translate(0 -2.9)"/>
  <circle class="cls-2" cx="323.99" cy="106.26" r="104.5"/>
  <path class="cls-2" d="M0,2.9" transform="translate(0 -2.9)"/>
  <path class="cls-4" d="M407.2,43H243.7a104.62,104.62,0,0,0,0,130.4H407.2A104.62,104.62,0,0,0,407.2,43Z" transform="translate(0 -2.9)"/>
  <path class="cls-2" d="M0,2.9" transform="translate(0 -2.9)"/>
  <path class="cls-11" d="M0,2.9" transform="translate(0 -2.9)"/>
  <path class="cls-11" d="M0,2.9" transform="translate(0 -2.9)"/>
  <path class="cls-11" d="M0,2.9" transform="translate(0 -2.9)"/>
  <circle class="cls-12" cx="323.99" cy="106.26" r="104.5"/>
  <line class="cls-13" x1="21.5" y1="126.5" x2="21.5" y2="135.1"/>
  <line class="cls-13" x1="21.5" y1="118.5" x2="21.5" y2="120.4"/>
  <path class="cls-2" d="M232.88,95.76c-.14,0-.28.8-.28,1.9v23c0,1,.14,1.9.28,1.9h40.59c.14,0,.28-.8.28-1.9v-23c0-1-.14-1.9-.28-1.9Z" transform="translate(0 -2.9)"/>
  <rect class="cls-1" x="295.8" y="92.86" width="59.1" height="26.7"/>
  <rect class="cls-1" x="358.9" y="92.86" width="59.1" height="26.7"/>
  <rect class="cls-10" x="28.4" y="114.8" width="79.2" height="1.4"/>
  <rect class="cls-10" x="18.7" y="107.4" width="64.5" height="1.9"/>
  <rect class="cls-10" x="18.6" y="156" width="42.4" height="1.9"/>
  <rect class="cls-10" x="18.7" y="103" width="42.3" height="1.9"/>
  <rect class="cls-10" x="28.4" y="122.8" width="79.2" height="1.4"/>
  <rect class="cls-10" x="28.4" y="137.8" width="79.2" height="1.4"/>
  <path class="cls-14" d="M21.4,141.1" transform="translate(0 -2.9)"/>
  <path class="cls-14" d="M21.4,120.2" transform="translate(0 -2.9)"/>
  <path class="cls-14" d="M21.4,141.4h0m0-21.7h0" transform="translate(0 -2.9)"/>
  <path class="cls-2" d="M21.5,121.4a3.1,3.1,0,1,0-3.1-3.1,3.05,3.05,0,0,0,3.1,3.1" transform="translate(0 -2.9)"/>
  <circle class="cls-15" cx="21.5" cy="115.5" r="3.1"/>
  <g class="cls-16">
    <path class="cls-17" d="M21.68,119.82h-.3v-2.27s0-.09,0-.13l-.11.1-.12.1-.32.25-.16-.21.74-.57h.26Z" transform="translate(0 -2.9)"/>
  </g>
  <path class="cls-2" d="M21.5,129.4a3.1,3.1,0,1,0-3.1-3.1,3.05,3.05,0,0,0,3.1,3.1" transform="translate(0 -2.9)"/>
  <circle class="cls-15" cx="21.5" cy="123.5" r="3.1"/>
  <path class="cls-2" d="M21.5,144.1a3.1,3.1,0,1,0-3.1-3.1,3.12,3.12,0,0,0,3.1,3.1" transform="translate(0 -2.9)"/>
  <circle class="cls-15" cx="21.5" cy="138.1" r="3.1"/>
  <g class="cls-16">
    <path class="cls-17" d="M22.32,127.78H20.53v-.26l.73-.74c.13-.14.25-.26.34-.37a1.41,1.41,0,0,0,.21-.31.81.81,0,0,0,.07-.35.45.45,0,0,0-.13-.35.54.54,0,0,0-.36-.12.91.91,0,0,0-.35.06,1.35,1.35,0,0,0-.31.2l-.17-.21a1,1,0,0,1,.24-.17,1.69,1.69,0,0,1,.27-.11,1.08,1.08,0,0,1,.32,0,1,1,0,0,1,.43.09.62.62,0,0,1,.28.25.71.71,0,0,1,.1.39.92.92,0,0,1-.08.4,2.31,2.31,0,0,1-.24.37c-.11.12-.23.25-.37.38l-.59.6h1.4Z" transform="translate(0 -2.9)"/>
  </g>
  <g class="cls-16">
    <path class="cls-17" d="M22.21,140.36a.66.66,0,0,1-.07.32.57.57,0,0,1-.19.22,1,1,0,0,1-.3.11v0a.85.85,0,0,1,.49.21.64.64,0,0,1,.16.44.82.82,0,0,1-.11.42.81.81,0,0,1-.34.29,1.45,1.45,0,0,1-.59.1,2.5,2.5,0,0,1-.4,0,2.06,2.06,0,0,1-.35-.12v-.29a1.47,1.47,0,0,0,.37.13,1.74,1.74,0,0,0,.39,0,.83.83,0,0,0,.54-.15.51.51,0,0,0,.16-.41.43.43,0,0,0-.09-.28.46.46,0,0,0-.27-.16,1.22,1.22,0,0,0-.41-.06h-.27v-.26h.27a.89.89,0,0,0,.38-.07.47.47,0,0,0,.23-.18.45.45,0,0,0,.09-.28.39.39,0,0,0-.14-.32.58.58,0,0,0-.38-.12,1.86,1.86,0,0,0-.26,0,.92.92,0,0,0-.23.09,1.13,1.13,0,0,0-.21.12l-.15-.22a1.35,1.35,0,0,1,.36-.19,1.26,1.26,0,0,1,.49-.09,1,1,0,0,1,.63.19A.63.63,0,0,1,22.21,140.36Z" transform="translate(0 -2.9)"/>
  </g>
  <g>
    <path class="cls-18" d="M123.45,20.05c-.08.16-.15.25-.14.36s.14.21.2.33c0-.14.14-.25.13-.36s-.16-.25-.19-.33" transform="translate(0 -2.9)"/>
    <path class="cls-18" d="M125.52,20.05c.08.16.15.25.14.36s-.13.21-.19.33c-.06-.14-.15-.25-.14-.36s.17-.25.19-.33" transform="translate(0 -2.9)"/>
    <path class="cls-18" d="M122.26,20a.14.14,0,1,0-.14-.14.14.14,0,0,0,.14.14" transform="translate(0 -2.9)"/>
    <path class="cls-18" d="M122.35,20.16a.14.14,0,0,0-.14-.14.14.14,0,1,0,0,.28.14.14,0,0,0,.14-.14" transform="translate(0 -2.9)"/>
    <path class="cls-18" d="M122.42,20.5a.14.14,0,0,0-.14-.14.14.14,0,0,0,0,.28.14.14,0,0,0,.14-.14" transform="translate(0 -2.9)"/>
    <path class="cls-18" d="M123,19.3a.14.14,0,0,0,.13-.14A.13.13,0,0,0,123,19a.14.14,0,0,0-.14.14.14.14,0,0,0,.14.14" transform="translate(0 -2.9)"/>
    <path class="cls-18" d="M122.69,19.4a.14.14,0,0,0,0-.28.14.14,0,1,0,0,.28" transform="translate(0 -2.9)"/>
    <path class="cls-18" d="M122.41,19.64a.14.14,0,0,0,0-.28.14.14,0,0,0,0,.28" transform="translate(0 -2.9)"/>
    <path class="cls-18" d="M123.4,19.33a.14.14,0,1,0-.14-.14.14.14,0,0,0,.14.14" transform="translate(0 -2.9)"/>
    <path class="cls-18" d="M123.75,19.43a.14.14,0,0,0,0-.28.14.14,0,0,0,0,.28" transform="translate(0 -2.9)"/>
    <path class="cls-18" d="M124.07,19.58a.14.14,0,0,0,0-.28.14.14,0,0,0,0,.28" transform="translate(0 -2.9)"/>
    <path class="cls-18" d="M126.57,19.82a.14.14,0,1,0,.14-.14.14.14,0,0,0-.14.14" transform="translate(0 -2.9)"/>
    <path class="cls-18" d="M126.76,20a.14.14,0,1,0,0,.28.14.14,0,1,0,0-.28" transform="translate(0 -2.9)"/>
    <path class="cls-18" d="M126.69,20.36a.14.14,0,0,0,0,.28.14.14,0,0,0,0-.28" transform="translate(0 -2.9)"/>
    <path class="cls-18" d="M125.94,19.3a.15.15,0,0,0,.14-.14.14.14,0,0,0-.14-.14.15.15,0,0,0-.15.14.15.15,0,0,0,.15.14" transform="translate(0 -2.9)"/>
    <path class="cls-18" d="M126.28,19.4a.14.14,0,0,0,0-.28.14.14,0,1,0,0,.28" transform="translate(0 -2.9)"/>
    <path class="cls-18" d="M126.56,19.64a.14.14,0,0,0,0-.28.14.14,0,0,0,0,.28" transform="translate(0 -2.9)"/>
    <path class="cls-18" d="M125.57,19.33a.14.14,0,1,0-.14-.14.14.14,0,0,0,.14.14" transform="translate(0 -2.9)"/>
    <path class="cls-18" d="M125.22,19.43a.14.14,0,0,0,0-.28.14.14,0,0,0,0,.28" transform="translate(0 -2.9)"/>
    <path class="cls-18" d="M124.76,19.44a.14.14,0,0,0,.14.14.14.14,0,0,0,0-.28.14.14,0,0,0-.14.14" transform="translate(0 -2.9)"/>
    <path class="cls-18" d="M124.25,20.2h.15v-.6l-.15-.05Z" transform="translate(0 -2.9)"/>
    <path class="cls-18" d="M124.72,19.55l-.15.05v.6h.15Z" transform="translate(0 -2.9)"/>
    <path class="cls-18" d="M124.4,18.89v-.36a.45.45,0,0,0-.35.36Z" transform="translate(0 -2.9)"/>
    <path class="cls-18" d="M124.58,18.89h.34a.45.45,0,0,0-.34-.36Z" transform="translate(0 -2.9)"/>
    <path class="cls-18" d="M124.06,19.06a.44.44,0,0,0,.43.35.43.43,0,0,0,.42-.35Z" transform="translate(0 -2.9)"/>
    <path class="cls-18" d="M124.73,18.48a.47.47,0,0,1-.19-.31.53.53,0,0,1,.31.2v-.48a.53.53,0,0,1-.31.2.63.63,0,0,1,.18-.34h-.47a.73.73,0,0,1,.19.34.52.52,0,0,1-.32-.2v.48a.52.52,0,0,1,.32-.2.53.53,0,0,1-.2.31Z" transform="translate(0 -2.9)"/>
    <path class="cls-18" d="M125.24,28.09a9.13,9.13,0,0,1-1.45-.52h0a.44.44,0,0,0-.1-.3.41.41,0,0,0-.28-.13l-.13,0-.21-.2a2.53,2.53,0,0,1-.43-.75,3.07,3.07,0,0,1-.13-.5.44.44,0,0,1-.45.33s0-.1,0-.11a.34.34,0,0,1-.43.08,3.41,3.41,0,0,0,.16.57,3.17,3.17,0,0,0,.64,1.06,1.92,1.92,0,0,0,.28.29s0,0,0,0a.43.43,0,0,0,.25.34.34.34,0,0,0,.36,0,3.85,3.85,0,0,0,.78.3,3.53,3.53,0,0,0,.89.14,1.62,1.62,0,0,0,.78-.27,1.82,1.82,0,0,0,.3-.23l0,0a2.74,2.74,0,0,1-.82-.1m-1.61-.66,0,0a.17.17,0,0,0-.23,0,.52.52,0,0,0-.1.11l0,.06,0,0a.18.18,0,0,1,.08.2.05.05,0,0,1,0,0,.2.2,0,0,1-.17,0l0,0,0,0v0l0,0a.37.37,0,0,0,0,.16v0a.19.19,0,0,0,.09.09h0l.14.09a.26.26,0,0,1-.24,0,.38.38,0,0,1-.2-.27.75.75,0,0,1,.14-.37v0a.34.34,0,0,1-.06-.12l.13,0h0l0,0a.68.68,0,0,1,.41-.24.29.29,0,0,1,.22.11.4.4,0,0,1,.08.16l-.08-.05m.28.83a.18.18,0,0,1-.18-.18.18.18,0,0,1,.18-.19.18.18,0,0,1,.19.19.18.18,0,0,1-.19.18m.83.26a.17.17,0,0,1-.17-.17.17.17,0,0,1,.17-.18.18.18,0,0,1,.17.18.18.18,0,0,1-.17.17" transform="translate(0 -2.9)"/>
    <path class="cls-18" d="M125,29.39h-.09v-.53a3.17,3.17,0,0,1-.77-.11v.64H124a.3.3,0,0,0-.3.3.56.56,0,0,0,.15.34c0-.08.07-.15.12-.15s0,.45.31.47a.17.17,0,0,0,0,.07.21.21,0,1,0,.42,0s0-.05,0-.07c.26,0,.22-.47.31-.47s.08.06.12.15a.56.56,0,0,0,.15-.34.3.3,0,0,0-.3-.3m-.48,1.15a.12.12,0,0,1-.12-.12.12.12,0,0,1,.24,0,.12.12,0,0,1-.12.12m.63-.67a.15.15,0,0,0-.12-.09c-.18,0-.11.48-.32.48a.13.13,0,0,1-.15-.13c0-.07,0-.09,0-.14s0-.07-.09-.07-.09,0-.09.07,0,.07,0,.14a.13.13,0,0,1-.15.13c-.21,0-.14-.48-.32-.48a.15.15,0,0,0-.12.09.45.45,0,0,1,0-.18.2.2,0,0,1,.2-.21c.24,0,.19.33.3.33a.08.08,0,0,0,.09-.08c0-.1-.17-.18-.17-.32s.13-.24.26-.35c.13.11.26.22.26.35s-.17.22-.17.32a.08.08,0,0,0,.09.08c.11,0,.06-.33.3-.33a.2.2,0,0,1,.2.21.45.45,0,0,1,0,.18" transform="translate(0 -2.9)"/>
    <path class="cls-18" d="M131.15,30a.05.05,0,0,0-.07,0c-.61.18-1.38-.33-2.12-.83a3.72,3.72,0,0,0-1.71-.8,1.12,1.12,0,0,0-.5.11.85.85,0,0,0-.39.46,3,3,0,0,1-.25.46.74.74,0,0,0-.15.35.43.43,0,0,0,.13.28,1.43,1.43,0,0,0,.33.22l.09.05c.12.06.2.1.21.17a4.93,4.93,0,0,1-.92.26,7.66,7.66,0,0,1-1.31.1,7.86,7.86,0,0,1-1.32-.1,5.16,5.16,0,0,1-.92-.26c0-.11.09-.15.22-.21l.1-.05a1.28,1.28,0,0,0,.31-.2.32.32,0,0,0,.13-.26.65.65,0,0,0-.15-.35,2.36,2.36,0,0,1-.24-.46.94.94,0,0,0-.39-.46,1.15,1.15,0,0,0-.5-.11,3.72,3.72,0,0,0-1.71.8c-.75.5-1.51,1-2.13.83a.05.05,0,0,0-.07,0,.06.06,0,0,0,0,.07,3.11,3.11,0,0,1,.52.34,1.2,1.2,0,0,0,.66.34,1.58,1.58,0,0,0,.74-.22,8,8,0,0,0,.76-.48,3.44,3.44,0,0,1,1.47-.71l-.15.13a.59.59,0,0,0-.26.46,1.06,1.06,0,0,0,.14.47s0,.11.08.17a1.79,1.79,0,0,1,.11.35s0,.12,0,.19a.72.72,0,0,0,.44.5,4.87,4.87,0,0,0,2.08.32,4.93,4.93,0,0,0,2.08-.32.72.72,0,0,0,.44-.5c0-.07,0-.14,0-.19a1.79,1.79,0,0,1,.1-.35l.11-.22a.71.71,0,0,0,.13-.4.59.59,0,0,0-.27-.47l-.15-.14a3.49,3.49,0,0,1,1.47.71c.25.17.51.35.75.48a1.64,1.64,0,0,0,.75.22,1.2,1.2,0,0,0,.66-.34,3,3,0,0,1,.51-.34.05.05,0,0,0,0-.07" transform="translate(0 -2.9)"/>
    <path class="cls-18" d="M127.45,25.08a.81.81,0,0,1-.24-.27c-.07-.15-.38-.76-.43-.84a.32.32,0,0,1-.06-.18.26.26,0,0,1,.07-.16,1.5,1.5,0,0,0,.11-.13l.06-.07a3.07,3.07,0,0,0-.38-.51,3.13,3.13,0,0,0-.59-.51.46.46,0,0,0,.23-.37.31.31,0,0,0-.12-.26,3.2,3.2,0,0,1,.53-1.08l-.39-.17a.6.6,0,0,1,.08.45.55.55,0,0,1-.22-.3,1.8,1.8,0,0,1-.14.43.33.33,0,0,1,.32,0,.46.46,0,0,1-.5.16c-.14,0-.28-.11-.27-.22a.13.13,0,0,1,.14-.13c.08,0,.09.14.06.2s.23-.4.05-.45-.26.16-.31.3c0-.17-.1-.34-.24-.33s-.12.35-.06.43c0-.12.08-.18.13-.18s.11,0,.1.15-.16.17-.34.17a.44.44,0,0,1-.49-.37.64.64,0,0,1,.36.21,1.63,1.63,0,0,1,0-.54.53.53,0,0,1-.35.21.65.65,0,0,1,.29-.37h-.72a.65.65,0,0,1,.29.37.55.55,0,0,1-.35-.21,1.63,1.63,0,0,1,0,.54.62.62,0,0,1,.35-.21.43.43,0,0,1-.49.37c-.17,0-.33-.06-.34-.17a.13.13,0,0,1,.1-.15c.06,0,.12.06.13.18.07-.08.13-.42-.06-.43s-.21.16-.24.33c0-.14-.17-.33-.31-.3s-.06.38.05.45,0-.19.07-.2.13.07.14.13-.14.19-.28.22a.46.46,0,0,1-.49-.16.33.33,0,0,1,.32,0,1.8,1.8,0,0,1-.14-.43.5.5,0,0,1-.23.3.61.61,0,0,1,.09-.45l-.4.17a3.5,3.5,0,0,1,.54,1.08.32.32,0,0,0-.12.26.46.46,0,0,0,.23.37,3.53,3.53,0,0,0-.6.51,3.43,3.43,0,0,0-.63,1.06l.35.38a.63.63,0,0,1,.16.35.51.51,0,0,0,.14.37.79.79,0,0,1,.08.27h2v2.14a.27.27,0,0,0-.23.11l.66.24a.61.61,0,0,1,.12-.32l-.44,0V25.35h1.92a2.45,2.45,0,0,1-.15.85,2.53,2.53,0,0,1-.43.75,2.18,2.18,0,0,1-.64.5s0,.05-.08.06a.5.5,0,0,0-.09.18.53.53,0,0,0,0,.19l.23.06c.67.17.84.12.88.09h0a2.63,2.63,0,0,0,.42-.4,3.17,3.17,0,0,0,.64-1.06,3.78,3.78,0,0,0,.23-1.3v-.19m-3,.15h-2a2.91,2.91,0,0,1,.16-.88,2.53,2.53,0,0,1,.43-.75,1.89,1.89,0,0,1,.64-.5,1.81,1.81,0,0,1,.75-.19Zm0-3.28a2.39,2.39,0,0,0-1.37.37c-.16-.09-.22-.18-.22-.28,0-.38,1-.41,1.59-.41h0c.53,0,1.59,0,1.59.41,0,.1-.07.19-.22.28a2.39,2.39,0,0,0-1.37-.37m.08,3.28V22.92a1.73,1.73,0,0,1,.7.18,1.89,1.89,0,0,1,.64.5,2.53,2.53,0,0,1,.43.75,2.91,2.91,0,0,1,.16.88Z" transform="translate(0 -2.9)"/>
    <path class="cls-18" d="M126.19,24.85s0,.08,0,.07a2.09,2.09,0,0,0-.37-1h0a.12.12,0,0,0,.08-.1.13.13,0,0,0-.13.06l0-.06a1.73,1.73,0,0,0-.42-.39,1.37,1.37,0,0,0-.46-.21s0,0,.07,0a.07.07,0,0,0-.08-.08s0,0,0,.05a.13.13,0,0,0-.09-.05.12.12,0,0,0,0,.09,0,0,0,0,0,0,0s0,.08.07.09,0-.07,0-.07V24a.16.16,0,0,0-.13,0,.14.14,0,0,0,.13,0v.81s-.06,0,0-.07a.08.08,0,0,0-.08.09s0,0,.07,0a0,0,0,1,0,0,.05s0,.05,0,.06.08,0,.08-.07a0,0,0,0,1-.07,0h.57a.13.13,0,0,0,0,.13.14.14,0,0,0,0-.13h.63a0,0,0,0,1-.07,0c0,.07.06.09.08.07s0,0,0-.06a.12.12,0,0,0,.09,0,.1.1,0,0,0,0-.08.09.09,0,0,0,.07,0,.08.08,0,0,0-.08-.09m-.54-1a0,0,0,0,0,0,.05,0,0,0,0,0,.05,0,.15.15,0,0,0,0,.08.12.12,0,0,0,.09,0,0,0,0,0,0,0,.06h0a1.94,1.94,0,0,1,.29.78.08.08,0,0,0-.07,0,.13.13,0,0,0,0,.09h-.48a.07.07,0,0,0,0-.07s0,0-.06,0a.12.12,0,0,0,0-.08.59.59,0,0,0,0,.08s0,0-.06,0a.06.06,0,0,0,0,.07h-.41a.05.05,0,1,0-.06-.06v-.66s.06,0,.07,0a.07.07,0,0,0,0-.07.12.12,0,0,0,.08,0l-.08,0s0-.05,0-.07,0,0-.07,0v-.56l.07,0a.1.1,0,0,0,0-.08,1.57,1.57,0,0,1,.37.18,1.78,1.78,0,0,1,.38.35" transform="translate(0 -2.9)"/>
    <path class="cls-18" d="M125.85,24.65s.05,0,.06,0,0,0-.06,0,0,0,0,0,0,0-.06,0-.18,0-.18-.13l.06,0h.09s0,0,.06-.06-.06-.09-.12-.14l-.07-.06s0-.09-.06-.17a.25.25,0,0,0,0-.07.21.21,0,0,0,0,.24c.06.07.2.14.19.2s0,0,0,0h-.06l0,0a1,1,0,0,1-.14-.17c-.07-.08,0-.16,0-.23s0-.19-.07-.22a.11.11,0,0,0,0-.06h0s0,0,0,0,0,0,0,0,0,0,0,0h0a.06.06,0,0,1,0,0s0,0,0,0,0,0,0,0h0l0,0v0s0,0,0,0,0,0,0,0h-.06s0,0,0,0,0,0,0,0,.08,0,.08,0-.08.07-.09.15l0,0a.19.19,0,0,0-.06-.07.15.15,0,0,0-.06-.05.07.07,0,0,1,0-.06s0-.05,0-.07v0s0,0,0,0l0,0h0a0,0,0,0,0,0,0h0s0,0,0,0h0s0,0,0,0h0v0s0,0,0,0h0s0,0,0,0v0s0,0,0,0H125s0,0,0,0a0,0,0,0,1-.05,0s0,.07.05.06,0,0,0,0h0a0,0,0,0,0,0,0h0l0,0a.37.37,0,0,0,.14.15.43.43,0,0,0-.1.09s0,.05-.08,0l0,0h0s0,0,0,0h0s0,0,.05,0h0s0,0,0,0,0,0,0,0h0s0,0,0,.05a0,0,0,0,1,0,0h0s0,0,.06,0h0s0,.05,0,.05h0a0,0,0,0,0,0,0,0,0,0,0,1,0,0h0s0,0,0,0,0,0,0,0,0,0,0,0a0,0,0,0,0,0,0s0,0,.07,0,0,0,0,0a0,0,0,0,1,.05,0,.07.07,0,0,1,0-.05c0,.12.16.11.2.19a.27.27,0,0,0-.14,0s-.1,0-.11.09,0,.1.07.13-.07,0-.11,0h0s0-.06-.09,0h0a0,0,0,0,0,0,0h0a0,0,0,0,0,0,0h0s-.06,0,0,0h0s0,0,0,0h0v0a0,0,0,0,0,0,0s0,0,0,0h0s0,0,0,0h0s0,0,0,0h0s0,0,0,0l0,0s0,0,0,0,0,0,0,0a.17.17,0,0,1,0-.06c0-.06.07-.1.12-.09a.26.26,0,0,0,.15.17c.06,0,.08,0,.1,0h0s0,.06,0,.07h-.08s0,0,0,0,0,0,0,0h0a0,0,0,0,0,0,0h0s0,0,0,0h0a.05.05,0,0,0,0,0,0,0,0,0,1,0,0h0s0,0,0,0h0s0,0,0,0h0a0,0,0,0,0,0,0l0,0h0s0,0,0-.05,0,0,0,0h0s0,0,0,0Z" transform="translate(0 -2.9)"/>
    <path class="cls-18" d="M124.23,25.73h0v0a.18.18,0,0,0-.19-.2,3.07,3.07,0,0,1-.62.14.81.81,0,0,1-.38-.12l0,.09h0a.08.08,0,0,0-.08-.07.07.07,0,0,0-.07.07.08.08,0,0,0,.07.08.06.06,0,0,0,.06,0l0,.09h0a1.22,1.22,0,0,0,.89,1.21c.08,0,.17,0,.17.09s0,.08-.08.08-.06,0-.06,0,.07,0,.08-.05,0-.05-.06-.05a.1.1,0,0,0-.1.1.13.13,0,0,0,.14.13.17.17,0,0,0,.18-.2s.07,0,.08,0v-.09h0l0-1h0s.07,0,.07-.05a.06.06,0,0,0-.06-.07m-1.07.08.72,1a1,1,0,0,1-.72-1m.74.94-.65-.94h.16l.52.75c0,.08,0,.15,0,.2m0-.3-.46-.67.15,0,.34.5,0,.21m.11-.73h0a.05.05,0,0,0-.07.05s0,.06.07.07h0v0c0,.05,0,.15,0,.26l-.29-.42a1.44,1.44,0,0,1,.3-.11s.06,0,0,.12" transform="translate(0 -2.9)"/>
    <path class="cls-18" d="M124.11,23.64c.14,0,.21-.05.21-.09s-.39-.06-.39-.15,0,0,0,0h0c.2,0,.2-.15.34-.17-.17,0-.19.1-.26.11a.09.09,0,0,0,0-.08s-.11.05-.15.1a0,0,0,0,0,0,0,.05.05,0,0,0,0,.05c0,.15.39.05.39.16s-.07.06-.18.06-.13-.06-.28,0c0,0,.05-.07,0-.09s0,0,0,0l0,0s0,0,0,0,0,0,0,0l0,0h-.05s0,0,0,0h0s0,0,0,0,0,0,0,0l0,0s0,0,0,.05h0a.16.16,0,0,0,0,.09h0l0,0s0,0,0,0,0,0,0-.06v0l0,0v0h0s0,0,0,0h0s0,0,0,0h0s0,0,0,0h0v0s0,0,0,0h0s0,0,0,0h0s0,0,0,0a0,0,0,0,1,0,0h0s0,0,0,0h0a0,0,0,0,1,0,0s0,.06,0,0h0a0,0,0,0,0,0,0v0s0,0,0,.05a.23.23,0,0,1-.09,0h-.07s-.07,0-.09,0,0,0,0,0h0a0,0,0,0,0,0,0h0s0,0,0,0h0s0,0,0,0h0s0,0,0,0a0,0,0,0,1,0,0h0s0,0,0,0h0s0,0,0,0h0a0,0,0,0,0,0,0v0h0s0,0,0,0h0s0,0,0,0,0,0,0,0h0a0,0,0,0,1,0,0l0,0a.08.08,0,0,1,0,0s0,0,0,0h0s0,0,0,0h0s0,0,0,0h0s0,0,0,0,0,0,.06-.06h0l0,0s0,0,0,0l0,0s0,0,0,0,0,0,0,0a.15.15,0,0,0,.08,0c.08,0,0-.07.11-.06h0s0,.06,0,.07h0s0-.06-.08,0h0a0,0,0,0,0,0,0l0,0h0s0,0,0,0h0s0,0,0,0h0s0,0,0,0,0,0,0,0h0a0,0,0,0,0,0,0s0,0,0,0h0v0h0s0,0,0,0,0,0,0,0h0s0,0,0,0a0,0,0,0,0,0,0s0,0,0,0l.08,0s0,0,0,0a.06.06,0,0,1,.06,0h0v0h-.06a0,0,0,0,0,0,0h0s0,0,0,0h0s0,0,0,0h0a0,0,0,0,0,0,0s0,0,0,0h0s0,0,0,0h0s0,0,0,0h0s0,0,0,0h0v0s0,0,0,0,0,0,0,0,0,0,0,0h0s0,0,0,0,0,0,0,0h0s0,0,0,0,0,0,0,0,0,0,0,0a1,1,0,0,1-.12,0h0m-.43-.16h0m.1,0,0,0h0a0,0,0,0,1,0,0m0,0s0,0,0,0,0,0,0,0l0,0m0,.1s0,0,0,0h0s0,0,0,0h0a0,0,0,0,0,0,0h0l0,0h0s0,0,0,0,0,0,0,0v0h0v0s0,0,0,0,0,0,0,0a0,0,0,0,1,0,0" transform="translate(0 -2.9)"/>
    <path class="cls-18" d="M124.3,24.16s0-.07-.18-.07-.45.06-.45,0,.06,0,.13,0h0c.18.06.39,0,.49,0-.12-.09-.23,0-.36,0,.08,0,.1,0,.11-.05s-.18,0-.25,0h0c-.1,0-.18,0-.18.06s.37.06.48.06.14,0,.14,0-.11,0-.18,0a3.4,3.4,0,0,0-.58,0s.05-.06,0-.09a0,0,0,0,0,0,0l0,0s0,0,0,0,0,0,0,0l0,0h-.13s0,0,0,.05,0,0,0,0l0,0s0,.06,0,.06l0,0v.05h0l-.06-.05s0,0,0-.06,0,0,0-.06v0l0,0a0,0,0,0,1,0,0v0s0,0,0,0h0s0-.05,0-.05h0s0,0,0,0,0,0,0,0v0s0,0,0,0h0s0,0,0,0h0s0,0,0,0,0,0,0,0h0s0,0,0,0h0s-.06,0-.06,0,0,.08.06.06h0s0,0,0,0,0,0,0,0l.06.05s0,0,.06,0,0,.06,0,.06-.08,0-.09,0-.09,0-.11,0a0,0,0,0,1,0,0l0,0h0a0,0,0,0,0,0,0h0v0s0,0,0,0h0s0,0,0,0h0s0,0,0,0,0,0,0,0v0s0,0,.06,0h0s0,0,0,.05h0a0,0,0,0,0,0,0,.05.05,0,0,1,0,0h0s0,0,0,0h0a0,0,0,0,0,0,0s0,0,0,0h0a0,0,0,0,1,0,0l0,0a.06.06,0,0,1,0,0s0,0,0,0v0h.06v0h0s0,0,0,0,0,0,.08-.06,0,0,0,0v0a.19.19,0,0,0,.12-.09h0c.12,0,0-.11.23-.07l0,0s0,.08,0,.09l0,0h0s0-.06-.08,0h0s0,0,0,0h.06s0,0,0,0h0s0,0,0,0a0,0,0,0,1,0,0h0a0,0,0,0,0,0,0h0s0,0,0,0,0,0,0,0,0,0,0,0h0a.06.06,0,0,0,.06,0s0-.05,0-.06,0,0,0-.05l.08,0a.14.14,0,0,0,.11,0,.21.21,0,0,1,.08,0h0s0,0,0,.05,0,0,0,0h0s0,0,0,0,0,0,0,0h0a0,0,0,0,0,0,0h0s0,0,0,0h0s0,0,0,0a0,0,0,0,1,0,0h0s0,0,0,0h0s0,0,0,0h0s0,0,0,0,0,0,0,0h0s0,0,0-.05,0,0,0,0,0,0,0,0h0s0,0,0,0,0,0,0,0h0s0,0,0,0,0,0,0,0,0,0,0,0h-.15c.09,0,.22,0,.22-.08m-1.08.08h0m.22-.19.06,0h0s0,0,0,0m0,0s0,0,0,0,0,0,0,0l0,0m0,.11a0,0,0,0,1,0,0s0,0,0,0l0,0s0,0,0,0h0s0,0,0,0,0,0,0,0l0,0s0,0,0,0h0s0,0,0,0,0,0,0,0,0,0,0,0a0,0,0,0,1,0,0s0,0,0,0m.11.24h0" transform="translate(0 -2.9)"/>
    <path class="cls-18" d="M124.24,24.77s0-.07-.18-.07-.53.05-.53,0,.14,0,.24,0,0,0,0,0,.34-.07.46,0c-.09-.08-.22,0-.35,0,.08,0,.16,0,.16,0s-.22,0-.29,0h0c-.12,0-.28,0-.28.06s.46.05.57.05.14,0,.14,0-.11,0-.18,0a3.26,3.26,0,0,0-.7,0s.05-.08,0-.1,0,0,0,0l0,0s0,0,0,0v0l0,0h-.12a0,0,0,0,0,0,.05s0,0-.05,0,0,0,0,0,0,0,0,0l0,0a.06.06,0,0,0,0,0h-.06s0,0-.07-.06,0,0,0-.05,0-.05,0-.07v0s0,0,0,0,0,0,0,0v0s0,0,0,0h0s0,0,0,0h0s0,0,0,0h0a0,0,0,0,0,0,0h0s0,0,0,0v0s0,0,0,0,0,0,0,0h0s0,0,0,.05h0s0,0,0,0,0,.07,0,.05h0a0,0,0,0,0,0,0h0s0,.05.09.08l0,0a0,0,0,0,0,0,0s0,.06,0,.06H123s-.09,0-.11,0a0,0,0,0,0,0,0,0,0,0,0,0,0,0h0l0,0h0s0,0,0,0h0s0,0,0,0h0s0,0,0,0a0,0,0,0,1,0,0h0s0,0,0,0h0s0,0,0,.05h0a0,0,0,0,0,0,0s0,0,0,0h0s0,0,0,0h0s0,0,0,0a0,0,0,0,0,0,0h0a0,0,0,0,1,0,0l0,0a.06.06,0,0,1,0,0s0,0,0,0v0h0v0h0s0,0,0,0,.07,0,.11,0h0v0l0,0h0l.06,0v0h0s0,0,0,0c.21,0,.09-.09.34-.06l0,0s0,.07,0,.07l0,0h0s0-.06-.09,0h0s0,0,0,0a0,0,0,0,1,0,0h0s0,0,0,0h0s0,0,0,0,0,0,0,0h0s0,0,0,0h0s0,0,0,0h0s0,0,0,0h0a.06.06,0,0,0,.06,0s0-.05,0-.06,0,0,0,0l.09,0a.13.13,0,0,0,.1,0,.1.1,0,0,1,.07,0s0,0,0,0,0,0,0,.05h-.07a0,0,0,0,0,0,0h0s0,0,0,0h0s0,0,0,0h0s0,0,0,0v0h0s0,0,0,0h0s0,0,0,0h0a0,0,0,0,0,0,0,0,0,0,0,1,0,0h0s0,0,0-.05,0,0,0,0a0,0,0,0,0,0,0h0s0,0,0,0h0s0,0,0,0,0,0,0,0,0,0,0,0H124c.07,0,.21,0,.21-.07m-1-.11,0,0h0s0,0,0,0m0,0s0,0,0,0l0,0,0,0m0,.11v0s0,0,0,0v0h0a0,0,0,0,1,0,0h0l0,0s0,0,0,0h0s0,0,0,0,0,0,0,0,0,0,0,0a0,0,0,0,1,0,0s0,0,0,0" transform="translate(0 -2.9)"/>
    <path class="cls-18" d="M126.1,25.78h0a0,0,0,0,0,0,0s0,0,0,0,0,0,0,0h-.16c.08,0,.22,0,.22-.07s-.05-.06-.18-.06-.53.05-.53,0,.13,0,.23,0l0,0c.17,0,.36-.08.47-.05-.14-.05-.22,0-.35,0,.08,0,.16,0,.16,0s-.22,0-.29,0h0c-.13,0-.28,0-.28.05s.46.06.57.06.13,0,.13,0-.1,0-.17,0a3.2,3.2,0,0,0-.7,0s0-.07,0-.09l0,0,0,0s0,0,0,0,0,0,0,0l0,0h-.06s0,0,0,0h0s0,0,0,.05,0,0,0,0v0s0,.05,0,.05l0,0v0h-.07s0,0-.07-.06a.07.07,0,0,1,0-.06s0,0,0-.06v0l0,0,0,0h0a0,0,0,0,0,0,0h0s0,0,0,0,0,0,0,0h0s0,0,0,0h0v0s0,0,0,0h0a0,0,0,0,0,0,0h0a0,0,0,0,0,0,0s0,0,0,0h0s0,0,0,0h0s0,0,0,0a0,0,0,0,0,0,.06h0a0,0,0,0,0,0,0,0,0,0,0,1,0,0h0s0,0,0,0h0s0,.05.09.08,0,0,0,0a0,0,0,0,0,0,0h0s0,0,0,0H125s-.08,0-.1,0,0,0,0,0h0s0,0,0,0,0,0,0,0h0s0,0,0,0h0s0,0,0,0h0s0,0,0,0l0,0v0s0,0,0,0h0s0,0,0,0h0a0,0,0,0,0,0,0s0,0,0,0h0s0,0,0,0h0s0,0,0,0a0,0,0,0,0,0,0h0s0,0,0,0,0,0,0,0,0,0,0,0l0,0H125v0h0s0,0,0,0,0,0,.08-.06h0a0,0,0,0,1,0,0s.07,0,.07,0h0s0,0,0,0c.22,0,.1-.09.35-.07l0,0s0,.07,0,.08l0,0h0s0-.06-.08,0h0s0,0,0,0h0s0,0,0,0h0s0,0,0,0v0s0,0,0,0,0,0,0,0h0a0,0,0,0,0,0,0s0,0,0,0h0s0,0,0,0h0l0,0s0,0,0,0h.08s0-.05,0-.06,0,0,0,0l.08,0c.06,0,.08,0,.11,0a.12.12,0,0,1,.08,0,0,0,0,0,1,0,0v0s0,0,0,0a0,0,0,0,0,0,0l0,0,0,0h0a0,0,0,0,0,0,0h0s0,0,0,0h0a0,0,0,0,0,0,0s0,0,0,0h0s0,0,0,0h0s0,0,0,0h0s0,0,0,0h0v0s0,0,0,0,0,0,0,0a0,0,0,0,0,0,0h0s0,0,0,0m-.94-.25,0,0,0,0s0,0,0,0m0,0s0,0,0,0,0,0,0,0l0,0m0,.1a0,0,0,0,1,0,0h0s0,0,0,0,0,0,0,0,0,0,0,0,0,0,0,0h0l0,0h0s0,0,0,0,0,0,0,0v0s0,0,0,0,0,0,0,0v0l0,0a0,0,0,0,1,0,0m0-.06Zm0,0h0m.2.3h0" transform="translate(0 -2.9)"/>
    <path class="cls-18" d="M125.52,26.11s0,0,0,0c.17,0,.35-.08.45-.05-.13,0-.21,0-.33,0a.22.22,0,0,0,.15,0c-.06,0-.21,0-.28,0h0c-.09,0-.16,0-.16.05s.33.06.44.06.09,0,.09,0-.12,0-.18,0a2.94,2.94,0,0,0-.53,0s0-.06,0-.08,0,0,0,0l0,0s0,0,0,0v0l0,0h-.06s0,0,0,0,0,0,0,0v0s0,0,0,0,0,0,0,0,0,.05,0,.05a0,0,0,0,0,0,0s0,0,0,0h-.08s0,0,0-.06,0,0,0-.06v0l0,0v0h0a0,0,0,0,0,0,0h0s0,0,0,0h0s0,0,0,0a0,0,0,0,1,0,0h0s0,0,0,0h0s0,0,0,0h0s0,0,0,0h0s0,0,0,0h0s0,0,0,0,0,.07,0,.05h0s0,0,0,0h0s0,0,0,0h0s0,.06,0,.06h-.07s-.08,0-.1,0a0,0,0,0,0,0,0h0s0,0,0,0,0,0,0,0h0s0,0,0,0h0s0,0,0,0h0s0,0,0,0l0,0h0s0,0,0,0h0s0,0,0,.05h0a0,0,0,0,0,0,0,0,0,0,0,1,0,0h0s0,0,0,0h0s0,0,0,0a0,0,0,0,0,0,0h0s0,0,0,0v0s0,0,0,0,0,0,0,0v0h0s0,0,0,0h0a0,0,0,0,0,0,0h0s0,0,0,0,0,0,.08-.06h0v0s.07,0,.09-.06h0a0,0,0,0,1,0,0s0,0,0,0,0-.09.2-.06l0,0s0,.07,0,.08h0s0-.06-.08,0h0a0,0,0,0,0,0,0l0,0h0s0,0,0,0h0s0,0,0,0v0h0s0,0,0,0h0s0,0,0,0h.07s0-.05,0-.07,0,0,0,0l.08,0,.11,0a.1.1,0,0,1,.07,0s0,0,0,0,0,0,0,0,0,0,0,0h0a0,0,0,0,0,0,0h0s0,0,0,0h0s0,0,0,0h0a0,0,0,0,0,0,0v0h0s0,0,0,0h0s0,0,0,0h0s0,0,0,0,0,0,0,0h0s0,0,0,0,0,0,0,0,0,0,0,0h0s0,0,0,0h0s0,0,0,0,0,0,0,0h-.18s0,0,0,0,.21,0,.21-.06,0-.06-.13-.06-.41,0-.41,0,.06,0,.13,0m-.41,0s0,0,0,0,0,0,0,0l0,0m0,.07a0,0,0,0,0,0,0h0s0,0,0,0v0s0,0,0,0a0,0,0,0,1,0,0,0,0,0,0,0,0,0h0s0,0,0,0h0a0,0,0,0,1,0,0h0l0,0a0,0,0,0,1,0,0,0,0,0,0,1,0,0m0,0s0,0,0,0,0,0,0,0l0,0" transform="translate(0 -2.9)"/>
    <path class="cls-18" d="M125.38,26.69l0,0c.16,0,.35-.08.45-.05-.13-.05-.21,0-.33,0a.22.22,0,0,0,.15,0c-.06,0-.21,0-.28,0h0s-.09,0-.09.07.41,0,.41.06-.08.06-.19.06a1,1,0,0,0-.4,0h0s0-.08,0-.1l0,0s0,0,0,0,0,0,0,0v0s0,0,0,0H125s0,0,0,.05,0,0,0,0a0,0,0,0,0,0,0s0,.05,0,.05h0a.4.4,0,0,0,0,.11l-.09-.11s0,0,0,0,0,0,0-.06v0l0,0v0h0s0,0,0,0h0s0,0,0,0h0s0,0,0,0h0v0s0,0,0,0h0s0,0,0,0h0s0,0,0,0v0h0s0,0,0,0h0s0,0,0,0h0s0,0,0,0,0,.06.06,0h0a0,0,0,0,0,0,0s0,0,0,0h0s0,0,0,0a0,0,0,0,1,0,0s0,0,.05.08,0,0,0,0l0,0a.21.21,0,0,0-.08,0l0,0h0s0,0,0,0h0a0,0,0,0,0,0,0h0s0,0,0,0h0s0,0,0,0h0a0,0,0,0,0,0,0s0,0,0,0h0s0,0,0,0h0s0,0,0,0h0a0,0,0,0,0,0,0v0h0s0,0,0,0h0s0,0,0,0a0,0,0,0,0,0,0h0s0,0,0,0,0,0,0,0a0,0,0,0,1,0,0l0,0h0v0h0s0,0,0,0,0,0,.07-.05h0s0,0,0,0,0,0,0,0a.4.4,0,0,0,0-.09h0s.07,0,.11,0a.06.06,0,0,0,0,.06s0,0,0,.06h0s0,0-.07,0h0s0,0,0,0h0a0,0,0,0,0,0,0h0s0,0,0,0h0s0,0,0,0h0s0,0,0,0h.05s0,0,0,0h0a0,0,0,0,0,0,0s0,0,0-.05,0-.09,0-.13.12,0,.14,0l.06,0s0,0,0,0l0,0h0s0,0,0,0h0a0,0,0,0,0,0,0s0,0,0,0h0v0h0s0,0,0,0h0s0,0,0,0a0,0,0,0,1,0,0h0s0,0,0,0h0s0,0,0,0h0s0,0,0,0v0h0s0,0,0,0,0,0,0,0,0,0,0,0h0s0,0,0,0,0,0,0,0h0l0,0s0,0,0,0,0,0,0,0-.07,0-.07-.06h0c.14,0,.23,0,.23-.09s-.42,0-.42-.06,0,0,0,0m-.3,0,0,0h0s0,0,0,0m0,0s0,0,0,0,0,0,0,0l0,0m0,.1a0,0,0,0,1,0,0h0a0,0,0,0,0,0,0h0s0,0,0,0,0,0,0,0h.06v0s0,0,0,0,0,0,0,0a0,0,0,0,0,0,0v0s0,0,0,0,0,0,0,0" transform="translate(0 -2.9)"/>
    <path class="cls-19" d="M118.66,19.45a.1.1,0,0,0-.2,0,.1.1,0,1,0,.2,0" transform="translate(0 -2.9)"/>
    <path class="cls-19" d="M118.63,19.18a.11.11,0,0,0-.11-.1.11.11,0,0,0-.1.1.1.1,0,0,0,.1.1.1.1,0,0,0,.11-.1" transform="translate(0 -2.9)"/>
    <path class="cls-19" d="M118.68,19.06a.09.09,0,0,0,.1-.1.1.1,0,0,0-.1-.1.11.11,0,0,0-.1.1.1.1,0,0,0,.1.1" transform="translate(0 -2.9)"/>
    <path class="cls-19" d="M119,19.05a.1.1,0,0,0,.1-.1.09.09,0,0,0-.1-.1.1.1,0,0,0-.1.1.11.11,0,0,0,.1.1" transform="translate(0 -2.9)"/>
    <path class="cls-18" d="M120.09,18.86a.11.11,0,0,0,.15,0,.12.12,0,0,0,0-.14.11.11,0,0,0-.15,0,.1.1,0,0,0,0,.14" transform="translate(0 -2.9)"/>
    <path class="cls-18" d="M120.07,18.65a.11.11,0,0,0,0-.15.1.1,0,0,0-.14,0,.11.11,0,0,0,0,.15.1.1,0,0,0,.14,0" transform="translate(0 -2.9)"/>
    <path class="cls-18" d="M119.8,18.6a.1.1,0,1,0-.14,0,.1.1,0,0,0,.14,0" transform="translate(0 -2.9)"/>
    <path class="cls-18" d="M119.58,18.77a.1.1,0,0,0,0-.14.11.11,0,0,0-.15,0,.1.1,0,0,0,0,.14.11.11,0,0,0,.15,0" transform="translate(0 -2.9)"/>
    <path class="cls-18" d="M118.93,18.63l.09.18.1-.12h0a1.62,1.62,0,0,1,0,.22.13.13,0,1,0,.26,0,.12.12,0,0,0-.07-.11l-.14-.13s0,0,0,0h.17l-.07-.18-.13.11h0V18.4l-.17.07.12.14h-.17Z" transform="translate(0 -2.9)"/>
    <path class="cls-18" d="M120.1,19a.33.33,0,0,1,.06.14.47.47,0,0,1-.11-.1l0,.23s.05-.07.09-.08c0,.15-.07.22-.13.23a.1.1,0,0,1-.12-.08c0-.07,0-.11.11-.05,0-.14-.1-.14-.15-.08a.21.21,0,0,0-.09-.3.23.23,0,0,0,0,.31c-.09-.05-.17,0-.09.13,0-.09.1-.07.12,0s0,.14-.15.17-.19-.05-.22-.13.1,0,.18,0l-.07-.23a.26.26,0,0,1-.13.14.56.56,0,0,1,0-.2l-.28.11a.84.84,0,0,1,.18.11.2.2,0,0,1-.2,0l.11.21a.21.21,0,0,1,.11-.16c0,.08.06.18-.08.25s-.19,0-.22,0,0-.13.08-.08c0-.13-.13-.13-.16,0,0-.14,0-.22-.18-.26a.21.21,0,0,0,.15.28c-.08,0-.16.06,0,.16,0-.09.07-.1.11,0a.1.1,0,0,1,0,.14s-.14,0-.25-.08a.24.24,0,0,1,.12,0l-.15-.18a.2.2,0,0,1,0,.14.23.23,0,0,1-.05-.14l-.12.1A1.33,1.33,0,0,1,119,20a4.48,4.48,0,0,1,.62-.31,4.92,4.92,0,0,1,.65-.21,1.26,1.26,0,0,1,0-.53Z" transform="translate(0 -2.9)"/>
    <path class="cls-18" d="M122.31,25.35c0-.11-.16-.23-.18-.39a.83.83,0,0,0-.18-.5c-.18-.21-.78-.85-1-1.05a.27.27,0,0,1,.26.07l.32.3a3.09,3.09,0,0,1,.64-1l.11-.12a1.09,1.09,0,0,0-.36.12c0-.18,0-.32-.12-.44,0-.24,0-.54-.54-.91.28.07.45.32.66.13-.19,0-.19-.43-.9-.79.27,0,.48.43.79.19-.29,0-.39-.56-.92-.72.19,0,.38.11.53-.1-.18,0-.29-.13-.49-.14a.63.63,0,0,0,0-.54.69.69,0,0,0-.38.13c0-.12-.15-.13-.26-.12s0,.13,0,.14a6.55,6.55,0,0,0-.65.2,3.74,3.74,0,0,0-.6.32s-.09,0-.12-.08-.17.17-.11.26a.77.77,0,0,0-.41.15.47.47,0,0,0,.33.39c-.33.33,0,.62-.32.91.4,0,.33-.55.54-.63,0,.4-.25.47-.25.89,0,.23.14.48,0,.63.34-.09.25-.84.46-1.07a.7.7,0,0,1,0,.38c-.12.35,0,.83-.17,1,.34,0,.38-.58.67-.79a18.86,18.86,0,0,1-.86,2.09c-.59.79-.93,1.76-1.47,1.76a.4.4,0,0,1-.42-.45c0-.9,1.55-1.52,1.55-2.48a.58.58,0,0,0-.57-.59.8.8,0,0,0-.47.2.45.45,0,0,0-.18,0c-.55,0-.41,1-.88,1,.19.11.51-.1.7-.37-.08.63-1,.46-.92,1.23.13-.6,1.59-.51,1.59-1.42a.38.38,0,0,0-.13-.26.55.55,0,0,1,.31-.09.34.34,0,0,1,.33.38c0,.81-1.53,1.49-1.53,2.47a.7.7,0,0,0,.13.42.27.27,0,0,1-.32-.08c0,.25.36.41.59.28a.41.41,0,0,0,.16,0,.44.44,0,0,1-.43.24c.38.3,1-.09,1-.43a5.46,5.46,0,0,0,.7-.92l0,.19a3.23,3.23,0,0,0-.49,1.28c0,.44-.27.84-.58.84-.07,0-.18-.09-.23,0s0,.17,0,.25-.24.25-.24.64c0,.17.1.38.07.5a.73.73,0,0,0,.28-.43c.11.51-.22.49,0,.94a.19.19,0,0,1,.27-.15c.09.06,0,.11,0,.18s-.13.4.18.38c-.06,0-.07-.13.09-.16s.27.06.5.06.18-.19.29-.19.11.09.08.15c.18,0,.21-.14.21-.24s-.08-.17,0-.21.27,0,.19.18a.21.21,0,0,0,.16-.23c0-.13-.15-.21-.29-.18s-.14-.13-.25-.13c-.26,0-.22.2-.39.2s-.54-.36-.54-1c0-.32.34-.4.59-.51a2.12,2.12,0,0,0,.94-.81,1.9,1.9,0,0,0,.18-1.15.72.72,0,0,1,.39.69.43.43,0,0,1-.25.43c-.09.05-.12,0-.13.08a.12.12,0,0,0,.07.13c.13.07.1.19.14.32a1,1,0,0,0,.34.48,1.39,1.39,0,0,0,0-.37c.26.13,0,.67.57.67a.14.14,0,0,1,0-.22c.06,0,.13,0,.23.17s.07.13.32.13.13-.08.26-.08.12.15.06.26a.29.29,0,0,0,.21-.4.21.21,0,0,1,.32.14.25.25,0,0,0-.15-.43.14.14,0,0,0-.14-.15h-.24c-.1,0-.15.14-.25.14-.33,0-1-.59-1-.85s.62-.41.62-.8-.51-.7-.94-1a.87.87,0,0,1,.85-.09c0-.14.12-.11.15-.36.09.22,0,.41.09.5.08-.1.26-.09.25-.36,0,.17-.07.43,0,.54,0-.13.11-.16.16-.16s.1,0,.1.12-.25.11-.25.34.12.14.12.2a.14.14,0,0,1-.23.08.29.29,0,0,0,.23.17.31.31,0,0,0,.28-.21c.06.15,0,.31-.09.34.11.05.38,0,.35-.34.15,0,.23.12.14.31.13,0,.24-.1.24-.23s-.11-.13-.06-.26m-2.92-4.67c-.14,0-.14-.12-.39-.18a4.22,4.22,0,0,0,.6-.2c0,.16,0,.37-.21.38m1,1.06a.28.28,0,0,1-.36-.19c0-.11-.06-.2,0-.24s.1-.14,0-.23-.17-.06-.3,0c.06-.11.07-.18,0-.17s-.1.16-.15.15,0-.11,0-.16.05-.09.11-.12l.53-.2c.07,0,.11,0,.16,0s.12.08.09.13-.14-.06-.21,0,0,.1.11.13c-.12.07-.24.11-.2.23s.09.13.2.13.1.09.15.19a.26.26,0,0,1-.12.37m0-1.46a.29.29,0,0,1-.41-.14,4.9,4.9,0,0,0,.56-.26c-.14.21,0,.31-.15.4" transform="translate(0 -2.9)"/>
    <path class="cls-18" d="M132.15,27.83a.44.44,0,1,0,.44-.43.44.44,0,0,0-.44.43m.11,0a.33.33,0,1,1,.33.32.32.32,0,0,1-.33-.32" transform="translate(0 -2.9)"/>
    <path class="cls-18" d="M130.53,28.23a.25.25,0,0,0-.11.16.27.27,0,0,0,.07.22.38.38,0,0,0,.46.08.23.23,0,0,0,.14-.18.31.31,0,0,0-.28-.33.39.39,0,0,0-.28.05m.2.39c-.13,0-.21-.12-.2-.21a.2.2,0,0,1,.06-.09.28.28,0,0,1,.2,0,.21.21,0,0,1,.19.18v0a.21.21,0,0,1-.25.13" transform="translate(0 -2.9)"/>
    <path class="cls-18" d="M128.14,22.14a.28.28,0,0,0-.09.39.28.28,0,0,0,.4,0,.29.29,0,0,0,.13-.22.21.21,0,0,0,0-.17.19.19,0,0,0-.15-.08.29.29,0,0,0-.25.07m0,.25a.24.24,0,0,1,.25-.21.09.09,0,0,1,.08,0,.08.08,0,0,1,0,.09.22.22,0,0,1-.09.15.17.17,0,0,1-.24,0,.08.08,0,0,1,0-.07" transform="translate(0 -2.9)"/>
    <path class="cls-18" d="M130,27.51a.44.44,0,0,0-.11.26h0a.36.36,0,0,0,.1.25.25.25,0,0,0,.18.08.27.27,0,0,0,.18-.07.38.38,0,0,0,.1-.26.4.4,0,0,0-.07-.24.31.31,0,0,0-.2-.11.25.25,0,0,0-.18.08m.17.49h0a.13.13,0,0,1-.1,0,.26.26,0,0,1-.06-.19.23.23,0,0,1,.07-.18.11.11,0,0,1,.1,0c.09,0,.16.1.16.23a.27.27,0,0,1-.07.18.15.15,0,0,1-.1,0" transform="translate(0 -2.9)"/>
    <path class="cls-18" d="M127.9,24a.24.24,0,0,0-.15.13.32.32,0,0,0,.18.4.42.42,0,0,0,.29,0,.29.29,0,0,0,.14-.13.25.25,0,0,0,0-.19.39.39,0,0,0-.19-.21.4.4,0,0,0-.28,0m.08.43c-.11-.06-.17-.17-.13-.25a.17.17,0,0,1,.08-.07.28.28,0,0,1,.2,0,.27.27,0,0,1,.13.15.11.11,0,0,1,0,.1.13.13,0,0,1-.08.07.28.28,0,0,1-.2,0" transform="translate(0 -2.9)"/>
    <path class="cls-18" d="M132.46,23.56c.14.38.42.52.63.42-.47-.05-.09-.87-.7-.87h-.1a.52.52,0,0,0-.4-.16.76.76,0,0,0-.71.77c0,1.12,1.3,1.22,1.3,2.21a.46.46,0,0,1-.47.47c-.21,0-.39-.24-.57-.63a5.22,5.22,0,0,0-.48-.69.33.33,0,0,0,.19.06.24.24,0,0,0,.26-.24h0a.36.36,0,0,0-.11-.25.37.37,0,0,0-.25-.12.23.23,0,0,0-.18.07.21.21,0,0,0-.08.17h0a.5.5,0,0,0,0,.12,2.39,2.39,0,0,1-.54-.93.86.86,0,0,1,.27-.5l.05,0,0,0L131,23h0l.05-.06-.14-.11a1.22,1.22,0,0,0,.09-.27c.05.18.14.29.27.25-.09-.18.08-.43,0-.89.11.18.26.27.37.24-.29-.26.09-.61-.29-1.17a.21.21,0,0,0,.26,0c-.34,0-.19-.48-.79-.64.15,0,.24-.11.22-.19-.16.11-.3-.22-.82-.21a.76.76,0,0,0-.42-.5.65.65,0,0,1,0,.4l-1.7-1.66c0-.05-.08-.06-.09,0s0,.05,0,.08L129.45,20l-.33.12a.2.2,0,0,0-.12.19,3.27,3.27,0,0,0-.63.41c-.09.08-.16.1-.08.28s-.06.25.15.12.45-.26.5-.15-.13.13-.24.17-.22.13-.21.17.11,0,.11,0,0,.09.08.09.1-.09.13-.06,0,.23-.05.28a.33.33,0,0,0,.28-.3c0-.12,0-.15.06-.17s.06.13,0,.22.18-.13.17-.35a.27.27,0,0,1,.12-.06c.06,0,.17.16.32.16a.49.49,0,0,0,.47-.35.33.33,0,0,0,0-.24.42.42,0,0,1,.13.31c0,.41-.72.6-1,.89l0,0-.34-.13,0,.07a.15.15,0,0,1,0,.06c0,.12-.11.36-.15.5l0,.06h0a2,2,0,0,0-.4.88l-.25-.23a.29.29,0,0,0,0-.09.3.3,0,0,0-.08-.24.22.22,0,0,0-.15-.08.27.27,0,0,0-.17.06l0,0,0,0a3.39,3.39,0,0,1-.34-.28.16.16,0,0,0-.14-.06H127s-.08,0-.13.09l-.19.15.12.13.06.08.06-.05a.28.28,0,0,1,.13,0,.19.19,0,0,1,.14.09c0,.05.31.41.54.66l-.08,0a1.12,1.12,0,0,1-.41,0c-.1,0-.12,0-.18.07l-.09.13s-.06.09,0,.2a9,9,0,0,1,.43.82c.08.2.18.23.34.3a2.48,2.48,0,0,1,.46.25v-.15A.91.91,0,0,0,128,25s-.07,0,0,0a1.81,1.81,0,0,1,.39.12,1.09,1.09,0,0,0-.27-.41.4.4,0,0,0-.27,0,.07.07,0,0,1-.07.08.06.06,0,0,1-.06-.08c0-.05.08-.06.07-.15s-.12-.1-.19-.11a4.93,4.93,0,0,1-.26-.43c-.05-.08,0-.13,0-.15s.26,0,.6.05l.43,0a1,1,0,0,0,.76.92.89.89,0,0,1,.65.52c-1.11,0-1.28.42-1.28.83s.39.44.39.79-.94.43-1.22.47a.77.77,0,0,0-.49.2l-.44.44a.54.54,0,0,0,.17,0l.16-.2c0-.07.08-.13.11-.12s0,.06,0,.13l-.13.22c.54,0,.58-.17.58-.25s-.13-.14-.06-.19.15,0,.21.05.09.14.24.08l1.35-.56c.13-.07.09-.13,0-.19a.4.4,0,0,1-.1-.32c0-.36.22-.48.61-.47a1.1,1.1,0,0,0,0,.18c0,.56.86,1.11,1.09,1.11s.24-.07.25.27a2.86,2.86,0,0,1,0,.72.52.52,0,0,1-.3.45c-.17.12-.34.51-.41.59.08.05.16.06.22-.13s.12-.27.19-.3c-.07.17-.12.42-.15.49.22,0,.57-.16.57-.31s-.12-.14-.12-.25a.11.11,0,0,1,.12-.09.18.18,0,0,1,.16.1c.1-.05.16-.15.15-.37a2.72,2.72,0,0,0,0-.28.08.08,0,0,1,0,0,.31.31,0,0,0,.2.11.36.36,0,0,0,.24-.07.31.31,0,0,0,.16-.23.07.07,0,0,0,0,0,.18.18,0,0,0,0-.13A.21.21,0,0,0,132,28a.36.36,0,0,0-.28.06.35.35,0,0,0-.15.21c0-.31,0-.6,0-.72s0-.25,0-.27-.13.07-.21.07a.56.56,0,0,1-.33-.48c0-.24.26-.56.25-.89,0-.11.06-.16.1-.06a1.42,1.42,0,0,0,.24.39c-.07.42.39.83.77.53-.19,0-.32-.14-.4-.31h.16a.41.41,0,0,0,.67-.26.44.44,0,0,1-.34.13.66.66,0,0,0,.24-.54c0-1.07-1.29-1.19-1.29-2.16a.6.6,0,0,1,.53-.6.3.3,0,0,1,.2.07.51.51,0,0,0-.12.37c0,.77,1.29.73,1.31,1.1.14-.56-.8-.39-.83-1.13m-3.34-2.95c.06-.11,0-.29.22-.29s.19.1.32.14a1.43,1.43,0,0,0-.54.15M128,23a.24.24,0,0,1-.07.16.15.15,0,0,1-.08,0,.18.18,0,0,1-.13-.19h0a.2.2,0,0,1,.07-.15.09.09,0,0,1,.08,0,.29.29,0,0,1,.08,0,.28.28,0,0,1,0,.16m3.7,5.39a.28.28,0,0,1,.31-.2.14.14,0,0,1,.09.06h0a.18.18,0,0,1,0,.1.31.31,0,0,1-.12.16.21.21,0,0,1-.28,0,.12.12,0,0,1,0-.11m-.78-3.57a.14.14,0,0,1,0-.1.19.19,0,0,1,.1,0,.26.26,0,0,1,.18.09.27.27,0,0,1,.08.18.14.14,0,0,1,0,.1h0a.17.17,0,0,1-.11,0A.25.25,0,0,1,131,25a.29.29,0,0,1-.08-.18m-2.12-2.42c.06-.18.17-.56.17-.56l.2.08A.72.72,0,0,0,129,22a.19.19,0,0,0,.18,0l-.08.2s-.07-.11-.13-.12a.21.21,0,0,0,.13.26c.12.06.2.07.23,0s0-.16-.14-.12a.13.13,0,0,1,.12-.16.13.13,0,0,1,.11.12.32.32,0,0,1,.22-.35.34.34,0,0,1-.11.4c.07,0,.14,0,.17,0s0,.13-.07.18a.1.1,0,0,0-.18,0c0,.06,0,.13.13.19a.21.21,0,0,0,.3-.08.24.24,0,0,0-.19,0l.14-.25a.2.2,0,0,0,.08.15.33.33,0,0,0,0-.24l.28.16a.3.3,0,0,0-.2.13.28.28,0,0,0,.16,0l-.14.23a.27.27,0,0,0-.06-.18.21.21,0,0,0,.08.31c.1.06.19.07.23,0a.1.1,0,0,0-.13-.13c0-.11.06-.16.12-.16a.15.15,0,0,1,.11.14.32.32,0,0,1,.28-.29.31.31,0,0,1-.19.36.13.13,0,0,1,.16,0,.12.12,0,0,1-.08.18.1.1,0,0,0-.18-.06c0,.06,0,.12.13.19a.2.2,0,0,0,.29,0,.29.29,0,0,0-.16-.06l.13-.16a.19.19,0,0,0,.08.16.63.63,0,0,0,0-.23L131,23l-.39.43Zm1.75,4.43a.21.21,0,0,1-.27.08.21.21,0,0,1,0-.29.22.22,0,0,1,.28-.08.21.21,0,0,1,0,.29M131,26a.21.21,0,0,1-.27.08.2.2,0,0,1,0-.28.18.18,0,1,1,.28.2" transform="translate(0 -2.9)"/>
  </g>
  <g class="cls-20">
    <path class="cls-21" d="M18.7,21.16q.12-.26.27-.51a5.5,5.5,0,0,1-.27-.81v1.32m.52-3.35s-.52,0-.52.64v.34a5.94,5.94,0,0,0,.38,1.69,5.21,5.21,0,0,1,1.06-1.24,6.6,6.6,0,0,1,3.49-1.43Z" transform="translate(0 -2.9)"/>
    <path class="cls-19" d="M24.21,18.16a6.6,6.6,0,0,0-3.8,1.4,5.18,5.18,0,0,0-1.13,1.38,4.61,4.61,0,0,0,4.09,2.4h.21a.65.65,0,0,0,.66-.71V18.15h0m-4.5,3.71a4.44,4.44,0,0,1-.52-.76,8.32,8.32,0,0,0-.49,1.14v1.08h3.5a4.53,4.53,0,0,1-2.49-1.47" transform="translate(0 -2.9)"/>
    <path class="cls-19" d="M26.35,20.28c-.53,0-.77-.44-.77-1s.24-1,.77-1,.78.45.78,1-.24,1-.78,1m0-1.82c-.39,0-.53.43-.53.83s.13.82.53.82.54-.43.54-.82-.14-.83-.54-.83" transform="translate(0 -2.9)"/>
    <path class="cls-19" d="M27.79,18.88v1.36h-.21V18.88h-.23v-.13h.23v-.22a.43.43,0,0,1,.47-.46h.05v.14h0a.28.28,0,0,0-.29.3v.24h.31v.13Z" transform="translate(0 -2.9)"/>
    <path class="cls-19" d="M28.69,18.88v1.36h-.22V18.88h-.22v-.13h.22v-.22a.43.43,0,0,1,.48-.46H29v.14h0a.27.27,0,0,0-.28.3v.24H29v.13Z" transform="translate(0 -2.9)"/>
    <path class="cls-19" d="M29.36,18.46a.13.13,0,0,1-.14-.13.13.13,0,0,1,.14-.13.13.13,0,0,1,.13.13.13.13,0,0,1-.13.13m-.11.29h.22v1.49h-.22Z" transform="translate(0 -2.9)"/>
    <path class="cls-19" d="M30.4,20.28c-.36,0-.63-.3-.63-.78s.27-.79.64-.79a.51.51,0,0,1,.36.11l-.06.13a.4.4,0,0,0-.26-.08c-.3,0-.45.26-.45.62s.17.62.45.62a.4.4,0,0,0,.26-.08l.06.15a.61.61,0,0,1-.37.1" transform="translate(0 -2.9)"/>
    <path class="cls-19" d="M31.13,19.59a.5.5,0,0,0,.52.53,1,1,0,0,0,.41-.09l.06.15a1.08,1.08,0,0,1-.48.1c-.43,0-.72-.25-.72-.79s.27-.78.65-.78.61.24.61.74Zm.43-.73c-.24,0-.45.18-.44.6l.84-.11c0-.35-.16-.49-.4-.49" transform="translate(0 -2.9)"/>
    <path class="cls-19" d="M33.57,18.88v1.36h-.22V18.88h-.22v-.13h.22v-.22a.43.43,0,0,1,.48-.46h.05v.14h0a.27.27,0,0,0-.28.3v.24h.31v.13Z" transform="translate(0 -2.9)"/>
    <path class="cls-19" d="M34.67,20.28c-.44,0-.64-.34-.64-.78s.2-.79.64-.79.64.35.64.79-.2.78-.64.78m0-1.42c-.33,0-.42.33-.42.64s.1.62.42.62.42-.31.42-.62-.09-.64-.42-.64" transform="translate(0 -2.9)"/>
    <path class="cls-19" d="M36.25,18.89a.62.62,0,0,0-.43,0v1.32H35.6V18.82a1.37,1.37,0,0,1,.6-.11h.11Z" transform="translate(0 -2.9)"/>
    <path class="cls-19" d="M26.85,23.27,26,22a2,2,0,0,1-.11-.19h0s0,.11,0,.23v1.27h-.28V21.36h.32l.8,1.23a1.71,1.71,0,0,1,.11.2h0s0-.11,0-.23v-1.2h.28v1.91Z" transform="translate(0 -2.9)"/>
    <path class="cls-19" d="M28,23.31c-.44,0-.64-.18-.64-.46s.42-.51.92-.56v-.08c0-.21-.14-.27-.35-.27a.94.94,0,0,0-.4.09l-.08-.19a1.56,1.56,0,0,1,.54-.1c.33,0,.59.13.59.51v.95a1.42,1.42,0,0,1-.58.11m.28-.87c-.37,0-.62.11-.62.4s.14.29.37.29a.58.58,0,0,0,.25-.05Z" transform="translate(0 -2.9)"/>
    <path class="cls-19" d="M29.47,23.3a.39.39,0,0,1-.43-.4V22h-.21v-.2H29v-.33l.32-.09v.42h.29V22h-.29v.91a.19.19,0,0,0,.2.21l.09,0v.2a.36.36,0,0,1-.18,0" transform="translate(0 -2.9)"/>
    <path class="cls-19" d="M30.06,21.52a.17.17,0,1,1,0-.34.17.17,0,1,1,0,.34m-.16.25h.32v1.5H29.9Z" transform="translate(0 -2.9)"/>
    <path class="cls-19" d="M31.18,23.31c-.46,0-.68-.34-.68-.79s.22-.78.68-.78.68.34.68.78-.22.79-.68.79m0-1.37c-.27,0-.36.29-.36.58s.09.57.36.57.36-.28.36-.57-.08-.58-.36-.58" transform="translate(0 -2.9)"/>
    <path class="cls-19" d="M33.05,23.27V22.2c0-.19-.16-.26-.35-.26a.89.89,0,0,0-.26,0v1.29h-.31V21.84a1.57,1.57,0,0,1,.59-.1c.39,0,.65.13.65.46v1.07Z" transform="translate(0 -2.9)"/>
    <path class="cls-19" d="M34.27,23.31c-.44,0-.65-.18-.65-.46s.42-.51.92-.56v-.08c0-.21-.14-.27-.34-.27a1,1,0,0,0-.41.09l-.07-.19a1.51,1.51,0,0,1,.54-.1c.33,0,.58.13.58.51v.95a1.37,1.37,0,0,1-.57.11m.27-.87c-.37,0-.61.11-.61.4s.14.29.36.29a.52.52,0,0,0,.25-.05Z" transform="translate(0 -2.9)"/>
    <polygon class="cls-19" points="35.17 20.37 35.17 18.19 35.49 18.19 35.49 19.29 35.49 20.37 35.17 20.37"/>
    <path class="cls-19" d="M37,23.31a1.09,1.09,0,0,1-.52-.11l.09-.23a.87.87,0,0,0,.37.09.34.34,0,0,0,.38-.32c0-.42-.8-.26-.8-.85a.59.59,0,0,1,.63-.57,1,1,0,0,1,.46.11l-.08.21a.72.72,0,0,0-.33-.09.3.3,0,0,0-.34.3c0,.41.81.23.81.87a.61.61,0,0,1-.67.59" transform="translate(0 -2.9)"/>
    <path class="cls-19" d="M38.49,23.3a.39.39,0,0,1-.44-.4V22h-.21v-.2h.21v-.33l.32-.09v.42h.29V22h-.29v.91a.19.19,0,0,0,.21.21l.08,0v.2a.34.34,0,0,1-.17,0" transform="translate(0 -2.9)"/>
    <path class="cls-19" d="M39.48,23.31c-.44,0-.64-.18-.64-.46s.42-.51.92-.56v-.08c0-.21-.14-.27-.35-.27A.94.94,0,0,0,39,22l-.08-.19a1.56,1.56,0,0,1,.54-.1c.33,0,.59.13.59.51v.95a1.42,1.42,0,0,1-.58.11m.28-.87c-.37,0-.62.11-.62.4s.14.29.37.29a.58.58,0,0,0,.25-.05Z" transform="translate(0 -2.9)"/>
    <path class="cls-19" d="M40.92,23.3a.39.39,0,0,1-.43-.4V22h-.21v-.2h.21v-.33l.32-.09v.42h.29V22h-.29v.91a.19.19,0,0,0,.2.21l.09,0v.2a.36.36,0,0,1-.18,0" transform="translate(0 -2.9)"/>
    <path class="cls-19" d="M41.51,21.52a.17.17,0,1,1,.19-.17.19.19,0,0,1-.19.17m-.16.25h.32v1.5h-.32Z" transform="translate(0 -2.9)"/>
    <path class="cls-19" d="M42.37,23.31a.87.87,0,0,1-.45-.11L42,23a.57.57,0,0,0,.33.09.26.26,0,0,0,.29-.23c0-.35-.65-.19-.65-.68a.47.47,0,0,1,.52-.43.81.81,0,0,1,.42.1l-.09.19a.47.47,0,0,0-.27-.09.24.24,0,0,0-.27.22c0,.33.67.18.67.68a.53.53,0,0,1-.58.47" transform="translate(0 -2.9)"/>
    <path class="cls-19" d="M43.76,23.3a.39.39,0,0,1-.43-.4V22h-.21v-.2h.21v-.33l.32-.09v.42h.29V22h-.29v.91a.19.19,0,0,0,.2.21l.09,0v.2a.39.39,0,0,1-.18,0" transform="translate(0 -2.9)"/>
    <path class="cls-19" d="M44.35,21.52a.17.17,0,1,1,.19-.17.19.19,0,0,1-.19.17m-.16.25h.32v1.5h-.32Z" transform="translate(0 -2.9)"/>
    <path class="cls-19" d="M45.43,23.31c-.36,0-.64-.3-.64-.79s.28-.78.65-.78a.67.67,0,0,1,.38.1l-.07.18a.46.46,0,0,0-.24-.07c-.26,0-.39.23-.39.56s.15.57.39.57a.37.37,0,0,0,.23-.08l.08.2a.56.56,0,0,1-.39.11" transform="translate(0 -2.9)"/>
    <path class="cls-19" d="M46.42,23.31A.91.91,0,0,1,46,23.2l.09-.21a.57.57,0,0,0,.33.09.26.26,0,0,0,.29-.23c0-.35-.66-.19-.66-.68a.48.48,0,0,1,.53-.43.84.84,0,0,1,.42.1l-.09.19a.53.53,0,0,0-.27-.09c-.17,0-.27.1-.27.22,0,.33.67.18.67.68a.53.53,0,0,1-.58.47" transform="translate(0 -2.9)"/>
  </g>
  <rect class="cls-2" x="125.72" y="122.45" width="8.1" height="5.01"/>
  <rect class="cls-2" x="125.84" y="122.52" width="7.8" height="4.82"/>
  <g class="cls-22">
    <path class="cls-2" d="M133.56,125.51v4.39a.26.26,0,0,1-.26.25h-7.12a.26.26,0,0,1-.26-.26v-4.38Z" transform="translate(0 -2.9)"/>
    <path class="cls-23" d="M133.56,129.9a.26.26,0,0,1-.26.25h-7.12a.26.26,0,0,1-.26-.26v-4.38h7.64Zm-.26-6.06h-7.12a.64.64,0,0,0-.64.64v5.42a.63.63,0,0,0,.64.63h7.12a.63.63,0,0,0,.64-.63h0v-5.42a.63.63,0,0,0-.64-.64h0" transform="translate(0 -2.9)"/>
    <path class="cls-2" d="M126.44,124.49a.29.29,0,0,1,.3.3.3.3,0,0,1-.6,0,.29.29,0,0,1,.3-.3" transform="translate(0 -2.9)"/>
    <path class="cls-2" d="M127.34,124.49a.3.3,0,0,1,.3.3.31.31,0,0,1-.3.3.3.3,0,0,1-.3-.3.29.29,0,0,1,.3-.3" transform="translate(0 -2.9)"/>
    <path class="cls-2" d="M128.24,124.49a.3.3,0,0,1,.3.3.31.31,0,0,1-.3.3.3.3,0,0,1-.3-.3.29.29,0,0,1,.3-.3" transform="translate(0 -2.9)"/>
    <path class="cls-23" d="M126.73,127.19h1.54a.1.1,0,0,1,.11.1v1a.1.1,0,0,1-.11.1h-1.54a.09.09,0,0,1-.1-.1v-1a.09.09,0,0,1,.1-.1" transform="translate(0 -2.9)"/>
    <path class="cls-23" d="M129,127.19h1.55a.09.09,0,0,1,.1.1v1a.09.09,0,0,1-.1.1H129a.1.1,0,0,1-.1-.1v-1a.1.1,0,0,1,.1-.1" transform="translate(0 -2.9)"/>
    <path class="cls-23" d="M131.2,127.19h1.55a.1.1,0,0,1,.1.1v1a.1.1,0,0,1-.1.1H131.2a.1.1,0,0,1-.1-.1v-1a.1.1,0,0,1,.1-.1" transform="translate(0 -2.9)"/>
  </g>
  <rect class="cls-2" x="125.58" y="113.94" width="8.23" height="5.1"/>
  <rect class="cls-2" x="125.71" y="114.01" width="7.92" height="4.9"/>
  <g class="cls-24">
    <path class="cls-2" d="M133.55,117v4.46a.27.27,0,0,1-.27.26h-7.23a.26.26,0,0,1-.26-.27V117Z" transform="translate(0 -2.9)"/>
    <path class="cls-23" d="M133.55,121.46a.27.27,0,0,1-.27.26h-7.23a.26.26,0,0,1-.26-.27V117h7.76Zm-.27-6.16h-7.23a.65.65,0,0,0-.65.65v5.51a.65.65,0,0,0,.65.64h7.23a.64.64,0,0,0,.66-.64h0V116a.65.65,0,0,0-.65-.65h0" transform="translate(0 -2.9)"/>
    <path class="cls-2" d="M126.31,116a.3.3,0,0,1,.31.3.31.31,0,0,1-.31.31.3.3,0,0,1-.3-.31.29.29,0,0,1,.3-.3" transform="translate(0 -2.9)"/>
    <path class="cls-2" d="M127.23,116a.3.3,0,0,1,.3.3.31.31,0,1,1-.61,0,.3.3,0,0,1,.31-.3" transform="translate(0 -2.9)"/>
    <path class="cls-2" d="M128.14,116a.3.3,0,0,1,.31.3.31.31,0,0,1-.31.31.3.3,0,0,1-.3-.31.29.29,0,0,1,.3-.3" transform="translate(0 -2.9)"/>
  </g>
  <rect class="cls-25" x="126.26" y="115.45" width="6.81" height="2.25"/>
  <g class="cls-24">
    <path class="cls-2" d="M127.36,119.62a.23.23,0,0,1-.08.18.4.4,0,0,1-.24.07.52.52,0,0,1-.24-.05v-.13l.13,0,.12,0a.28.28,0,0,0,.13,0,.15.15,0,0,0,0-.09.12.12,0,0,0,0-.08.37.37,0,0,0-.15-.08.5.5,0,0,1-.17-.11.3.3,0,0,1,0-.16.23.23,0,0,1,.08-.17.37.37,0,0,1,.21-.06.74.74,0,0,1,.25,0l0,.12a.46.46,0,0,0-.21,0,.19.19,0,0,0-.1,0,.12.12,0,0,0,0,.08.14.14,0,0,0,0,.06l0,0a.34.34,0,0,0,.12.06l.14.08a.23.23,0,0,1,.07.07.43.43,0,0,1,0,.11" transform="translate(0 -2.9)"/>
    <path class="cls-2" d="M127.76,119.75h.1v.1l-.06,0h-.07c-.14,0-.2-.07-.2-.21v-.36h-.09v-.06l.1,0,0-.14h.08v.15h.19v.11h-.19v.35a.08.08,0,0,0,0,.08.09.09,0,0,0,.07,0" transform="translate(0 -2.9)"/>
    <path class="cls-2" d="M128.2,119.76a.19.19,0,0,0,.12,0,.14.14,0,0,0,0-.12v-.06h-.08a.23.23,0,0,0-.14,0,.11.11,0,0,0,0,.09.07.07,0,0,0,0,.06.11.11,0,0,0,.08,0m.21.1,0-.09a.39.39,0,0,1-.1.08l-.12,0a.3.3,0,0,1-.16-.05.19.19,0,0,1,0-.16.17.17,0,0,1,.07-.15.5.5,0,0,1,.24-.06h.11v0a.17.17,0,0,0,0-.1.14.14,0,0,0-.09,0l-.1,0-.09,0,0-.1.11,0,.12,0a.31.31,0,0,1,.19.06.2.2,0,0,1,.06.18v.44Z" transform="translate(0 -2.9)"/>
    <path class="cls-2" d="M129,119.19h.07v.13H129a.16.16,0,0,0-.14.05.24.24,0,0,0,0,.14v.35h-.14v-.66h.11l0,.11h0a.23.23,0,0,1,.08-.09.2.2,0,0,1,.11,0" transform="translate(0 -2.9)"/>
    <path class="cls-2" d="M129.47,119.75h.1v.1l-.06,0h-.07a.18.18,0,0,1-.2-.21v-.36h-.09v-.06l.1,0,0-.14h.09v.15h.19v.11h-.19v.35a.11.11,0,0,0,0,.08.06.06,0,0,0,.06,0" transform="translate(0 -2.9)"/>
    <path class="cls-2" d="M130.76,119.86h-.18l-.43-.7v0c0,.08,0,.14,0,.2v.46H130V119h.18l.42.69V119h.13Z" transform="translate(0 -2.9)"/>
    <path class="cls-2" d="M131.08,119.53c0,.15.06.22.17.22s.17-.07.17-.22-.06-.23-.17-.23a.16.16,0,0,0-.13.06.33.33,0,0,0,0,.17m.48,0a.33.33,0,0,1-.08.25.32.32,0,0,1-.23.09.29.29,0,0,1-.16,0,.25.25,0,0,1-.11-.12.39.39,0,0,1,0-.18.32.32,0,0,1,.08-.25.26.26,0,0,1,.23-.09.25.25,0,0,1,.23.09.33.33,0,0,1,.08.25" transform="translate(0 -2.9)"/>
    <path class="cls-2" d="M132.26,119.86l-.08-.31a1.33,1.33,0,0,1-.06-.23,1,1,0,0,1-.06.23l-.08.31h-.16l-.18-.66h.14l.08.32c0,.08,0,.16,0,.21s0-.07,0-.1a.51.51,0,0,0,0-.09l.1-.34h.15l.1.34a.51.51,0,0,0,0,.09.36.36,0,0,1,0,.1,1.55,1.55,0,0,1,0-.21l.09-.32h.14l-.19.66Z" transform="translate(0 -2.9)"/>
  </g>
  <rect class="cls-2" x="125.93" y="135.56" width="7.9" height="4.89"/>
  <rect class="cls-2" x="126.05" y="135.62" width="7.61" height="4.71"/>
  <g class="cls-26">
    <path class="cls-2" d="M133.57,138.61v4.28a.25.25,0,0,1-.25.25h-6.95a.25.25,0,0,1-.25-.25v-4.28Z" transform="translate(0 -2.9)"/>
    <path class="cls-23" d="M133.57,142.89a.25.25,0,0,1-.25.25h-6.95a.25.25,0,0,1-.25-.25v-4.28h7.45Zm-.25-5.91h-6.95a.62.62,0,0,0-.62.62v5.29a.62.62,0,0,0,.62.62h6.95a.63.63,0,0,0,.63-.62h0V137.6a.62.62,0,0,0-.62-.62h0" transform="translate(0 -2.9)"/>
    <path class="cls-2" d="M126.63,137.61a.29.29,0,0,1,0,.58.29.29,0,1,1,0-.58" transform="translate(0 -2.9)"/>
    <path class="cls-2" d="M127.5,137.61a.29.29,0,1,1-.29.29.29.29,0,0,1,.29-.29" transform="translate(0 -2.9)"/>
    <path class="cls-2" d="M128.38,137.61a.29.29,0,1,1,0,.58.29.29,0,0,1,0-.58" transform="translate(0 -2.9)"/>
  </g>
  <rect class="cls-25" x="126.58" y="137" width="6.54" height="2.16"/>
  <g class="cls-26">
    <path class="cls-2" d="M128.09,141.21a.26.26,0,0,1-.1.22.4.4,0,0,1-.28.08.58.58,0,0,1-.29,0v-.16l.15,0,.14,0a.28.28,0,0,0,.15,0,.14.14,0,0,0,0-.19h0a.54.54,0,0,0-.18-.1.57.57,0,0,1-.21-.13.3.3,0,0,1-.06-.18.25.25,0,0,1,.1-.21.37.37,0,0,1,.25-.07.72.72,0,0,1,.29.06l-.05.14a1.14,1.14,0,0,0-.25-.06.2.2,0,0,0-.13,0,.12.12,0,0,0,0,.1.13.13,0,0,0,0,.06.17.17,0,0,0,.06.06l.15.07a.7.7,0,0,1,.17.09.24.24,0,0,1,.08.09.28.28,0,0,1,0,.12" transform="translate(0 -2.9)"/>
    <path class="cls-2" d="M128.82,141.5l0-.11h0a.22.22,0,0,1-.1.09.33.33,0,0,1-.15,0,.28.28,0,0,1-.21-.07.34.34,0,0,1-.07-.22v-.51h.17v.48a.23.23,0,0,0,0,.14.17.17,0,0,0,.12,0,.19.19,0,0,0,.15-.07.3.3,0,0,0,0-.21v-.39H129v.79Z" transform="translate(0 -2.9)"/>
    <path class="cls-2" d="M129.56,140.83a.17.17,0,0,0-.15.06.34.34,0,0,0,0,.2h0a.31.31,0,0,0,0,.21.16.16,0,0,0,.15.06.13.13,0,0,0,.13-.07.35.35,0,0,0,.05-.2q0-.27-.18-.27Zm0-.14a.28.28,0,0,1,.23.11.55.55,0,0,1,0,.6.3.3,0,0,1-.43,0l0,0h0l0,.1h-.13v-1.12h.17v.43a.27.27,0,0,1,.23-.12" transform="translate(0 -2.9)"/>
    <path class="cls-2" d="M130.78,141.5h-.17V141a.32.32,0,0,0,0-.14.15.15,0,0,0-.11,0,.17.17,0,0,0-.15.06.39.39,0,0,0,0,.21v.4h-.18v-.79h.13l0,.1h0a.2.2,0,0,1,.09-.09.32.32,0,0,1,.14,0,.24.24,0,0,1,.24.13h0a.47.47,0,0,1,.1-.1.4.4,0,0,1,.15,0,.29.29,0,0,1,.2.07.31.31,0,0,1,.07.22v.52h-.17V141a.23.23,0,0,0,0-.14.12.12,0,0,0-.1,0,.17.17,0,0,0-.15.06.31.31,0,0,0,0,.19Z" transform="translate(0 -2.9)"/>
    <path class="cls-2" d="M131.68,141.5h-.17v-.79h.17Zm-.18-1a.09.09,0,0,1,0-.07.09.09,0,0,1,.13,0,.11.11,0,0,1,0,.08.09.09,0,0,1-.09.09.09.09,0,0,1-.07,0,.07.07,0,0,1,0-.06" transform="translate(0 -2.9)"/>
    <path class="cls-2" d="M132.21,141.38l.13,0v.12l-.07,0h-.1c-.16,0-.23-.08-.23-.25v-.43h-.11v-.07l.11-.06.06-.17h.1v.18h.24v.12h-.24v.43a.12.12,0,0,0,0,.09.09.09,0,0,0,.07,0" transform="translate(0 -2.9)"/>
  </g>
  <path class="cls-11" d="M231.52,95.76c-.14,0-.29.8-.29,1.9v23c0,1,.15,1.9.29,1.9h42c.14,0,.28-.8.28-1.9v-23c0-1-.14-1.9-.28-1.9Z" transform="translate(0 -2.9)"/>
  <path class="cls-2" d="M279.83,96.4c-.14,0-.28.8-.28,1.9v23c0,1,.14,1.9.28,1.9h40.59c.14,0,.28-.8.28-1.9v-23c0-1-.14-1.9-.28-1.9Z" transform="translate(0 -2.9)"/>
  <path class="cls-2" d="M327.46,95.71c-.14,0-.28.8-.28,1.9v23c0,1,.14,1.9.28,1.9h40.6c.13,0,.27-.8.27-1.9v-23a4,4,0,0,0-.27-1.9Z" transform="translate(0 -2.9)"/>
  <path class="cls-2" d="M375.1,96.4c-.14,0-.27.8-.27,1.9v23c0,1,.13,1.9.27,1.9h40.6c.14,0,.28-.8.28-1.9v-23c0-1-.14-1.9-.28-1.9Z" transform="translate(0 -2.9)"/>
  <path class="cls-11" d="M279.14,95.76c-.14,0-.29.8-.29,1.9v23c0,1,.15,1.9.29,1.9h41.95c.14,0,.28-.8.28-1.9v-23c0-1-.14-1.9-.28-1.9Z" transform="translate(0 -2.9)"/>
  <path class="cls-11" d="M326.78,95.76c-.14,0-.28.8-.28,1.9v23c0,1,.14,1.9.28,1.9h42c.14,0,.29-.8.29-1.9v-23c0-1-.15-1.9-.29-1.9Z" transform="translate(0 -2.9)"/>
  <path class="cls-11" d="M374.43,95.76c-.15,0-.29.8-.29,1.9v23c0,1,.14,1.9.29,1.9h41.95c.14,0,.28-.8.28-1.9v-23c0-1-.14-1.9-.28-1.9Z" transform="translate(0 -2.9)"/>
  <path class="cls-27" d="M32.94,130.3H48.82c.07,0,.14.2.14.5v6.5c0,.3-.07.5-.14.5H32.94c-.07,0-.14-.2-.14-.5v-6.5C32.87,130.6,32.94,130.3,32.94,130.3Z" transform="translate(0 -2.9)"/>
  <path class="cls-2" d="M51.35,130.3H67.22c.07,0,.14.2.14.5v6.5c0,.3-.07.5-.14.5H51.35c-.07,0-.14-.2-.14-.5v-6.5C51.28,130.6,51.35,130.3,51.35,130.3Z" transform="translate(0 -2.9)"/>
  <path class="cls-2" d="M69.4,130.3H85.28c.07,0,.14.2.14.5v6.5c0,.3-.07.5-.14.5H69.4c-.07,0-.14-.2-.14-.5v-6.5C69.33,130.6,69.4,130.3,69.4,130.3Z" transform="translate(0 -2.9)"/>
  <path class="cls-2" d="M87.48,130.3h15.88c.07,0,.14.2.14.5v6.5c0,.3-.07.5-.14.5H87.48c-.07,0-.14-.2-.14-.5v-6.5C87.41,130.6,87.48,130.3,87.48,130.3Z" transform="translate(0 -2.9)"/>
  <path class="cls-27" d="M51.35,130.3H67.22c.07,0,.14.2.14.5v6.5c0,.3-.07.5-.14.5H51.35c-.07,0-.14-.2-.14-.5v-6.5C51.28,130.6,51.35,130.3,51.35,130.3Z" transform="translate(0 -2.9)"/>
  <path class="cls-27" d="M69.4,130.3H85.28c.07,0,.14.2.14.5v6.5c0,.3-.07.5-.14.5H69.4c-.07,0-.14-.2-.14-.5v-6.5C69.33,130.6,69.4,130.3,69.4,130.3Z" transform="translate(0 -2.9)"/>
  <path class="cls-27" d="M87.48,130.3h15.88c.07,0,.14.2.14.5v6.5c0,.3-.07.5-.14.5H87.48c-.07,0-.14-.2-.14-.5v-6.5C87.41,130.6,87.48,130.3,87.48,130.3Z" transform="translate(0 -2.9)"/>
  <g>
    <path d="M37.07,135.56l-.36-.91H35.57l-.35.91h-.34L36,132.69h.3l1.11,2.87Zm-.46-1.2-.33-.9s0-.07,0-.12a1.54,1.54,0,0,0-.05-.17.89.89,0,0,0,0-.13.83.83,0,0,1,0,.15,1.55,1.55,0,0,1,0,.15.84.84,0,0,0,0,.12l-.34.9Z" transform="translate(0 -2.9)"/>
    <path d="M39.54,135.56h-.32v-2.22a.81.81,0,0,1,0-.16.71.71,0,0,1,0-.14l-.12.11-.13.11-.32.26-.17-.22.77-.6h.27Z" transform="translate(0 -2.9)"/>
    <path d="M41.53,132.7h.81a1.55,1.55,0,0,1,.8.16.59.59,0,0,1,.27.55.65.65,0,0,1-.06.29.55.55,0,0,1-.18.22.68.68,0,0,1-.3.12v0a1.17,1.17,0,0,1,.33.11.54.54,0,0,1,.23.22.72.72,0,0,1,.08.35.71.71,0,0,1-.47.72,1.22,1.22,0,0,1-.53.1h-1Zm.33,1.23h.55a.84.84,0,0,0,.52-.13.46.46,0,0,0,.14-.36.39.39,0,0,0-.17-.35,1.06,1.06,0,0,0-.54-.11h-.5Zm0,.28v1.06h.6a.79.79,0,0,0,.54-.15.54.54,0,0,0,.15-.4.51.51,0,0,0-.07-.28.42.42,0,0,0-.23-.17,1.21,1.21,0,0,0-.42-.06Z" transform="translate(0 -2.9)"/>
    <path d="M46.51,135.56H44.64v-.27l.77-.78c.14-.14.26-.27.35-.38a1.82,1.82,0,0,0,.23-.33.86.86,0,0,0,.07-.36.48.48,0,0,0-.14-.37.53.53,0,0,0-.38-.13.8.8,0,0,0-.36.07,1.46,1.46,0,0,0-.33.2l-.17-.22a1.56,1.56,0,0,1,.25-.17,1.39,1.39,0,0,1,.28-.12,1.19,1.19,0,0,1,.33,0,1.08,1.08,0,0,1,.46.09.73.73,0,0,1,.29.26.78.78,0,0,1,.11.41,1,1,0,0,1-.09.42,1.51,1.51,0,0,1-.26.38,4.42,4.42,0,0,1-.37.41l-.63.62h1.46Z" transform="translate(0 -2.9)"/>
  </g>
  <g>
    <path d="M237.08,110.87l-.91,2.76H235l3-8.76h1.36l3,8.76h-1.21l-.93-2.76ZM240,110l-.86-2.52c-.19-.57-.32-1.09-.45-1.6h0c-.13.52-.27,1-.44,1.58l-.86,2.54Z" transform="translate(0 -2.9)"/>
    <path d="M248,106.24h0l-1.47.8-.22-.87,1.85-1h1v8.45H248Z" transform="translate(0 -2.9)"/>
    <path d="M255,105a11.23,11.23,0,0,1,2.06-.18,3.64,3.64,0,0,1,2.41.64,1.86,1.86,0,0,1,.73,1.55,2.08,2.08,0,0,1-1.49,1.92v0a2.24,2.24,0,0,1,1.81,2.19,2.37,2.37,0,0,1-.74,1.76,4.4,4.4,0,0,1-3,.82,11.63,11.63,0,0,1-1.75-.11Zm1.13,3.59h1c1.2,0,1.9-.62,1.9-1.47,0-1-.78-1.43-1.92-1.43a4.71,4.71,0,0,0-1,.08Zm0,4.2a5.92,5.92,0,0,0,.95,0c1.17,0,2.25-.43,2.25-1.7s-1-1.69-2.27-1.69h-.93Z" transform="translate(0 -2.9)"/>
    <path d="M264,113.63v-.7l.9-.87C267,110,268,108.91,268,107.64a1.51,1.51,0,0,0-1.67-1.66,2.92,2.92,0,0,0-1.8.72l-.36-.81a3.7,3.7,0,0,1,2.39-.85,2.37,2.37,0,0,1,2.59,2.45c0,1.56-1.13,2.82-2.92,4.54l-.67.62v0h3.79v.95Z" transform="translate(0 -2.9)"/>
  </g>
  <g>
    <path d="M289,113a5.81,5.81,0,0,1-2.32.41A4.09,4.09,0,0,1,282.3,109a4.36,4.36,0,0,1,4.58-4.6,4.65,4.65,0,0,1,2.08.39l-.27.92a4.1,4.1,0,0,0-1.77-.36A3.26,3.26,0,0,0,283.5,109a3.19,3.19,0,0,0,3.37,3.52,4.5,4.5,0,0,0,1.84-.36Z" transform="translate(0 -2.9)"/>
    <path d="M292.57,112a3.83,3.83,0,0,0,1.88.53c1.47,0,1.92-.93,1.91-1.64,0-1.18-1.08-1.69-2.19-1.69h-.63v-.85h.63c.83,0,1.89-.43,1.89-1.43,0-.68-.43-1.28-1.48-1.28a3.08,3.08,0,0,0-1.69.56l-.3-.83a4,4,0,0,1,2.21-.65c1.66,0,2.41,1,2.41,2a2.08,2.08,0,0,1-1.55,2v0a2.2,2.2,0,0,1,1.88,2.17c0,1.35-1.05,2.53-3.08,2.53a4.25,4.25,0,0,1-2.2-.57Z" transform="translate(0 -2.9)"/>
    <path d="M301.71,104.67a15.4,15.4,0,0,1,2.41-.19,5,5,0,0,1,3.55,1.1,4,4,0,0,1,1.23,3.14,4.65,4.65,0,0,1-1.26,3.41,5.39,5.39,0,0,1-3.87,1.26,19.68,19.68,0,0,1-2.06-.1Zm1.13,7.74a6.37,6.37,0,0,0,1.15.07,3.37,3.37,0,0,0,3.73-3.72c0-2.07-1.16-3.38-3.55-3.38a6.07,6.07,0,0,0-1.33.12Z" transform="translate(0 -2.9)"/>
    <path d="M315.84,113.31V111h-3.92v-.75l3.77-5.4h1.23v5.25h1.19v.9h-1.19v2.3Zm0-3.2v-2.82c0-.44,0-.88,0-1.32h0c-.26.49-.46.85-.7,1.24l-2.06,2.88v0Z" transform="translate(0 -2.9)"/>
  </g>
  <g>
    <path d="M337.29,109.52h-3.41v3.16h3.8v.95h-4.93v-8.76h4.73v.95h-3.6v2.77h3.41Z" transform="translate(0 -2.9)"/>
    <path d="M346.12,106.14H342.9l-.32,2.17a5.34,5.34,0,0,1,.69,0,3.44,3.44,0,0,1,1.81.46,2.38,2.38,0,0,1,1.21,2.17,2.92,2.92,0,0,1-3.14,2.88,4.18,4.18,0,0,1-2.11-.52l.29-.87a3.75,3.75,0,0,0,1.8.47,1.87,1.87,0,0,0,2-1.83c0-1.1-.74-1.88-2.43-1.88a10.57,10.57,0,0,0-1.17.09l.54-4h4Z" transform="translate(0 -2.9)"/>
    <path d="M350.49,104.87h4.72v.95h-3.59v2.91h3.32v.93h-3.32v4h-1.13Z" transform="translate(0 -2.9)"/>
    <path d="M363.58,106a3.8,3.8,0,0,0-.85.06,3.42,3.42,0,0,0-2.94,3h0a2.58,2.58,0,0,1,4.59,1.76,2.83,2.83,0,0,1-2.81,3c-1.81,0-3-1.4-3-3.6a5.33,5.33,0,0,1,1.43-3.81,4.6,4.6,0,0,1,2.7-1.25,5.71,5.71,0,0,1,.83-.06Zm-.32,4.88a1.72,1.72,0,0,0-1.74-1.94,1.88,1.88,0,0,0-1.64,1,1,1,0,0,0-.13.51c0,1.39.66,2.42,1.86,2.42C362.6,112.89,363.26,112.07,363.26,110.86Z" transform="translate(0 -2.9)"/>
  </g>
  <g>
    <path d="M384.44,112.92a8.19,8.19,0,0,1-2.69.48,4.12,4.12,0,0,1-4.5-4.42,4.4,4.4,0,0,1,4.75-4.52,5.43,5.43,0,0,1,2.18.4l-.27.92a4.68,4.68,0,0,0-1.94-.37,3.27,3.27,0,0,0-3.52,3.52,3.22,3.22,0,0,0,3.38,3.54,3.68,3.68,0,0,0,1.51-.24v-2.61h-1.78v-.91h2.88Z" transform="translate(0 -2.9)"/>
    <path d="M393.59,104.86v.76l-3.67,7.69h-1.19l3.67-7.47v0h-4.14v-1Z" transform="translate(0 -2.9)"/>
    <path d="M398.65,104.55v3.67h4.24v-3.67H404v8.76h-1.14V109.2h-4.24v4.11h-1.13v-8.76Z" transform="translate(0 -2.9)"/>
    <path d="M407.83,111.17a2.43,2.43,0,0,1,1.68-2.27l0,0a2.11,2.11,0,0,1-1.34-1.9,2.37,2.37,0,0,1,2.62-2.25,2.18,2.18,0,0,1,2.45,2.08,2.14,2.14,0,0,1-1.39,2v0a2.35,2.35,0,0,1,1.71,2.19,2.6,2.6,0,0,1-2.88,2.45C408.89,113.45,407.83,112.4,407.83,111.17Zm4.55-.06c0-1-.72-1.52-1.86-1.84A1.82,1.82,0,0,0,409,111a1.56,1.56,0,0,0,1.69,1.61A1.52,1.52,0,0,0,412.38,111.11Zm-3.15-4.22c0,.84.64,1.3,1.61,1.56a1.67,1.67,0,0,0,1.29-1.53,1.31,1.31,0,0,0-1.43-1.38A1.34,1.34,0,0,0,409.23,106.89Z" transform="translate(0 -2.9)"/>
  </g>
  <g>
    <path d="M54.82,133a1.18,1.18,0,0,0-.43.08,1.08,1.08,0,0,0-.32.24,1.18,1.18,0,0,0-.2.37,1.81,1.81,0,0,0-.07.49,1.67,1.67,0,0,0,.11.62.92.92,0,0,0,.34.41,1,1,0,0,0,.56.14,2,2,0,0,0,.36,0l.33-.08v.29a1.59,1.59,0,0,1-.33.09,2.37,2.37,0,0,1-.41,0,1.33,1.33,0,0,1-.72-.18,1.07,1.07,0,0,1-.44-.52,1.86,1.86,0,0,1-.15-.77,1.89,1.89,0,0,1,.09-.6,1.24,1.24,0,0,1,.27-.46,1.19,1.19,0,0,1,.43-.3,1.5,1.5,0,0,1,.58-.11,1.87,1.87,0,0,1,.42,0,1.17,1.17,0,0,1,.36.13l-.13.28a2.09,2.09,0,0,0-.3-.11A1.29,1.29,0,0,0,54.82,133Z" transform="translate(0 -2.9)"/>
    <path d="M58.41,133.37a.67.67,0,0,1-.07.33.66.66,0,0,1-.21.23.77.77,0,0,1-.31.12v0a.86.86,0,0,1,.51.22.64.64,0,0,1,.17.46.83.83,0,0,1-.12.44.74.74,0,0,1-.35.3,1.56,1.56,0,0,1-.62.11,2.48,2.48,0,0,1-.41,0,1.15,1.15,0,0,1-.37-.12v-.31a1.74,1.74,0,0,0,.38.14,1.48,1.48,0,0,0,.41,0,.83.83,0,0,0,.56-.15.55.55,0,0,0,.18-.43.49.49,0,0,0-.1-.3.64.64,0,0,0-.28-.17,1.75,1.75,0,0,0-.43-.05h-.29v-.28h.29a1.1,1.1,0,0,0,.39-.06.51.51,0,0,0,.25-.2.48.48,0,0,0,.09-.29.41.41,0,0,0-.15-.34.57.57,0,0,0-.39-.11,1.27,1.27,0,0,0-.28,0l-.23.08-.22.13-.16-.22a1.51,1.51,0,0,1,.38-.21,1.36,1.36,0,0,1,.51-.09.94.94,0,0,1,.65.2A.64.64,0,0,1,58.41,133.37Z" transform="translate(0 -2.9)"/>
    <path d="M62.11,134.1a1.8,1.8,0,0,1-.17.81,1.13,1.13,0,0,1-.51.48,1.8,1.8,0,0,1-.81.17h-.77V132.7h.86a1.6,1.6,0,0,1,.75.16,1.09,1.09,0,0,1,.48.47A1.54,1.54,0,0,1,62.11,134.1Zm-.35,0a1.48,1.48,0,0,0-.12-.63.85.85,0,0,0-.38-.37,1.36,1.36,0,0,0-.6-.13h-.48v2.29h.4a1.25,1.25,0,0,0,.89-.29A1.18,1.18,0,0,0,61.76,134.11Z" transform="translate(0 -2.9)"/>
    <path d="M65.29,134.89h-.43v.67h-.32v-.67H63.16v-.27l1.36-1.93h.34v1.91h.43Zm-.75-.29v-.93a1.27,1.27,0,0,1,0-.2v-.16c0-.05,0-.1,0-.14V133h0l-.09.17a1,1,0,0,1-.09.15l-.88,1.25Z" transform="translate(0 -2.9)"/>
  </g>
  <g>
    <path d="M73.81,135.42H72.22v-2.85h1.59v.29H72.55v.92h1.19v.29H72.55v1.06h1.26Z" transform="translate(0 -2.9)"/>
    <path d="M75.87,133.67a1.29,1.29,0,0,1,.51.1.78.78,0,0,1,.33.29.82.82,0,0,1,.12.45.92.92,0,0,1-.13.51.83.83,0,0,1-.36.33,1.41,1.41,0,0,1-.57.11,1.87,1.87,0,0,1-.42,0,1,1,0,0,1-.32-.12V135a1.42,1.42,0,0,0,.35.13,1.31,1.31,0,0,0,.39.05.89.89,0,0,0,.38-.07.53.53,0,0,0,.26-.21.63.63,0,0,0,.09-.35.54.54,0,0,0-.18-.44.79.79,0,0,0-.55-.16l-.27,0-.23,0-.17-.1.11-1.34h1.42v.29H75.49l-.07.86.19,0Z" transform="translate(0 -2.9)"/>
    <path d="M78.5,135.42h-.33v-2.85h1.59v.29H78.5v1h1.18v.29H78.5Z" transform="translate(0 -2.9)"/>
    <path d="M80.79,134.2a2.74,2.74,0,0,1,0-.5,1.64,1.64,0,0,1,.12-.46,1.16,1.16,0,0,1,.23-.37,1.05,1.05,0,0,1,.37-.25,1.27,1.27,0,0,1,.54-.1h.19l.16,0v.28a.62.62,0,0,0-.16,0h-.19a.9.9,0,0,0-.57.16.89.89,0,0,0-.3.43,1.9,1.9,0,0,0-.1.61h0a.65.65,0,0,1,.15-.18,1,1,0,0,1,.23-.13,1,1,0,0,1,.31,0,.89.89,0,0,1,.44.1.81.81,0,0,1,.29.29,1.2,1.2,0,0,1,0,1,.71.71,0,0,1-.31.33,1,1,0,0,1-.48.12,1,1,0,0,1-.39-.08.7.7,0,0,1-.3-.24,1,1,0,0,1-.21-.39A2.23,2.23,0,0,1,80.79,134.2Zm1,1a.58.58,0,0,0,.43-.17.74.74,0,0,0,.16-.52.68.68,0,0,0-.14-.44.55.55,0,0,0-.43-.17.71.71,0,0,0-.34.08.67.67,0,0,0-.23.21.46.46,0,0,0-.08.25.92.92,0,0,0,.16.51.66.66,0,0,0,.19.18A.64.64,0,0,0,81.75,135.19Z" transform="translate(0 -2.9)"/>
  </g>
  <g>
    <path d="M90.81,134.06h1v1.39a3.57,3.57,0,0,1-.47.11,4,4,0,0,1-.53,0,1.49,1.49,0,0,1-.75-.18,1.14,1.14,0,0,1-.46-.51,1.73,1.73,0,0,1-.16-.78,1.68,1.68,0,0,1,.17-.77,1.28,1.28,0,0,1,.51-.52,1.66,1.66,0,0,1,.8-.18,2.15,2.15,0,0,1,.45,0,1.87,1.87,0,0,1,.4.13l-.13.29a1.8,1.8,0,0,0-.35-.12,1.74,1.74,0,0,0-.39-.05,1.11,1.11,0,0,0-.6.15.92.92,0,0,0-.38.4,1.39,1.39,0,0,0-.13.63,1.49,1.49,0,0,0,.11.62.9.9,0,0,0,.36.41,1.18,1.18,0,0,0,.63.15l.33,0,.25-.06v-.87h-.66Z" transform="translate(0 -2.9)"/>
    <path d="M93.39,135.56,94.56,133H93v-.3h1.9V133l-1.16,2.61Z" transform="translate(0 -2.9)"/>
    <path d="M98.39,135.56h-.34v-1.35h-1.5v1.35h-.33V132.7h.33v1.22h1.5V132.7h.34Z" transform="translate(0 -2.9)"/>
    <path d="M100.64,132.66a1.19,1.19,0,0,1,.44.08.64.64,0,0,1,.3.23.62.62,0,0,1,.11.37.56.56,0,0,1-.08.3.63.63,0,0,1-.2.23,1.89,1.89,0,0,1-.28.17,2.59,2.59,0,0,1,.33.19.77.77,0,0,1,.23.25.64.64,0,0,1,.09.34.69.69,0,0,1-.12.41.66.66,0,0,1-.32.27,1.22,1.22,0,0,1-.49.1,1.21,1.21,0,0,1-.52-.1.69.69,0,0,1-.32-.26.76.76,0,0,1-.11-.41.64.64,0,0,1,.09-.34.75.75,0,0,1,.22-.25,1.49,1.49,0,0,1,.3-.18,1.51,1.51,0,0,1-.26-.18.71.71,0,0,1-.19-.23.74.74,0,0,1-.07-.31.62.62,0,0,1,.11-.37.72.72,0,0,1,.31-.23A1.14,1.14,0,0,1,100.64,132.66Zm-.62,2.17a.46.46,0,0,0,.15.36.66.66,0,0,0,.47.15.65.65,0,0,0,.46-.15.44.44,0,0,0,.16-.37.43.43,0,0,0-.07-.25.65.65,0,0,0-.21-.19,1.69,1.69,0,0,0-.33-.16l-.07,0a1.39,1.39,0,0,0-.3.16.54.54,0,0,0-.19.21A.44.44,0,0,0,100,134.83Zm.62-1.9a.57.57,0,0,0-.38.11.36.36,0,0,0-.15.31.39.39,0,0,0,.08.25.55.55,0,0,0,.19.18l.27.14.27-.14a.52.52,0,0,0,.18-.18.49.49,0,0,0,.07-.25A.35.35,0,0,0,101,133,.57.57,0,0,0,100.64,132.93Z" transform="translate(0 -2.9)"/>
  </g>
</svg>
