<?xml version="1.0" encoding="utf-8"?>
<!-- Generator: Adobe Illustrator 24.1.0, SVG Export Plug-In . SVG Version: 6.00 Build 0)  -->
<svg version="1.1" id="Layer_1" xmlns="http://www.w3.org/2000/svg" xmlns:xlink="http://www.w3.org/1999/xlink" x="0px" y="0px"
	 viewBox="0 0 430 219.6" style="enable-background:new 0 0 430 219.6;" xml:space="preserve">
<style type="text/css">
	.st0{fill:#FFFFFF;}
	.st1{fill:#979797;}
	.st2{fill:#E5EBF2;}
	.st3{fill:none;stroke:#3C388D;stroke-width:0.3002;stroke-miterlimit:2.402;}
	.st4{fill:url(#SVGID_1_);}
	.st5{fill:#8F1F81;}
	.st6{fill:url(#SVGID_2_);}
	.st7{fill:url(#SVGID_3_);}
	.st8{fill:url(#SVGID_4_);}
	.st9{fill:url(#SVGID_5_);}
	.st10{fill:url(#SVGID_6_);}
	.st11{fill:url(#SVGID_7_);}
	.st12{fill:url(#SVGID_8_);}
	.st13{fill:url(#SVGID_9_);}
	.st14{fill:url(#SVGID_10_);}
	.st15{opacity:0.6;fill:#1D1D1B;enable-background:new    ;}
	.st16{fill:none;stroke:#1D1D1B;stroke-width:1.8015;stroke-miterlimit:2.402;}
	.st17{fill:none;stroke:#1D1D1B;stroke-width:0.6005;stroke-miterlimit:2.402;}
	.st18{fill:#1D1D1B;}
	.st19{fill:#003B61;}
	.st20{fill:none;stroke:#003B61;stroke-width:0.5;stroke-linecap:round;stroke-linejoin:round;stroke-dasharray:0,0.8;}
	.st21{clip-path:url(#SVGID_12_);fill:#FFFFFF;}
	.st22{clip-path:url(#SVGID_14_);fill:#0D3B5E;}
	.st23{clip-path:url(#SVGID_16_);fill:#FFFFFF;}
	.st24{clip-path:url(#SVGID_18_);fill:#FFFFFF;}
	.st25{clip-path:url(#SVGID_20_);fill:#FFFFFF;}
	.st26{clip-path:url(#SVGID_22_);fill:#0D3B5E;}
	.st27{clip-path:url(#SVGID_24_);fill:#0D3B5E;}
	.st28{clip-path:url(#SVGID_26_);fill:#0D3B5E;}
	.st29{clip-path:url(#SVGID_28_);fill:#FFFFFF;}
	.st30{clip-path:url(#SVGID_30_);fill:#0D3B5E;}
	.st31{clip-path:url(#SVGID_32_);fill:#FFFFFF;}
	.st32{clip-path:url(#SVGID_34_);fill:#FFFFFF;}
	.st33{clip-path:url(#SVGID_36_);fill:#FFFFFF;}
	.st34{fill:#0A8243;}
	.st35{clip-path:url(#SVGID_38_);fill:#FFFFFF;}
	.st36{clip-path:url(#SVGID_40_);fill:#FFFFFF;}
	.st37{clip-path:url(#SVGID_42_);fill:#FFFFFF;}
	.st38{clip-path:url(#SVGID_44_);fill:#FFFFFF;}
	.st39{clip-path:url(#SVGID_46_);fill:#FFFFFF;}
	.st40{clip-path:url(#SVGID_48_);fill:#FFFFFF;}
	.st41{clip-path:url(#SVGID_50_);fill:#FFFFFF;}
	.st42{clip-path:url(#SVGID_52_);fill:#FFFFFF;}
	.st43{clip-path:url(#SVGID_54_);fill:#FFFFFF;}
	.st44{clip-path:url(#SVGID_56_);fill:#0D3B5E;}
	.st45{clip-path:url(#SVGID_58_);fill:#FFFFFF;}
	.st46{clip-path:url(#SVGID_60_);fill:#FFFFFF;}
	.st47{clip-path:url(#SVGID_62_);fill:#FFFFFF;}
	.st48{clip-path:url(#SVGID_64_);fill:#FFFFFF;}
	.st49{clip-path:url(#SVGID_66_);fill:#FFFFFF;}
	.st50{clip-path:url(#SVGID_68_);fill:#FFFFFF;}
	.st51{clip-path:url(#SVGID_70_);fill:#FFFFFF;}
	.st52{clip-path:url(#SVGID_72_);fill:#FFFFFF;}
	.st53{clip-path:url(#SVGID_74_);fill:#FFFFFF;}
	.st54{fill:none;stroke:#003B61;stroke-width:0.5;stroke-linecap:round;stroke-linejoin:round;}
	.st55{fill:none;stroke:#003B61;stroke-width:0.5;}
	.st56{fill:#004268;}
	.st57{font-family:'OpenSans-Regular';}
	.st58{font-size:3.8281px;}
	.st59{fill:none;}
	.st60{font-size:18px;}
	.st61{letter-spacing:2;}
	.st62{font-size:5.5px;}
	.st63{letter-spacing:1;}
	.st64{clip-path:url(#SVGID_76_);fill:#C1C600;}
	.st65{clip-path:url(#SVGID_76_);fill:#003B61;}
</style>
<path class="st0" d="M0.5,3.9h150.3v211.4H0.5V3.9z"/>
<path class="st1" d="M150.3,4.1v210.2H1.2V4.1H150.3 M151.5,2.9H0v212.6h151.5V2.9z"/>
<path class="st2" d="M1.2,100h149.1v53.1H1.2V100z"/>
<path class="st0" d="M33,130.3h22.5c0.1,0,0.2,0.2,0.2,0.5v6.5c0,0.3-0.1,0.5-0.2,0.5H33c-0.1,0-0.2-0.2-0.2-0.5v-6.5
	C32.9,130.6,33,130.3,33,130.3z"/>
<path class="st0" d="M0,2.9"/>
<path class="st3" d="M0,2.9"/>
<path class="st3" d="M0,2.9"/>
<linearGradient id="SVGID_1_" gradientUnits="userSpaceOnUse" x1="1.219" y1="93.3398" x2="4.0233" y2="93.3398" gradientTransform="matrix(1 0 0 -1 0 219.8898)">
	<stop  offset="0" style="stop-color:#003B61"/>
	<stop  offset="1" style="stop-color:#0068A9"/>
</linearGradient>
<path class="st4" d="M1.2,100H4v53.1H1.2V100z"/>
<path class="st5" d="M0,2.9"/>
<linearGradient id="SVGID_2_" gradientUnits="userSpaceOnUse" x1="211.2958" y1="-751.5135" x2="585.817" y2="-751.5135" gradientTransform="matrix(0.6005 0 0 -0.6005 -65.518 -339.0339)">
	<stop  offset="0" style="stop-color:#FFFFFF;stop-opacity:0"/>
	<stop  offset="1" style="stop-color:#000000;stop-opacity:0.37"/>
</linearGradient>
<path class="st6" d="M270.4,17.6L57.7,132.2l224.9,74.7L270.4,17.6L270.4,17.6z"/>
<linearGradient id="SVGID_3_" gradientUnits="userSpaceOnUse" x1="109.1058" y1="-569.4153" x2="109.1058" y2="-569.4153" gradientTransform="matrix(0.6005 0 0 -0.6005 -65.518 -339.0339)">
	<stop  offset="0" style="stop-color:#FFFFFF;stop-opacity:0"/>
	<stop  offset="1" style="stop-color:#000000;stop-opacity:0.37"/>
</linearGradient>
<path class="st7" d="M0,2.9"/>
<linearGradient id="SVGID_4_" gradientUnits="userSpaceOnUse" x1="109.1058" y1="-569.4153" x2="109.1058" y2="-569.4153" gradientTransform="matrix(0.6005 0 0 -0.6005 -65.518 -339.0339)">
	<stop  offset="0" style="stop-color:#FFFFFF;stop-opacity:0"/>
	<stop  offset="1" style="stop-color:#000000;stop-opacity:0.37"/>
</linearGradient>
<path class="st8" d="M0,2.9"/>
<linearGradient id="SVGID_5_" gradientUnits="userSpaceOnUse" x1="109.1058" y1="-569.4153" x2="109.1058" y2="-569.4153" gradientTransform="matrix(0.6005 0 0 -0.6005 -65.518 -339.0339)">
	<stop  offset="0" style="stop-color:#FFFFFF;stop-opacity:0"/>
	<stop  offset="1" style="stop-color:#000000;stop-opacity:0.37"/>
</linearGradient>
<path class="st9" d="M0,2.9"/>
<linearGradient id="SVGID_6_" gradientUnits="userSpaceOnUse" x1="109.1058" y1="-569.4153" x2="109.1058" y2="-569.4153" gradientTransform="matrix(0.6005 0 0 -0.6005 -65.518 -339.0339)">
	<stop  offset="0" style="stop-color:#FFFFFF;stop-opacity:0"/>
	<stop  offset="1" style="stop-color:#000000;stop-opacity:0.37"/>
</linearGradient>
<path class="st10" d="M0,2.9"/>
<linearGradient id="SVGID_7_" gradientUnits="userSpaceOnUse" x1="109.1058" y1="-569.4153" x2="109.1058" y2="-569.4153" gradientTransform="matrix(0.6005 0 0 -0.6005 -65.518 -339.0339)">
	<stop  offset="0" style="stop-color:#FFFFFF;stop-opacity:0"/>
	<stop  offset="1" style="stop-color:#000000;stop-opacity:0.37"/>
</linearGradient>
<path class="st11" d="M0,2.9"/>
<linearGradient id="SVGID_8_" gradientUnits="userSpaceOnUse" x1="109.1058" y1="-569.4153" x2="109.1058" y2="-569.4153" gradientTransform="matrix(0.6005 0 0 -0.6005 -65.518 -339.0339)">
	<stop  offset="0" style="stop-color:#FFFFFF;stop-opacity:0"/>
	<stop  offset="1" style="stop-color:#000000;stop-opacity:0.37"/>
</linearGradient>
<path class="st12" d="M0,2.9"/>
<linearGradient id="SVGID_9_" gradientUnits="userSpaceOnUse" x1="109.1058" y1="-569.4153" x2="109.1058" y2="-569.4153" gradientTransform="matrix(0.6005 0 0 -0.6005 -65.518 -339.0339)">
	<stop  offset="0" style="stop-color:#FFFFFF;stop-opacity:0"/>
	<stop  offset="1" style="stop-color:#000000;stop-opacity:0.37"/>
</linearGradient>
<path class="st13" d="M0,2.9"/>
<linearGradient id="SVGID_10_" gradientUnits="userSpaceOnUse" x1="109.1058" y1="-569.4153" x2="109.1058" y2="-569.4153" gradientTransform="matrix(0.6005 0 0 -0.6005 -65.518 -339.0339)">
	<stop  offset="0" style="stop-color:#FFFFFF;stop-opacity:0"/>
	<stop  offset="1" style="stop-color:#000000;stop-opacity:0.37"/>
</linearGradient>
<path class="st14" d="M0,2.9"/>
<path class="st15" d="M18.7,43H47v0.8H18.7V43z M18.7,47.5H47v0.8H18.7V47.5z M18.7,51.9H47v0.8H18.7V51.9z M18.7,56.3H47v0.8H18.7
	V56.3z M18.7,78.8H47v0.8H18.7V78.8z M18.7,83.2h114.6V84H18.7V83.2z M18.7,87.6h114.6v0.8H18.7V87.6z M18.7,92.1h114.6v0.8H18.7
	V92.1z M96.6,43h36.7v1.1H96.6V43z M96.6,47.7h36.7v1.1H96.6V47.7z M96.6,52.4h36.7v1.1H96.6V52.4z M96.6,57.1h36.7v1.1H96.6V57.1z
	 M96.6,61.8h36.7v1.1H96.6V61.8z M18.7,167.6h108.9v0.8H18.7V167.6z M18.7,173.6h108.9v0.8H18.7V173.6z M18.7,179.6h108.9v0.8H18.7
	V179.6z M18.6,189.7h48.8v0.8H18.6V189.7z M18.7,199.7H133v0.1H18.7V199.7z"/>
<path class="st0" d="M0,2.9"/>
<path class="st0" d="M0,2.9"/>
<g>
	<g>
		<ellipse class="st0" cx="324" cy="109.2" rx="104.5" ry="104.5"/>
	</g>
</g>
<path class="st0" d="M0,2.9"/>
<g>
	<g>
		<path class="st2" d="M407.2,43H243.7c-30.4,38-30.4,92.3,0,130.4h163.5C437.6,135.4,437.6,81.1,407.2,43z"/>
	</g>
</g>
<path class="st0" d="M0,2.9"/>
<path class="st16" d="M0,2.9"/>
<path class="st16" d="M0,2.9"/>
<path class="st16" d="M0,2.9"/>
<path class="st0" d="M80.8,130.3h22.5c0.1,0,0.2,0.2,0.2,0.5v6.5c0,0.3-0.1,0.5-0.2,0.5H80.8c-0.1,0-0.2-0.2-0.2-0.5v-6.5
	C80.6,130.6,80.7,130.3,80.8,130.3z"/>
<path class="st17" d="M33,130.3h22.4c0.1,0,0.2,0.2,0.2,0.5v6.5c0,0.3-0.1,0.5-0.2,0.5H33c-0.1,0-0.2-0.2-0.2-0.5v-6.5
	C32.9,130.6,33,130.3,33,130.3z"/>
<path class="st0" d="M56.9,130.4h22.5c0.1,0,0.2,0.2,0.2,0.5v6.5c0,0.3-0.1,0.5-0.2,0.5H56.9c-0.1,0-0.2-0.2-0.2-0.5v-6.5
	C56.7,130.6,56.8,130.4,56.9,130.4z"/>
<path class="st17" d="M80.9,130.3h22.4c0.1,0,0.2,0.2,0.2,0.5v6.5c0,0.3-0.1,0.5-0.2,0.5H80.9c-0.1,0-0.2-0.2-0.2-0.5v-6.5
	C80.7,130.6,80.8,130.3,80.9,130.3z"/>
<path class="st17" d="M57,130.3h22.4c0.1,0,0.2,0.2,0.2,0.5v6.5c0,0.3-0.1,0.5-0.2,0.5H57c-0.1,0-0.2-0.2-0.2-0.5v-6.5
	C56.8,130.6,56.9,130.3,57,130.3z"/>
<g>
	<g>
		<ellipse class="st16" cx="324" cy="109.2" rx="104.5" ry="104.5"/>
	</g>
</g>
<g>
	<path class="st18" d="M125.9,22.3c-0.1,0.1-0.1,0.2-0.1,0.3c0,0.1,0.1,0.2,0.1,0.2c0-0.1,0.1-0.2,0.1-0.3
		C126.1,22.5,126,22.4,125.9,22.3"/>
	<path class="st18" d="M127.5,22.3c0.1,0.1,0.1,0.2,0.1,0.3c0,0.1-0.1,0.2-0.1,0.2c0-0.1-0.1-0.2-0.1-0.3
		C127.4,22.5,127.5,22.4,127.5,22.3"/>
	<path class="st18" d="M125,22.2c0.1,0,0.1,0,0.1-0.1s0-0.1-0.1-0.1s-0.1,0-0.1,0.1S125,22.2,125,22.2"/>
	<path class="st18" d="M125.1,22.4c0-0.1,0-0.1-0.1-0.1s-0.1,0-0.1,0.1s0,0.1,0.1,0.1S125.1,22.4,125.1,22.4"/>
	<path class="st18" d="M125.2,22.6c0-0.1,0-0.1-0.1-0.1s-0.1,0-0.1,0.1s0,0.1,0.1,0.1C125.1,22.7,125.2,22.7,125.2,22.6"/>
	<path class="st18" d="M125.6,21.7c0.1,0,0.1,0,0.1-0.1s0-0.1-0.1-0.1s-0.1,0-0.1,0.1S125.6,21.7,125.6,21.7"/>
	<path class="st18" d="M125.4,21.8c0.1,0,0.1,0,0.1-0.1s0-0.1-0.1-0.1s-0.1,0-0.1,0.1S125.3,21.8,125.4,21.8"/>
	<path class="st18" d="M125.2,22c0.1,0,0.1,0,0.1-0.1s0-0.1-0.1-0.1s-0.1,0-0.1,0.1C125.1,21.9,125.1,22,125.2,22"/>
	<path class="st18" d="M125.9,21.8c0.1,0,0.1,0,0.1-0.1s0-0.1-0.1-0.1s-0.1,0-0.1,0.1C125.8,21.7,125.8,21.8,125.9,21.8"/>
	<path class="st18" d="M126.2,21.8c0.1,0,0.1,0,0.1-0.1s0-0.1-0.1-0.1s-0.1,0-0.1,0.1S126.1,21.8,126.2,21.8"/>
	<path class="st18" d="M126.4,21.9c0.1,0,0.1,0,0.1-0.1s0-0.1-0.1-0.1s-0.1,0-0.1,0.1S126.3,21.9,126.4,21.9"/>
	<path class="st18" d="M128.3,22.1c0,0.1,0,0.1,0.1,0.1s0.1,0,0.1-0.1s0-0.1-0.1-0.1S128.3,22.1,128.3,22.1"/>
	<path class="st18" d="M128.4,22.3c-0.1,0-0.1,0-0.1,0.1s0,0.1,0.1,0.1s0.1,0,0.1-0.1S128.5,22.3,128.4,22.3"/>
	<path class="st18" d="M128.4,22.5c-0.1,0-0.1,0-0.1,0.1s0,0.1,0.1,0.1s0.1,0,0.1-0.1L128.4,22.5"/>
	<path class="st18" d="M127.8,21.7c0.1,0,0.1,0,0.1-0.1s0-0.1-0.1-0.1s-0.1,0-0.1,0.1C127.7,21.7,127.7,21.7,127.8,21.7"/>
	<path class="st18" d="M128.1,21.8c0.1,0,0.1,0,0.1-0.1s0-0.1-0.1-0.1s-0.1,0-0.1,0.1S128,21.8,128.1,21.8"/>
	<path class="st18" d="M128.3,22c0.1,0,0.1,0,0.1-0.1s0-0.1-0.1-0.1s-0.1,0-0.1,0.1C128.2,21.9,128.2,22,128.3,22"/>
	<path class="st18" d="M127.5,21.8c0.1,0,0.1,0,0.1-0.1s0-0.1-0.1-0.1s-0.1,0-0.1,0.1L127.5,21.8"/>
	<path class="st18" d="M127.3,21.8c0.1,0,0.1,0,0.1-0.1s0-0.1-0.1-0.1s-0.1,0-0.1,0.1C127.2,21.8,127.2,21.8,127.3,21.8"/>
	<path class="st18" d="M126.9,21.8c0,0.1,0,0.1,0.1,0.1s0.1,0,0.1-0.1s0-0.1-0.1-0.1L126.9,21.8"/>
	<path class="st18" d="M126.5,22.4L126.5,22.4l0.1-0.4h-0.1V22.4z"/>
	<path class="st18" d="M126.9,21.9L126.9,21.9l-0.1,0.4h0.1V21.9z"/>
	<path class="st18" d="M126.6,21.4v-0.3c-0.1,0-0.2,0.1-0.3,0.3H126.6z"/>
	<path class="st18" d="M126.8,21.4h0.3c0-0.1-0.1-0.2-0.3-0.3V21.4z"/>
	<path class="st18" d="M126.4,21.6c0,0.1,0.2,0.3,0.3,0.3c0.2,0,0.3-0.1,0.3-0.3H126.4z"/>
	<path class="st18" d="M126.9,21.1c-0.1-0.1-0.1-0.1-0.1-0.2C126.8,20.9,126.9,21,126.9,21.1l0.1-0.4c-0.1,0.1-0.2,0.1-0.2,0.2
		c0-0.1,0.1-0.2,0.1-0.3h-0.3c0.1,0.1,0.1,0.2,0.1,0.3c-0.1,0-0.2-0.1-0.2-0.2V21c0.1-0.1,0.2-0.1,0.2-0.2c0,0.1-0.1,0.2-0.1,0.2
		h0.3V21.1z"/>
	<path class="st18" d="M127.3,28.3c-0.3-0.1-0.7-0.2-1.1-0.4l0,0c0-0.1,0-0.2-0.1-0.2c-0.1-0.1-0.1-0.1-0.2-0.1h-0.1
		c-0.1,0-0.1-0.1-0.2-0.2c-0.1-0.2-0.2-0.4-0.3-0.6c0-0.1-0.1-0.2-0.1-0.4c0,0.1-0.1,0.2-0.3,0.3v-0.1c-0.1,0.1-0.1,0.1-0.3,0.1
		c0,0.1,0.1,0.3,0.1,0.4c0.1,0.3,0.3,0.6,0.5,0.8c0.1,0.1,0.1,0.1,0.2,0.2l0,0c0,0.1,0.1,0.2,0.2,0.3c0.1,0,0.2,0,0.3,0
		c0.2,0.1,0.4,0.2,0.6,0.2c0.2,0.1,0.5,0.1,0.7,0.1s0.4-0.1,0.6-0.2c0.1-0.1,0.2-0.1,0.2-0.2l0,0C127.7,28.4,127.5,28.4,127.3,28.3
		 M126.1,27.8L126.1,27.8c-0.1-0.1-0.2-0.1-0.2,0l-0.1,0.1l0,0l0,0c0.1,0.1,0.1,0.1,0.1,0.1l0,0h-0.1l0,0l0,0l0,0l0,0
		c0,0.1,0,0.1,0,0.1l0,0c0,0,0,0.1,0.1,0.1l0,0c0,0,0.1,0,0.1,0.1c-0.1,0-0.1,0-0.2,0s-0.1-0.1-0.1-0.2s0-0.2,0.1-0.3l0,0l0,0v-0.1
		h0.1l0,0l0,0c0,0,0.2-0.2,0.3-0.2C126,27.7,126,27.7,126.1,27.8L126.1,27.8C126.1,27.9,126.1,27.8,126.1,27.8 M126.3,28.5
		c-0.1,0-0.1-0.1-0.1-0.1c0-0.1,0.1-0.1,0.1-0.1c0.1,0,0.1,0.1,0.1,0.1S126.4,28.5,126.3,28.5 M126.9,28.6c-0.1,0-0.1-0.1-0.1-0.1
		c0-0.1,0.1-0.1,0.1-0.1c0.1,0,0.1,0.1,0.1,0.1C127,28.6,127,28.6,126.9,28.6"/>
	<path class="st18" d="M127.1,29.3C127,29.3,127,29.3,127.1,29.3l-0.1-0.4c-0.2,0-0.4,0-0.6-0.1v0.5c0,0,0,0-0.1,0s-0.2,0.1-0.2,0.2
		s0.1,0.2,0.1,0.3c0-0.1,0-0.1,0.1-0.1s0,0.3,0.2,0.4c0,0,0,0,0,0.1s0.1,0.2,0.2,0.2s0.2-0.1,0.2-0.2c0,0,0,0,0-0.1
		c0.2,0,0.2-0.4,0.2-0.4s0.1,0,0.1,0.1c0.1-0.1,0.1-0.2,0.1-0.3C127.3,29.4,127.2,29.3,127.1,29.3 M126.7,30.2
		C126.7,30.2,126.6,30.1,126.7,30.2c-0.1-0.1,0-0.2,0-0.2C126.8,30,126.8,30,126.7,30.2C126.8,30.1,126.8,30.2,126.7,30.2
		 M127.2,29.7C127.2,29.6,127.1,29.6,127.2,29.7c-0.2-0.1-0.2,0.3-0.3,0.3c-0.1,0-0.1,0-0.1-0.1v-0.1c0,0,0-0.1-0.1-0.1
		c0,0-0.1,0-0.1,0.1v0.1c0,0.1,0,0.1-0.1,0.1c-0.2,0-0.1-0.4-0.2-0.4c0,0-0.1,0-0.1,0.1c0-0.1,0-0.1,0-0.1c0-0.1,0.1-0.2,0.2-0.2
		c0.2,0,0.1,0.2,0.2,0.2c0,0,0.1,0,0.1-0.1s-0.1-0.1-0.1-0.2s0.1-0.2,0.2-0.3c0.1,0.1,0.2,0.2,0.2,0.3c0,0.1-0.1,0.2-0.1,0.2
		s0,0.1,0.1,0.1s0-0.2,0.2-0.2c0.1,0,0.2,0.1,0.2,0.2C127.2,29.6,127.2,29.6,127.2,29.7"/>
	<path class="st18" d="M131.7,29.8C131.7,29.8,131.7,29.7,131.7,29.8c-0.5,0.1-1.1-0.3-1.6-0.6c-0.5-0.3-0.9-0.6-1.3-0.6
		c-0.1,0-0.3,0-0.4,0.1c-0.1,0.1-0.2,0.2-0.3,0.3c-0.1,0.2-0.1,0.3-0.2,0.3c-0.1,0.1-0.1,0.2-0.1,0.3c0,0.1,0,0.1,0.1,0.2
		s0.1,0.1,0.2,0.2c0,0,0,0,0.1,0s0.1,0.1,0.2,0.1c-0.2,0.1-0.4,0.1-0.7,0.2c-0.3,0.1-0.6,0.1-1,0.1s-0.7,0-1-0.1
		c-0.3,0-0.5-0.1-0.7-0.2c0-0.1,0.1-0.1,0.2-0.2c0,0,0,0,0.1,0s0.2-0.1,0.2-0.1c0.1-0.1,0.1-0.1,0.1-0.2s0-0.2-0.1-0.3
		c-0.1-0.1-0.1-0.2-0.2-0.3c-0.1-0.2-0.2-0.3-0.3-0.3c-0.1-0.1-0.2-0.1-0.4-0.1c-0.4,0-0.8,0.3-1.3,0.6c-0.6,0.4-1.1,0.8-1.6,0.6
		c0,0,0,0-0.1,0c0,0,0,0,0,0.1c0.1,0.1,0.3,0.2,0.4,0.3c0.2,0.1,0.3,0.3,0.5,0.3s0.3-0.1,0.6-0.2c0.2-0.1,0.4-0.2,0.6-0.4
		c0.4-0.2,0.7-0.5,1.1-0.5l-0.1,0.1c-0.1,0.1-0.2,0.2-0.2,0.3c0,0.1,0,0.2,0.1,0.4c0,0,0,0.1,0.1,0.1c0,0.1,0.1,0.2,0.1,0.3v0.1
		c0,0.1,0.1,0.2,0.3,0.4c0.3,0.2,0.8,0.2,1.6,0.2s1.3-0.1,1.6-0.2c0.3-0.1,0.3-0.3,0.3-0.4s0-0.1,0-0.1c0-0.1,0-0.2,0.1-0.3
		c0-0.1,0.1-0.1,0.1-0.2c0.1-0.1,0.1-0.2,0.1-0.3c0-0.2-0.1-0.3-0.2-0.4l-0.1-0.1c0.4,0,0.7,0.3,1.1,0.5c0.2,0.1,0.4,0.3,0.6,0.4
		c0.2,0.1,0.4,0.2,0.6,0.2c0.2,0,0.3-0.1,0.5-0.3C131.4,30,131.5,29.9,131.7,29.8L131.7,29.8"/>
	<path class="st18" d="M128.9,26.1c-0.1,0-0.1-0.1-0.2-0.2c-0.1-0.1-0.3-0.6-0.3-0.6v-0.1v-0.1l0.1-0.1c0,0,0,0,0-0.1
		c-0.1-0.1-0.2-0.3-0.3-0.4c-0.1-0.2-0.3-0.3-0.4-0.4c0.1-0.1,0.2-0.1,0.2-0.3c0-0.1,0-0.1-0.1-0.2c0.1-0.3,0.3-0.7,0.4-0.8
		l-0.3-0.1c0.1,0.1,0.1,0.3,0.1,0.3c-0.1-0.1-0.1-0.1-0.2-0.2c0,0.1-0.1,0.2-0.1,0.3c0.1,0,0.2-0.1,0.2,0s-0.2,0.2-0.4,0.1
		c-0.1,0-0.2-0.1-0.2-0.2c0,0,0-0.1,0.1-0.1s0.1,0.1,0,0.1c0.1,0,0.2-0.3,0-0.3c-0.1,0-0.2,0.1-0.2,0.2c0-0.1-0.1-0.3-0.2-0.3
		s-0.1,0.3,0,0.3c0-0.1,0.1-0.1,0.1-0.1s0.1,0,0.1,0.1S127.2,23,127,23c-0.1,0-0.3,0-0.4-0.3c0.1,0,0.2,0.1,0.3,0.2
		c0-0.1,0-0.3,0-0.4c-0.1,0.1-0.2,0.1-0.3,0.2c0-0.1,0.1-0.2,0.2-0.3h-0.5c0.1,0.1,0.2,0.2,0.2,0.3c-0.1,0-0.2-0.1-0.3-0.2
		c0,0.2,0,0.3,0,0.4c0.1-0.1,0.2-0.1,0.3-0.2c0,0.2-0.2,0.3-0.4,0.3c-0.1,0-0.2,0-0.3-0.1c0-0.1,0-0.1,0.1-0.1c0,0,0.1,0,0.1,0.1
		c0-0.1,0.1-0.3,0-0.3s-0.2,0.1-0.2,0.3c0-0.1-0.1-0.3-0.2-0.2c-0.1,0,0,0.3,0,0.3v-0.1c0.1,0,0.1,0.1,0.1,0.1
		c0,0.1-0.1,0.1-0.2,0.2c-0.2,0-0.3-0.1-0.4-0.1c0.1,0,0.2,0,0.2,0c0-0.1-0.1-0.2-0.1-0.3c0,0.1-0.1,0.2-0.2,0.2
		c0-0.1,0-0.2,0.1-0.3l-0.3,0.1c0.1,0.2,0.3,0.5,0.4,0.8c-0.1,0.1-0.1,0.1-0.1,0.2s0.1,0.2,0.2,0.3c-0.2,0.1-0.3,0.2-0.4,0.4
		c-0.2,0.2-0.4,0.5-0.5,0.8c0,0,0.2,0.2,0.3,0.3c0.1,0.1,0.1,0.2,0.1,0.3c0,0.1,0,0.2,0.1,0.3c0,0,0.1,0.1,0.1,0.2h1.5V28
		c-0.1,0-0.1,0-0.2,0.1c0.2,0.1,0.3,0.1,0.5,0.2c0-0.1,0-0.2,0.1-0.2c0,0-0.2,0-0.3,0v-1.6h1.4c0,0.2,0,0.4-0.1,0.6
		s-0.2,0.4-0.3,0.6c-0.1,0.2-0.3,0.3-0.5,0.4c0,0,0,0-0.1,0l-0.1,0.1v0.1c0.1,0,0.1,0,0.2,0c0.5,0.1,0.6,0.1,0.7,0.1l0,0
		c0.1-0.1,0.2-0.2,0.3-0.3c0.2-0.2,0.4-0.5,0.5-0.8s0.2-0.6,0.2-1C128.9,26.2,128.9,26.1,128.9,26.1 M126.7,26.2h-1.5
		c0-0.2,0-0.5,0.1-0.7s0.2-0.4,0.3-0.6c0.1-0.2,0.3-0.3,0.5-0.4s0.4-0.1,0.6-0.1V26.2z M126.7,23.7c-0.5,0-0.8,0.1-1,0.3
		c-0.1-0.1-0.2-0.1-0.2-0.2c0-0.3,0.8-0.3,1.2-0.3l0,0l0,0c0.4,0,1.2,0,1.2,0.3c0,0.1,0,0.1-0.2,0.2
		C127.5,23.9,127.2,23.7,126.7,23.7 M126.8,26.2v-1.7c0.2,0,0.4,0.1,0.5,0.1c0.2,0.1,0.3,0.2,0.5,0.4c0.1,0.2,0.2,0.4,0.3,0.6
		s0.1,0.4,0.1,0.7h-1.4V26.2z"/>
	<path class="st18" d="M128,25.9C128,25.9,128,26,128,25.9c0-0.2-0.1-0.5-0.3-0.7l0,0c0,0,0.1,0,0.1-0.1h-0.1l0,0
		c-0.1-0.1-0.2-0.2-0.3-0.3c-0.1-0.1-0.2-0.1-0.3-0.2c0,0,0,0,0.1,0c0,0,0-0.1-0.1-0.1l0,0c0,0,0,0-0.1,0v0.1l0,0v0.1v-0.1v0.6h-0.1
		h0.1v0.6c0,0,0,0,0-0.1c0,0-0.1,0-0.1,0.1l0,0c0,0,0,0,0,0.1c0,0,0,0,0.1,0l0,0c0,0,0.1,0,0.1-0.1H127h0.4v0.1v-0.1h0.5
		c0,0,0,0-0.1,0c0,0,0,0.1,0.1,0.1l0,0C127.9,25.9,127.9,25.9,128,25.9C128,26,128,26,128,25.9C128,26,128,26,128,25.9
		C128.1,25.9,128,25.9,128,25.9 M127.6,25.1C127.6,25.2,127.6,25.2,127.6,25.1C127.6,25.2,127.6,25.2,127.6,25.1c0,0.1,0,0.1,0,0.1
		h0.1l0,0l0,0c0.1,0.2,0.2,0.4,0.2,0.6c0,0,0,0-0.1,0v0.1h-0.4l0,0l0,0c0,0,0,0,0-0.1c0,0,0,0,0,0.1l0,0l0,0H127c0,0,0,0,0-0.1
		c0,0,0,0-0.1,0v-0.5l0,0l0,0c0,0,0,0,0.1,0c0,0,0,0-0.1,0l0,0l0,0v-0.4c0,0,0,0,0.1,0c0,0,0,0,0-0.1c0.1,0,0.2,0.1,0.3,0.1
		C127.4,25,127.5,25,127.6,25.1"/>
	<path class="st18" d="M127.7,25.7C127.8,25.7,127.8,25.7,127.7,25.7C127.8,25.7,127.7,25.7,127.7,25.7S127.8,25.7,127.7,25.7
		C127.7,25.6,127.7,25.6,127.7,25.7c-0.1-0.1-0.2-0.1-0.2-0.2l0,0l0,0l0,0l0,0l0,0l0,0l0,0c0,0,0-0.1-0.1-0.1l0,0v-0.1
		c0,0,0,0,0-0.1c0,0,0,0.1,0,0.2s0.2,0.1,0.1,0.1l0,0l0,0l0,0l0,0l0,0l-0.1-0.1c0-0.1,0-0.1,0-0.2c0,0,0-0.1-0.1-0.2l0,0l0,0l0,0
		l0,0l0,0l0,0l0,0l0,0l0,0l0,0l0,0l0,0l0,0l0,0l0,0l0,0l0,0h0.1c0,0.1-0.1,0-0.1,0.1l0,0c0,0,0,0,0-0.1l0,0l0,0c0,0,0,0,0-0.1l0,0
		l0,0l0,0l0,0l0,0l0,0l0,0l0,0l0,0l0,0l0,0l0,0l0,0l0,0l0,0l0,0l0,0l0,0l0,0l0,0l0,0l0,0l0,0l0,0l0,0l0,0l0,0l0,0l0,0l0,0
		c0,0,0,0.1,0,0l0,0l0,0l0,0l0,0l0,0l0,0c0,0,0,0.1,0.1,0.1c0,0-0.1,0-0.1,0.1c0,0,0,0-0.1,0l0,0l0,0l0,0l0,0l0,0l0,0l0,0l0,0l0,0
		l0,0l0,0l0,0l0,0l0,0l0,0l0,0l0,0l0,0l0,0l0,0l0,0l0,0l0,0l0,0l0,0l0,0l0,0c0,0,0,0,0.1,0l0,0l0,0l0,0c0,0.1,0.1,0.1,0.1,0.1h-0.1
		c0,0-0.1,0-0.1,0.1c0,0,0,0.1,0.1,0.1c0,0,0,0-0.1,0l0,0c0,0,0,0-0.1,0l0,0l0,0l0,0l0,0l0,0l0,0l0,0l0,0l0,0l0,0l0,0l0,0l0,0l0,0
		l0,0l0,0l0,0l0,0l0,0l0,0l0,0l0,0l0,0l0,0l0,0l0,0l0,0l0,0l0,0l0,0l0,0l0,0c0,0,0,0,0-0.1l0.1-0.1c0,0,0,0.1,0.1,0.1
		C127.6,25.8,127.7,25.7,127.7,25.7L127.7,25.7C127.7,25.7,127.7,25.8,127.7,25.7C127.6,25.7,127.6,25.7,127.7,25.7L127.7,25.7
		L127.7,25.7L127.7,25.7L127.7,25.7C127.6,25.8,127.6,25.8,127.7,25.7C127.6,25.8,127.7,25.8,127.7,25.7c-0.1,0.1-0.1,0.1-0.1,0.1
		l0,0l0,0l0,0l0,0C127.7,25.9,127.7,25.8,127.7,25.7C127.7,25.8,127.7,25.8,127.7,25.7c0,0.1-0.1,0.1,0,0.1l0,0l0,0l0,0l0,0
		C127.7,25.8,127.7,25.8,127.7,25.7C127.7,25.8,127.7,25.8,127.7,25.7C127.7,25.8,127.7,25.8,127.7,25.7
		C127.8,25.8,127.8,25.8,127.7,25.7C127.8,25.8,127.7,25.7,127.7,25.7L127.7,25.7z"/>
	<path class="st18" d="M126.5,26.6L126.5,26.6L126.5,26.6c0-0.1-0.1-0.2-0.2-0.2s-0.2,0.1-0.5,0.1c-0.1,0-0.2,0-0.3-0.1v0.1l0,0
		c0,0,0-0.1-0.1-0.1c0,0-0.1,0-0.1,0.1c0,0,0,0.1,0.1,0.1l0,0v0.1l0,0c0,0.3,0.2,0.8,0.7,0.9c0.1,0,0.1,0,0.1,0.1c0,0,0,0.1-0.1,0.1
		l0,0h0.1l0,0c0,0-0.1,0-0.1,0.1s0,0.1,0.1,0.1c0,0,0.2,0,0.1-0.1h0.1v-0.1l0,0L126.5,26.6L126.5,26.6
		C126.5,26.6,126.6,26.6,126.5,26.6C126.6,26.6,126.5,26.6,126.5,26.6 M125.7,26.6l0.5,0.8C126,27.3,125.7,27,125.7,26.6
		 M126.3,27.3l-0.5-0.7l0,0h0.1l0.4,0.6V27.3 M126.3,27.1l-0.3-0.5h0.1l0.3,0.4C126.3,27,126.3,27,126.3,27.1 M126.4,26.5
		L126.4,26.5C126.3,26.5,126.3,26.6,126.4,26.5C126.3,26.6,126.3,26.6,126.4,26.5L126.4,26.5c0,0.1,0,0.1,0,0.1s0,0.1,0,0.2
		l-0.2-0.3C126.2,26.5,126.3,26.5,126.4,26.5L126.4,26.5"/>
	<path class="st18" d="M126.4,25c0.1,0,0.2,0,0.2-0.1s-0.3,0-0.3-0.1l0,0l0,0c0.1,0,0.1-0.1,0.3-0.1c-0.1,0-0.1,0.1-0.2,0.1
		c0,0,0,0,0-0.1c0,0-0.1,0-0.1,0.1l0,0l0,0c0,0.1,0.3,0,0.3,0.1C126.6,24.9,126.5,25,126.4,25s-0.1-0.1-0.2,0v-0.1l0,0l0,0l0,0l0,0
		l0,0l0,0l0,0l0,0l0,0l0,0l0,0l0,0l0,0l0,0V25l0,0l0,0l0,0l0,0l0,0l0,0l0,0l0,0l0,0l0,0l0,0l0,0l0,0l0,0l0,0l0,0l0,0l0,0l0,0l0,0
		l0,0l0,0l0,0l0,0l0,0l0,0l0,0l0,0l0,0l0,0l0,0l0,0l0,0l0,0l0,0l0,0l0,0l0,0l0,0l0,0l0,0l0,0l0,0h-0.1c0,0,0,0-0.1,0h-0.1l0,0l0,0
		l0,0l0,0l0,0l0,0l0,0l0,0l0,0l0,0l0,0l0,0l0,0l0,0l0,0l0,0l0,0l0,0l0,0l0,0l0,0l0,0l0,0l0,0l0,0l0,0l0,0l0,0l0,0l0,0l0,0l0,0l0,0
		l0,0l0,0l0,0l0,0l0,0l0,0l0,0l0,0l0,0l0,0l0,0l0,0l0,0h0.1c0.1,0,0-0.1,0.1,0l0,0v0.1l0,0l0,0l0,0c0,0,0,0-0.1,0l0,0l0,0l0,0l0,0
		l0,0l0,0l0,0l0,0l0,0l0,0l0,0l0,0l0,0l0,0l0,0l0,0l0,0l0,0l0,0l0,0l0,0l0,0l0,0l0,0l0,0l0,0l0,0l0,0
		C126.4,25.1,126.4,25.1,126.4,25C126.4,25.1,126.4,25.1,126.4,25C126.4,25.1,126.4,25.1,126.4,25C126.5,25.1,126.4,25.1,126.4,25
		C126.5,25,126.5,25,126.4,25C126.5,25,126.5,25,126.4,25C126.5,25.1,126.5,25.1,126.4,25C126.5,25.1,126.5,25.1,126.4,25
		C126.5,25.1,126.5,25.1,126.4,25c0,0.1,0,0.1,0,0.1l0,0l0,0l0,0l0,0l0,0l0,0l0,0l0,0l0,0l0,0l0,0l0,0l0,0l0,0l0,0l0,0l0,0l0,0l0,0
		l0,0l0,0l0,0l0,0l0,0l0,0C126.5,25,126.5,25,126.4,25C126.5,25,126.5,25,126.4,25L126.4,25 M126.1,24.9L126.1,24.9L126.1,24.9
		 M126.2,24.9L126.2,24.9L126.2,24.9L126.2,24.9 M126.2,24.8C126.2,24.8,126.1,24.9,126.2,24.8C126.1,24.8,126.1,24.8,126.2,24.8
		C126.1,24.8,126.2,24.8,126.2,24.8 M126.1,24.9L126.1,24.9L126.1,24.9L126.1,24.9L126.1,24.9L126.1,24.9L126.1,24.9L126.1,24.9
		L126.1,24.9C126.2,24.9,126.2,24.9,126.1,24.9C126.2,24.9,126.2,24.9,126.1,24.9C126.2,24.9,126.2,24.9,126.1,24.9
		C126.2,24.9,126.2,24.9,126.1,24.9C126.2,24.9,126.2,24.9,126.1,24.9L126.1,24.9C126.2,24.9,126.2,24.9,126.1,24.9L126.1,24.9
		L126.1,24.9"/>
	<path class="st18" d="M126.6,25.4c0,0,0-0.1-0.1-0.1s-0.3,0-0.3,0s0,0,0.1,0l0,0C126.4,25.3,126.5,25.3,126.6,25.4
		c-0.1-0.2-0.2-0.1-0.3-0.1c0.1,0,0.1,0,0.1,0s-0.1,0-0.2,0l0,0c-0.1,0-0.1,0-0.1,0c0,0.1,0.3,0,0.4,0
		C126.5,25.4,126.5,25.4,126.6,25.4c0,0-0.1,0-0.2,0s-0.3,0-0.4,0v-0.1l0,0l0,0l0,0l0,0l0,0l0,0l0,0l0,0l0,0l0,0l0,0l0,0l0,0l0,0
		l0,0l0,0l0,0l0,0l0,0l0,0l0,0l0,0c0,0,0,0,0-0.1l0,0l0,0l0,0l0,0l0,0l0,0l0,0l0,0l0,0l0,0l0,0l0,0l0,0l0,0l0,0l0,0l0,0l0,0l0,0l0,0
		l0,0l0,0l0,0l0,0l0,0l0,0l0,0l0,0l0,0l0,0l0,0c0,0,0,0.1,0,0l0,0l0,0l0,0l0,0l0,0l0,0l0,0l0,0l0,0h-0.1h-0.1l0,0l0,0l0,0l0,0l0,0
		l0,0l0,0l0,0l0,0l0,0l0,0l0,0l0,0l0,0l0,0l0,0l0,0l0,0l0,0l0,0l0,0l0,0l0,0l0,0l0,0l0,0l0,0l0,0l0,0l0,0l0,0l0,0l0,0l0,0l0,0l0,0
		l0,0l0,0l0,0c0,0,0,0,0.1,0l0,0l0,0c0,0,0.1,0,0.1-0.1l0,0c0.1,0,0-0.1,0.2-0.1l0,0v0.1l0,0l0,0l0,0c0,0,0,0-0.1,0l0,0l0,0l0,0l0,0
		l0,0l0,0l0,0l0,0l0,0l0,0l0,0l0,0l0,0l0,0l0,0l0,0l0,0l0,0l0,0l0,0l0,0l0,0l0,0l0,0l0,0l0,0l0,0l0,0c0,0,0,0,0-0.1l0,0
		c0,0,0,0,0.1,0h0.1C126.5,25.5,126.5,25.5,126.6,25.4c-0.1,0.1-0.1,0.1-0.1,0.1l0,0l0,0l0,0l0,0l0,0l0,0l0,0l0,0l0,0l0,0l0,0l0,0
		l0,0l0,0l0,0l0,0l0,0l0,0l0,0l0,0l0,0l0,0l0,0l0,0l0,0l0,0l0,0C126.6,25.5,126.6,25.5,126.6,25.4C126.6,25.5,126.6,25.5,126.6,25.4
		C126.6,25.5,126.5,25.5,126.6,25.4C126.5,25.5,126.5,25.4,126.6,25.4c-0.1,0.1-0.1,0.1-0.2,0.1C126.5,25.4,126.6,25.4,126.6,25.4
		 M125.8,25.4L125.8,25.4L125.8,25.4 M125.9,25.3C125.9,25.3,126,25.3,125.9,25.3C125.9,25.3,126,25.3,125.9,25.3L125.9,25.3
		 M125.9,25.3L125.9,25.3L125.9,25.3L125.9,25.3 M125.9,25.4C125.9,25.4,125.9,25.3,125.9,25.4C125.9,25.3,125.9,25.3,125.9,25.4
		C125.9,25.3,125.9,25.3,125.9,25.4C125.9,25.3,125.9,25.3,125.9,25.4C125.9,25.3,125.9,25.3,125.9,25.4
		C125.9,25.3,125.9,25.3,125.9,25.4C125.9,25.3,125.9,25.3,125.9,25.4L125.9,25.4C125.9,25.3,125.9,25.3,125.9,25.4
		C125.9,25.3,125.9,25.3,125.9,25.4C125.9,25.3,125.9,25.3,125.9,25.4C125.9,25.3,125.9,25.3,125.9,25.4
		C125.9,25.3,125.9,25.3,125.9,25.4C125.9,25.3,125.9,25.4,125.9,25.4L125.9,25.4L125.9,25.4L125.9,25.4 M125.9,25.5L125.9,25.5
		C126,25.5,125.9,25.5,125.9,25.5"/>
	<path class="st18" d="M126.5,25.8C126.5,25.8,126.5,25.8,126.5,25.8c-0.2,0-0.5,0-0.5,0s0.1,0,0.2,0l0,0
		C126.3,25.8,126.5,25.7,126.5,25.8c-0.1-0.2-0.1-0.1-0.2-0.1c0.1,0,0.1,0,0.1,0h-0.2l0,0c-0.1,0-0.2,0-0.2,0c0,0.1,0.3,0,0.4,0
		C126.5,25.8,126.5,25.8,126.5,25.8s-0.1,0-0.2,0s-0.4,0-0.5,0v-0.1l0,0l0,0l0,0l0,0l0,0l0,0l0,0l0,0l0,0l0,0l0,0l0,0l0,0l0,0l0,0
		l0,0l0,0l0,0c0,0,0,0-0.1,0l0,0l0,0l0,0l0,0l0,0l0,0l0,0l0,0l0,0l0,0l0,0l0,0l0,0l0,0l0,0l0,0l0,0l0,0l0,0l0,0l0,0l0,0l0,0l0,0l0,0
		l0,0l0,0l0,0l0,0l0,0l0,0l0,0l0,0c0,0,0,0.1,0,0l0,0l0,0l0,0l0,0l0,0l0,0c0,0,0,0,0.1,0.1l0,0l0,0l0,0h-0.1h-0.1l0,0l0,0l0,0l0,0
		l0,0l0,0l0,0l0,0l0,0l0,0l0,0l0,0l0,0l0,0l0,0l0,0l0,0l0,0l0,0l0,0l0,0l0,0l0,0l0,0l0,0l0,0l0,0l0,0l0,0l0,0l0,0l0,0l0,0l0,0l0,0
		l0,0l0,0l0,0l0,0h0.1l0,0l0,0l0,0l0,0l0,0l0,0l0,0l0,0l0,0c0.2,0,0.1-0.1,0.3-0.1l0,0c0,0,0,0,0,0.1l0,0l0,0l0,0c0,0,0,0-0.1,0l0,0
		l0,0l0,0l0,0l0,0l0,0l0,0l0,0l0,0l0,0l0,0l0,0l0,0l0,0l0,0l0,0l0,0l0,0l0,0l0,0l0,0l0,0l0,0l0,0l0,0l0,0l0,0l0,0l0,0l0,0
		c0,0,0,0,0.1,0h0.1C126.4,25.9,126.4,25.9,126.5,25.8c-0.1,0.1-0.1,0.1-0.1,0.1l0,0l0,0l0,0l0,0l0,0l0,0l0,0l0,0l0,0l0,0l0,0l0,0
		l0,0l0,0l0,0l0,0l0,0l0,0l0,0l0,0l0,0l0,0l0,0l0,0l0,0C126.5,26,126.5,25.9,126.5,25.8C126.5,25.9,126.5,25.9,126.5,25.8
		C126.5,25.9,126.5,25.9,126.5,25.8C126.5,25.9,126.5,25.9,126.5,25.8C126.5,25.9,126.5,25.9,126.5,25.8c-0.1,0.1-0.1,0.1-0.2,0.1
		C126.4,25.9,126.5,25.9,126.5,25.8 M125.8,25.8L125.8,25.8L125.8,25.8L125.8,25.8 M125.8,25.7C125.8,25.7,125.8,25.8,125.8,25.7
		L125.8,25.7L125.8,25.7 M125.7,25.8C125.7,25.8,125.8,25.8,125.7,25.8C125.8,25.8,125.8,25.8,125.7,25.8
		C125.8,25.8,125.8,25.8,125.7,25.8C125.8,25.8,125.8,25.8,125.7,25.8C125.8,25.8,125.8,25.8,125.7,25.8
		C125.8,25.8,125.8,25.8,125.7,25.8C125.8,25.8,125.8,25.8,125.7,25.8L125.7,25.8C125.8,25.8,125.8,25.8,125.7,25.8
		C125.8,25.8,125.8,25.8,125.7,25.8C125.8,25.8,125.8,25.8,125.7,25.8C125.8,25.8,125.8,25.8,125.7,25.8
		C125.8,25.8,125.8,25.8,125.7,25.8C125.8,25.8,125.8,25.8,125.7,25.8C125.8,25.8,125.8,25.8,125.7,25.8
		C125.8,25.8,125.8,25.8,125.7,25.8L125.7,25.8"/>
	<path class="st18" d="M127.9,26.6L127.9,26.6L127.9,26.6L127.9,26.6C127.9,26.6,127.9,26.5,127.9,26.6
		C127.8,26.6,127.8,26.6,127.9,26.6L127.9,26.6C127.8,26.5,127.9,26.5,127.9,26.6c0-0.1,0-0.1-0.1-0.1s-0.4,0-0.4,0s0.1,0,0.2,0l0,0
		c0.1,0,0.3-0.1,0.3,0c-0.1,0-0.2,0-0.3,0c0.1,0,0.1,0,0.1,0h-0.2l0,0c-0.1,0-0.2,0-0.2,0c0,0.1,0.3,0,0.4,0s0.1,0,0.1,0h-0.1
		c-0.1,0-0.4,0-0.5,0v-0.1l0,0l0,0l0,0l0,0l0,0l0,0l0,0l0,0l0,0l0,0l0,0l0,0l0,0l0,0l0,0l0,0l0,0l0,0c0,0,0,0-0.1,0l0,0l0,0l0,0l0,0
		l0,0l0,0l0,0l0,0l0,0l0,0l0,0l0,0l0,0l0,0l0,0l0,0l0,0l0,0l0,0l0,0l0,0l0,0l0,0l0,0l0,0l0,0l0,0l0,0l0,0l0,0l0,0l0,0l0,0
		c0,0,0,0.1,0,0l0,0l0,0l0,0l0,0l0,0l0,0c0,0,0,0,0.1,0.1l0,0l0,0l0,0l0,0c0,0,0,0-0.1,0H127l0,0l0,0l0,0l0,0l0,0l0,0l0,0l0,0l0,0
		l0,0l0,0l0,0l0,0l0,0l0,0l0,0l0,0l0,0l0,0l0,0l0,0l0,0l0,0l0,0l0,0l0,0l0,0l0,0l0,0l0,0l0,0l0,0l0,0l0,0l0,0l0,0l0,0l0,0l0,0
		c0,0,0,0,0.1,0l0,0l0,0l0,0l0,0l0,0c0.2,0,0.1-0.1,0.3-0.1l0,0v0.1l0,0l0,0l0,0c0,0,0,0-0.1,0l0,0l0,0l0,0l0,0l0,0l0,0l0,0l0,0l0,0
		l0,0l0,0l0,0l0,0l0,0l0,0l0,0l0,0l0,0l0,0l0,0l0,0l0,0l0,0l0,0l0,0l0,0l0,0l0,0l0,0l0,0c0,0,0,0,0.1,0h0.1
		C127.8,26.6,127.9,26.6,127.9,26.6L127.9,26.6L127.9,26.6C127.9,26.6,127.8,26.6,127.9,26.6C127.8,26.6,127.8,26.6,127.9,26.6
		L127.9,26.6L127.9,26.6L127.9,26.6C127.8,26.7,127.8,26.7,127.9,26.6C127.8,26.7,127.8,26.7,127.9,26.6c-0.1,0.1-0.1,0.1-0.1,0.1
		l0,0l0,0l0,0l0,0C127.9,26.7,127.9,26.7,127.9,26.6C127.9,26.7,127.9,26.7,127.9,26.6c0,0.1-0.1,0.1,0,0.1l0,0l0,0l0,0l0,0
		C127.9,26.7,127.9,26.7,127.9,26.6C127.9,26.7,127.9,26.7,127.9,26.6L127.9,26.6L127.9,26.6L127.9,26.6L127.9,26.6L127.9,26.6
		 M127.2,26.4L127.2,26.4L127.2,26.4L127.2,26.4 M127.2,26.4L127.2,26.4L127.2,26.4L127.2,26.4 M127.2,26.5L127.2,26.5L127.2,26.5
		C127.2,26.4,127.2,26.4,127.2,26.5C127.2,26.4,127.2,26.4,127.2,26.5C127.2,26.4,127.2,26.4,127.2,26.5
		C127.2,26.4,127.2,26.4,127.2,26.5C127.2,26.4,127.2,26.4,127.2,26.5L127.2,26.5C127.2,26.4,127.2,26.4,127.2,26.5
		C127.2,26.4,127.2,26.5,127.2,26.5S127.2,26.4,127.2,26.5C127.2,26.4,127.2,26.4,127.2,26.5C127.2,26.5,127.2,26.4,127.2,26.5
		L127.2,26.5L127.2,26.5L127.2,26.5C127.1,26.5,127.2,26.5,127.2,26.5 M127.1,26.4L127.1,26.4L127.1,26.4z M127.1,26.4L127.1,26.4
		L127.1,26.4 M127.3,26.6L127.3,26.6L127.3,26.6"/>
	<path class="st18" d="M127.5,26.8L127.5,26.8c0.1,0.1,0.3,0,0.4,0c-0.1,0-0.2,0-0.2,0c0.1,0,0.1,0,0.1,0
		C127.7,26.8,127.5,26.8,127.5,26.8L127.5,26.8C127.4,26.8,127.4,26.8,127.5,26.8c-0.1,0.1,0.2,0,0.2,0c0.1,0,0.1,0,0.1,0h-0.1
		c-0.1,0-0.3,0-0.4,0c0,0,0,0,0-0.1l0,0l0,0l0,0l0,0l0,0l0,0l0,0l0,0l0,0l0,0l0,0l0,0l0,0l0,0l0,0l0,0l0,0l0,0l0,0l0,0l0,0l0,0l0,0
		l0,0l0,0l0,0l0,0l0,0l0,0l0,0l0,0l0,0l0,0l0,0l0,0l0,0l0,0l0,0l0,0l0,0l0,0l0,0l0,0l0,0l0,0l0,0l0,0l0,0l0,0l0,0l0,0c0,0,0,0.1,0,0
		l0,0l0,0l0,0l0,0l0,0l0,0l0,0l0,0l0,0l0,0c0,0,0,0-0.1,0h-0.1l0,0l0,0l0,0l0,0l0,0l0,0l0,0l0,0l0,0l0,0l0,0l0,0l0,0l0,0l0,0l0,0
		l0,0l0,0l0,0l0,0l0,0l0,0l0,0l0,0l0,0l0,0l0,0l0,0l0,0l0,0l0,0l0,0l0,0l0,0l0,0l0,0l0,0l0,0l0,0c0,0,0,0,0.1,0l0,0l0,0h0.1l0,0l0,0
		l0,0c0.1,0,0-0.1,0.2,0l0,0V26.8L127.5,26.8L127.5,26.8L127.5,26.8C127.5,26.8,127.5,26.8,127.5,26.8L127.5,26.8L127.5,26.8
		L127.5,26.8L127.5,26.8L127.5,26.8L127.5,26.8L127.5,26.8L127.5,26.8L127.5,26.8L127.5,26.8L127.5,26.8L127.5,26.8L127.5,26.8
		L127.5,26.8L127.5,26.8L127.5,26.8L127.5,26.8L127.5,26.8L127.5,26.8L127.5,26.8L127.5,26.8L127.5,26.8L127.5,26.8L127.5,26.8
		L127.5,26.8L127.5,26.8L127.5,26.8L127.5,26.8L127.5,26.8L127.5,26.8C127.4,26.8,127.4,26.8,127.5,26.8L127.5,26.8
		c0.1,0,0.1,0,0.2,0l0,0l0,0l0,0l0,0l0,0l0,0l0,0l0,0l0,0l0,0l0,0l0,0l0,0l0,0l0,0l0,0l0,0l0,0l0,0l0,0l0,0l0,0l0,0l0,0l0,0l0,0l0,0
		l0,0l0,0l0,0l0,0l0,0H127.5L127.5,26.8c0.2,0,0.3,0,0.3,0s0,0-0.1,0C127.6,26.9,127.4,26.9,127.5,26.8
		C127.4,26.8,127.4,26.8,127.5,26.8 M127.2,26.8L127.2,26.8C127.1,26.8,127.2,26.8,127.2,26.8L127.2,26.8 M127.2,26.9L127.2,26.9
		L127.2,26.9L127.2,26.9L127.2,26.9L127.2,26.9L127.2,26.9C127.1,26.9,127.1,26.9,127.2,26.9C127.1,26.9,127.1,26.9,127.2,26.9
		L127.2,26.9L127.2,26.9L127.2,26.9C127.2,26.9,127.1,26.9,127.2,26.9C127.1,26.9,127.2,26.9,127.2,26.9L127.2,26.9L127.2,26.9
		L127.2,26.9L127.2,26.9 M127.2,26.9L127.2,26.9C127.2,26.8,127.2,26.9,127.2,26.9L127.2,26.9"/>
	<path class="st18" d="M127.4,27.3L127.4,27.3c0.1,0,0.3,0,0.4,0c-0.1,0-0.2,0-0.2,0c0.1,0,0.1,0,0.1,0
		C127.6,27.3,127.4,27.2,127.4,27.3C127.4,27.2,127.4,27.2,127.4,27.3C127.3,27.3,127.3,27.3,127.4,27.3c-0.1,0.1,0.2,0.1,0.2,0.1
		h-0.1c-0.1,0-0.2,0-0.3,0l0,0v-0.1l0,0l0,0l0,0l0,0l0,0l0,0l0,0l0,0l0,0l0,0l0,0l0,0l0,0l0,0v0.1c0,0,0-0.1-0.1-0.1l0,0l0,0l0,0
		l0,0l0,0l0,0l0,0l0,0l0,0l0,0l0,0l0,0l0,0l0,0l0,0l0,0l0,0l0,0l0,0l0,0l0,0l0,0l0,0l0,0l0,0l0,0l0,0l0,0l0,0l0,0l0,0l0,0l0,0
		c0,0,0,0.1,0,0l0,0l0,0l0,0l0,0l0,0l0,0c0,0,0,0,0,0.1l0,0l0,0c0,0,0,0-0.1,0l0,0l0,0l0,0l0,0l0,0l0,0l0,0l0,0l0,0l0,0l0,0l0,0l0,0
		l0,0l0,0l0,0l0,0l0,0l0,0l0,0l0,0l0,0l0,0l0,0l0,0l0,0l0,0l0,0l0,0l0,0l0,0l0,0l0,0l0,0l0,0l0,0l0,0l0,0l0,0l0,0l0,0l0,0l0,0l0,0
		l0,0l0,0l0,0c0,0,0,0,0-0.1l0,0c0,0,0,0,0.1,0l0,0l0,0l0,0l0,0c0,0,0,0-0.1,0l0,0l0,0l0,0l0,0l0,0l0,0l0,0l0,0l0,0l0,0l0,0l0,0l0,0
		l0,0l0,0l0,0l0,0l0,0l0,0l0,0l0,0l0,0l0,0l0,0l0,0l0,0l0,0l0,0l0,0v-0.1h0.1l0,0l0,0l0,0l0,0l0,0l0,0l0,0l0,0l0,0l0,0l0,0l0,0l0,0
		l0,0l0,0l0,0l0,0l0,0l0,0l0,0l0,0l0,0l0,0l0,0l0,0l0,0l0,0l0,0l0,0l0,0l0,0l0,0l0,0l0,0l0,0l0,0l0,0c0,0,0,0-0.1,0l0,0
		c0.1,0,0.2,0,0.2-0.1C127.6,27.3,127.3,27.4,127.4,27.3C127.3,27.3,127.4,27.3,127.4,27.3 M127.2,27.3L127.2,27.3L127.2,27.3
		L127.2,27.3 M127.1,27.3L127.1,27.3L127.1,27.3L127.1,27.3 M127.1,27.3L127.1,27.3L127.1,27.3L127.1,27.3L127.1,27.3L127.1,27.3
		L127.1,27.3L127.1,27.3L127.1,27.3C127.2,27.3,127.2,27.3,127.1,27.3C127.2,27.3,127.2,27.3,127.1,27.3
		C127.2,27.3,127.2,27.3,127.1,27.3L127.1,27.3L127.1,27.3L127.1,27.3L127.1,27.3C127.1,27.4,127.1,27.4,127.1,27.3
		C127.1,27.4,127.1,27.3,127.1,27.3"/>
	<path class="st19" d="M122.3,21.8L122.3,21.8c-0.1-0.1-0.2,0-0.2,0C122.2,21.9,122.2,21.9,122.3,21.8
		C122.3,21.9,122.3,21.9,122.3,21.8"/>
	<path class="st19" d="M122.3,21.6L122.3,21.6c-0.1-0.1-0.2,0-0.2,0C122.2,21.7,122.2,21.7,122.3,21.6
		C122.3,21.7,122.3,21.7,122.3,21.6"/>
	<path class="st19" d="M122.4,21.6C122.4,21.6,122.4,21.5,122.4,21.6c0.1-0.1,0-0.2,0-0.2C122.3,21.4,122.3,21.4,122.4,21.6
		C122.3,21.5,122.3,21.6,122.4,21.6"/>
	<path class="st19" d="M122.6,21.5L122.6,21.5c0.1-0.1,0-0.2,0-0.2C122.5,21.4,122.5,21.4,122.6,21.5
		C122.5,21.5,122.5,21.5,122.6,21.5"/>
	<path class="st18" d="M123.4,21.4L123.4,21.4l0.1-0.1h-0.1V21.4"/>
	<path class="st18" d="M123.4,21.2v-0.1h-0.1L123.4,21.2C123.3,21.3,123.4,21.3,123.4,21.2"/>
	<path class="st18" d="M123.2,21.2v-0.1h-0.1L123.2,21.2L123.2,21.2"/>
	<path class="st18" d="M123,21.3v-0.1h-0.1L123,21.3C123,21.4,123,21.4,123,21.3"/>
	<path class="st18" d="M122.5,21.2l0.1,0.1l0.1-0.1l0,0c0,0,0,0.1,0,0.2s0,0.1,0.1,0.1s0.1,0,0.1-0.1c0,0,0-0.1-0.1-0.1l-0.1-0.1
		l0,0h0.1l-0.1-0.1L122.5,21.2L122.5,21.2l0.1-0.1h-0.1V21.2L122.5,21.2L122.5,21.2z"/>
	<path class="st18" d="M123.4,21.5v0.1V21.5v0.2c0,0,0-0.1,0.1-0.1c0,0.1-0.1,0.2-0.1,0.2s-0.1,0-0.1-0.1s0-0.1,0.1,0
		c0-0.1-0.1-0.1-0.1-0.1c0-0.1,0-0.2-0.1-0.2c-0.1,0.1,0,0.2,0,0.2c-0.1,0-0.1,0-0.1,0.1c0-0.1,0.1-0.1,0.1,0c0,0,0,0.1-0.1,0.1
		s-0.1,0-0.2-0.1h0.1l-0.1-0.2c0,0.1-0.1,0.1-0.1,0.1c0-0.1,0-0.2,0-0.2l-0.2,0.1c0,0,0.1,0,0.1,0.1h-0.1l0.1,0.2
		c0-0.1,0.1-0.1,0.1-0.1c0,0.1,0,0.1-0.1,0.2c-0.1,0-0.1,0-0.2,0c0,0,0-0.1,0.1-0.1c0-0.1-0.1-0.1-0.1,0c0-0.1,0-0.2-0.1-0.2
		c0,0.1,0,0.2,0.1,0.2c-0.1,0-0.1,0.1,0,0.1c0-0.1,0.1-0.1,0.1,0V22c0,0-0.1,0-0.2-0.1h0.1l-0.1-0.1v0.1v-0.1l-0.1,0.1
		c0.1,0,0.2,0.1,0.3,0.3c0.1-0.1,0.3-0.2,0.5-0.2c0.1-0.1,0.4-0.1,0.5-0.2c0-0.2,0-0.3,0-0.4L123.4,21.5z"/>
	<path class="st18" d="M125.1,26.3c0-0.1-0.1-0.2-0.1-0.3c0-0.1,0-0.2-0.1-0.4c-0.1-0.2-0.6-0.6-0.7-0.8c0,0,0.1,0,0.2,0.1
		c0,0,0.1,0.1,0.2,0.2c0.1-0.3,0.3-0.5,0.5-0.8l0.1-0.1c-0.1,0-0.2,0-0.3,0.1c0-0.1,0-0.2-0.1-0.3c0-0.2,0-0.4-0.4-0.7
		c0.2,0.1,0.3,0.2,0.5,0.1c-0.1,0-0.1-0.3-0.7-0.6c0.2,0,0.4,0.3,0.6,0.1c-0.2,0-0.3-0.4-0.7-0.5c0.1,0,0.3,0.1,0.4-0.1
		c-0.1,0-0.2-0.1-0.4-0.1c0.1-0.2,0-0.3,0-0.4c-0.1,0-0.2,0-0.3,0.1c0-0.1-0.1-0.1-0.2-0.1v0.1c-0.1,0-0.3,0.1-0.5,0.1
		c-0.2,0.1-0.4,0.2-0.4,0.2s-0.1,0-0.1-0.1c-0.1,0.1-0.1,0.1-0.1,0.2c-0.1,0-0.2,0-0.3,0.1c0,0.1,0.1,0.2,0.2,0.3
		c-0.2,0.2,0,0.5-0.2,0.7c0.3,0,0.2-0.4,0.4-0.5c0,0.3-0.2,0.3-0.2,0.7c0,0.2,0.1,0.4,0,0.5c0.3-0.1,0.2-0.6,0.3-0.8
		c0,0.1,0,0.2,0,0.3c-0.1,0.3,0,0.6-0.1,0.7c0.3,0,0.3-0.4,0.5-0.6c-0.2,0.4-0.4,1.2-0.6,1.6c-0.4,0.6-0.7,1.3-1.1,1.3
		c-0.2,0-0.3-0.1-0.3-0.3c0-0.7,1.2-1.1,1.2-1.9c0-0.3-0.3-0.4-0.4-0.4s-0.2,0.1-0.4,0.1h-0.1c-0.4,0-0.3,0.7-0.7,0.7
		c0.1,0.1,0.4-0.1,0.5-0.3c-0.1,0.5-0.7,0.4-0.7,0.9c0.1-0.4,1.2-0.4,1.2-1.1c0-0.1,0-0.1-0.1-0.2c0.1-0.1,0.2-0.1,0.2-0.1
		c0.1,0,0.3,0.1,0.3,0.3c0,0.6-1.2,1.1-1.2,1.9c0,0.1,0,0.2,0.1,0.3c-0.1,0-0.2,0-0.2-0.1c0,0.2,0.3,0.3,0.4,0.2h0.1
		c-0.1,0.1-0.2,0.2-0.3,0.2c0.3,0.2,0.8-0.1,0.7-0.3c0.2-0.2,0.4-0.5,0.5-0.7v0.1c-0.2,0.3-0.3,0.6-0.4,1c0,0.3-0.2,0.6-0.4,0.6
		c-0.1,0-0.1-0.1-0.2,0s0,0.1,0,0.2s-0.2,0.2-0.2,0.5c0,0.1,0.1,0.3,0,0.4c0.1,0,0.2-0.2,0.2-0.3c0.1,0.4-0.2,0.4,0,0.7
		c0-0.1,0.1-0.2,0.2-0.1c0.1,0,0,0.1,0,0.1c-0.1,0.1-0.1,0.3,0.1,0.3c0,0,0-0.1,0.1-0.1c0.2,0,0.2,0,0.4,0c0.1,0,0.1-0.1,0.2-0.1
		s0.1,0.1,0.1,0.1c0.1,0,0.2-0.1,0.2-0.2s-0.1-0.1,0-0.2c0,0,0.2,0,0.1,0.1c0.1,0,0.1-0.1,0.1-0.2s-0.1-0.2-0.2-0.1
		c0-0.1-0.1-0.1-0.2-0.1c-0.2,0-0.2,0.1-0.3,0.1c-0.2,0-0.4-0.3-0.4-0.7c0-0.2,0.3-0.3,0.4-0.4c0.2-0.1,0.5-0.3,0.7-0.6
		c0.2-0.3,0.2-0.5,0.1-0.9c0.3,0.1,0.3,0.4,0.3,0.5c0,0.2-0.1,0.3-0.2,0.3s-0.1,0-0.1,0.1s0,0.1,0.1,0.1s0.1,0.1,0.1,0.2
		s0.1,0.3,0.3,0.4c0-0.1,0-0.2,0-0.3c0.2,0.1,0,0.5,0.4,0.5c-0.1,0-0.1-0.1,0-0.2c0,0,0.1,0,0.2,0.1s0.1,0.1,0.2,0.1
		c0.2,0,0.1-0.1,0.2-0.1s0.1,0.1,0,0.2c0.2,0,0.2-0.2,0.2-0.3c0.1-0.1,0.2,0,0.2,0.1c0.1-0.1,0-0.3-0.1-0.3c0-0.1,0-0.1-0.1-0.1
		s-0.1,0-0.2,0s-0.1,0.1-0.2,0.1c-0.2,0-0.7-0.4-0.7-0.6s0.5-0.3,0.5-0.6c0-0.4-0.4-0.5-0.7-0.8c0.1-0.1,0.4-0.2,0.6-0.1
		c0-0.1,0.1-0.1,0.1-0.3c0.1,0.2,0,0.3,0.1,0.4c0.1-0.1,0.2-0.1,0.2-0.3c0,0.1-0.1,0.3,0,0.4c0-0.1,0.1-0.1,0.1-0.1s0.1,0,0.1,0.1
		c0,0.2-0.2,0.1-0.2,0.3c0,0.1,0.1,0.1,0.1,0.1s-0.1,0.1-0.2,0.1c0,0.1,0.1,0.1,0.2,0.1s0.2-0.1,0.2-0.2c0,0.1,0,0.2-0.1,0.3
		c0.1,0,0.3,0,0.3-0.3c0.1,0,0.2,0.1,0.1,0.2c0.1,0,0.2-0.1,0.2-0.2C125.1,26.4,125,26.4,125.1,26.3 M122.9,22.8
		c-0.1,0-0.1-0.1-0.3-0.1c0.1,0,0.3-0.1,0.4-0.1C123.1,22.6,123,22.8,122.9,22.8 M123.6,23.6c-0.1,0.1-0.2-0.1-0.3-0.1
		c0-0.1,0-0.1,0-0.2c0.1-0.1,0.1-0.1,0-0.2c0-0.1-0.1,0-0.2,0c0-0.1,0-0.1,0-0.1c-0.1,0-0.1,0.1-0.1,0.1V23c0,0,0-0.1,0.1-0.1
		l0.4-0.1c0.1,0,0.1,0,0.1,0l0.1,0.1c0,0-0.1,0-0.2,0c0,0,0,0.1,0.1,0.1c-0.1,0-0.2,0.1-0.1,0.2c0,0.1,0.1,0.1,0.2,0.1l0.1,0.1
		C123.8,23.4,123.8,23.5,123.6,23.6 M123.7,22.5c-0.1,0.1-0.2,0-0.3-0.1c0.1-0.1,0.3-0.1,0.4-0.2C123.7,22.3,123.7,22.4,123.7,22.5"
		/>
	<path class="st18" d="M132.5,28.1c0,0.2,0.1,0.3,0.3,0.3s0.3-0.1,0.3-0.3c0-0.2-0.1-0.3-0.3-0.3C132.6,27.8,132.5,27.9,132.5,28.1
		 M132.5,28.1c0-0.1,0.1-0.2,0.2-0.2c0.1,0,0.2,0.1,0.2,0.2s-0.1,0.2-0.2,0.2C132.6,28.4,132.5,28.3,132.5,28.1"/>
	<path class="st18" d="M131.2,28.4l-0.1,0.1c0,0.1,0,0.1,0,0.2c0,0,0.1,0.1,0.2,0.1c0.1,0,0.1,0,0.2,0c0.1,0,0.1-0.1,0.1-0.1
		c0-0.1-0.1-0.2-0.2-0.3C131.4,28.4,131.3,28.4,131.2,28.4 M131.4,28.7c-0.1,0-0.2-0.1-0.1-0.2v-0.1h0.1c0.1,0,0.1,0.1,0.1,0.1l0,0
		C131.6,28.7,131.5,28.7,131.4,28.7"/>
	<path class="st18" d="M129.4,23.9c-0.1,0.1-0.1,0.2-0.1,0.3c0.1,0.1,0.2,0.1,0.3,0c0.1,0,0.1-0.1,0.1-0.2v-0.1l-0.1-0.1
		C129.6,23.8,129.5,23.8,129.4,23.9 M129.4,24.1c0,0,0-0.1,0.1-0.1h0.1c0,0,0,0,0.1,0c0,0,0,0,0,0.1c0,0,0,0.1-0.1,0.1
		C129.6,24.1,129.5,24.2,129.4,24.1L129.4,24.1"/>
	<path class="st18" d="M130.9,27.9c0,0-0.1,0.1-0.1,0.2l0,0c0,0.1,0,0.1,0.1,0.2l0.1,0.1c0,0,0.1,0,0.1-0.1c0,0,0.1-0.1,0.1-0.2
		s0-0.1-0.1-0.2c0-0.1-0.1-0.1-0.1-0.1C130.9,27.8,130.9,27.9,130.9,27.9 M131,28.3L131,28.3C131,28.3,130.9,28.2,131,28.3
		c-0.1-0.1-0.1-0.1-0.1-0.2s0-0.1,0.1-0.1c0,0,0,0,0.1,0s0.1,0.1,0.1,0.2C131.1,28.1,131.1,28.2,131,28.3
		C131,28.2,131,28.3,131,28.3"/>
	<path class="st18" d="M129.3,25.3l-0.1,0.1c0,0.1,0,0.2,0.1,0.3c0.1,0,0.1,0,0.2,0l0.1-0.1v-0.1c0-0.1-0.1-0.1-0.1-0.2
		C129.4,25.2,129.3,25.2,129.3,25.3 M129.3,25.6c-0.1,0-0.1-0.1-0.1-0.2c0,0,0,0,0.1-0.1h0.1l0.1,0.1v0.1c0,0,0,0-0.1,0.1
		C129.4,25.6,129.4,25.6,129.3,25.6"/>
	<path class="st18" d="M132.7,24.9c0.1,0.3,0.3,0.4,0.5,0.3c-0.4,0-0.1-0.7-0.5-0.7h-0.1c-0.1-0.1-0.2-0.1-0.3-0.1
		c-0.2,0-0.5,0.2-0.5,0.6c0,0.8,1,0.9,1,1.7c0,0.2-0.2,0.4-0.3,0.4c-0.2,0-0.3-0.2-0.4-0.5c-0.1-0.1-0.2-0.3-0.4-0.5
		c0,0,0.1,0,0.1,0.1c0.1,0,0.1,0,0.1,0l0.1-0.1l0,0c0-0.1,0-0.1-0.1-0.2s-0.1-0.1-0.2-0.1c-0.1,0-0.1,0-0.1,0l-0.1,0.1l0,0V26
		c-0.2-0.3-0.4-0.5-0.4-0.7c0-0.1,0.1-0.2,0.2-0.4l0,0l0,0c0,0,0.1-0.1,0.3-0.3l0,0l0,0l0,0l-0.1-0.1c0-0.1,0.1-0.1,0.1-0.2
		c0,0.1,0.1,0.2,0.2,0.2c-0.1-0.1,0.1-0.3,0-0.7c0.1,0.1,0.2,0.2,0.3,0.2c-0.2-0.2,0.1-0.5-0.2-0.9c0.1,0,0.2,0,0.2,0
		c-0.3,0-0.1-0.4-0.6-0.5c0.1,0,0.2-0.1,0.2-0.1c-0.1,0.1-0.2-0.2-0.6-0.2c0-0.1-0.2-0.3-0.3-0.4c0,0.1,0,0.2,0,0.3l-1.3-1.2h-0.1
		c0,0,0,0,0,0.1l1.1,1.4c-0.1,0-0.2,0.1-0.2,0.1c-0.1,0-0.1,0.1-0.1,0.1c-0.2,0.1-0.4,0.2-0.5,0.3c-0.1,0.1-0.1,0.1-0.1,0.2
		s0,0.2,0.1,0.1s0.3-0.2,0.4-0.1c0,0-0.1,0.1-0.2,0.1c-0.1,0-0.2,0.1-0.2,0.1h0.1c0,0,0,0.1,0.1,0.1c0,0,0.1-0.1,0.1,0v0.2
		c0.1,0,0.2-0.1,0.2-0.2s0-0.1,0-0.1s0,0.1,0,0.2c0.1,0,0.1-0.1,0.1-0.3h0.1c0,0,0.1,0.1,0.2,0.1c0.2,0,0.3-0.2,0.3-0.3
		c0-0.1,0-0.1,0-0.2c0.1,0.1,0.1,0.2,0.1,0.2c0,0.3-0.5,0.5-0.8,0.7l0,0l-0.3-0.1v0.1l0,0c0,0.1-0.1,0.3-0.1,0.4l0,0l0,0
		c-0.2,0.2-0.3,0.4-0.3,0.7c-0.1-0.1-0.1-0.1-0.2-0.2c0,0,0,0,0-0.1s0-0.1-0.1-0.2l-0.1-0.1H129l0,0l0,0c-0.1-0.1-0.2-0.1-0.3-0.2
		h-0.1h-0.1c0,0-0.1,0-0.1,0.1l-0.1,0.1l0.1,0.1c0,0,0,0,0,0.1l0,0h0.1c0,0,0.1,0,0.1,0.1c0,0,0.2,0.3,0.4,0.5c0,0,0,0-0.1,0
		s-0.2,0-0.3,0s-0.1,0-0.1,0.1c0,0,0,0.1-0.1,0.1c0,0,0,0.1,0,0.2c0.1,0.1,0.3,0.5,0.3,0.6C129,26,129,26,129.1,26s0.3,0.2,0.3,0.2
		v-0.1c0,0-0.1-0.1-0.2-0.1c0,0-0.1,0,0,0s0.2,0.1,0.3,0.1c0-0.1-0.1-0.2-0.2-0.3c-0.1,0-0.2,0-0.2,0v0.1c0,0-0.1,0,0-0.1
		c0,0,0.1,0,0.1-0.1s-0.1-0.1-0.1-0.1c-0.1-0.1-0.2-0.3-0.2-0.3c0-0.1,0-0.1,0-0.1c0.1-0.1,0.2,0,0.4,0c0.1,0,0.2,0,0.3,0
		c0,0.3,0.2,0.6,0.6,0.7c0.2,0.1,0.4,0.2,0.5,0.4c-0.8,0-1,0.3-1,0.6c0,0.3,0.3,0.3,0.3,0.6c0,0.2-0.7,0.3-0.9,0.4
		c-0.2,0-0.3,0.1-0.4,0.2c-0.1,0.1-0.2,0.2-0.3,0.3h0.1l0.1-0.2c0-0.1,0.1-0.1,0.1-0.1s0,0,0,0.1l-0.1,0.2c0.4,0,0.4-0.1,0.4-0.2
		s-0.1-0.1,0-0.1s0.1,0,0.2,0c0,0.1,0.1,0.1,0.2,0.1c0,0,0.9-0.4,1-0.4s0.1-0.1,0-0.1c-0.1-0.1-0.1-0.1-0.1-0.2
		c0-0.3,0.2-0.4,0.5-0.4v0.1c0,0.4,0.6,0.8,0.8,0.8c0.1,0,0.2-0.1,0.2,0.2c0,0.2,0,0.3,0,0.5s-0.1,0.3-0.2,0.3
		c-0.1,0.1-0.3,0.4-0.3,0.4c0.1,0,0.1,0,0.2-0.1c0-0.1,0.1-0.2,0.1-0.2c-0.1,0.1-0.1,0.3-0.1,0.4c0.2,0,0.4-0.1,0.4-0.2
		s-0.1-0.1-0.1-0.2c0,0,0-0.1,0.1-0.1s0.1,0.1,0.1,0.1c0.1,0,0.1-0.1,0.1-0.3c0-0.1,0-0.1,0-0.2l0,0l0.1,0.1c0.1,0,0.1,0,0.2,0
		c0.1,0,0.1-0.1,0.1-0.2l0,0v-0.1l-0.1-0.1c-0.1,0-0.1,0-0.2,0c-0.1,0-0.1,0.1-0.1,0.2c0-0.2,0-0.4,0-0.5s0-0.2,0-0.2
		s-0.1,0.1-0.2,0.1c-0.1,0-0.3-0.2-0.3-0.4c0-0.2,0.2-0.4,0.2-0.7c0-0.1,0-0.1,0.1,0c0,0.1,0.1,0.2,0.2,0.3
		c-0.1,0.3,0.3,0.6,0.6,0.4c-0.1,0-0.2-0.1-0.3-0.2c0,0,0,0,0.1,0l0,0c0.1,0.1,0.4,0.1,0.5-0.2c-0.1,0.1-0.2,0.1-0.3,0.1
		c0.1-0.1,0.2-0.2,0.2-0.4c0-0.8-1-0.9-1-1.6c0-0.3,0.2-0.4,0.4-0.4c0.1,0,0.1,0,0.2,0c-0.1,0.1-0.1,0.2-0.1,0.3c0,0.6,1,0.5,1,0.8
		C133.4,25.4,132.7,25.5,132.7,24.9 M130.2,22.7c0-0.1,0-0.2,0.2-0.2c0.1,0,0.1,0.1,0.2,0.1C130.4,22.6,130.3,22.7,130.2,22.7
		 M129.3,24.5c0,0,0,0.1-0.1,0.1c0,0,0,0-0.1,0s-0.1-0.1-0.1-0.1l0,0v-0.1c0,0,0,0,0.1,0c0,0,0,0,0.1,0S129.3,24.4,129.3,24.5
		 M132.1,28.5c0,0,0-0.1,0.1-0.1h0.1c0,0,0,0,0.1,0l0,0v0.1c0,0,0,0.1-0.1,0.1C132.2,28.7,132.2,28.7,132.1,28.5
		C132.1,28.6,132.1,28.5,132.1,28.5 M131.5,25.8L131.5,25.8c0.1-0.1,0.1-0.1,0.1-0.1s0.1,0,0.1,0.1l0.1,0.1V26l0,0h-0.1
		c0,0-0.1,0-0.1-0.1C131.5,25.9,131.5,25.9,131.5,25.8 M129.9,24c0-0.1,0.1-0.4,0.1-0.4l0.1,0.1l-0.1,0.1h0.1l-0.1,0.1l-0.1-0.1
		c0,0.1,0,0.2,0.1,0.2s0.1,0.1,0.2,0c0-0.1,0-0.1-0.1-0.1c0-0.1,0-0.1,0.1-0.1c0,0,0.1,0,0.1,0.1c0-0.1,0.1-0.2,0.2-0.3
		c0,0.1,0,0.2-0.1,0.3h0.1c0,0,0,0.1-0.1,0.1c0-0.1-0.1-0.1-0.1,0s0,0.1,0.1,0.1c0.1,0.1,0.2,0,0.2-0.1h-0.1l0.1-0.2
		c0,0,0,0.1,0.1,0.1c0,0,0-0.1,0-0.2L131,24c-0.1,0-0.1,0.1-0.2,0.1c0.1,0,0.1,0,0.1,0l-0.1,0.2c0-0.1,0-0.1,0-0.1
		c0,0.1,0,0.2,0.1,0.2s0.1,0.1,0.2,0c0,0,0-0.1-0.1-0.1c0-0.1,0-0.1,0.1-0.1c0,0,0.1,0,0.1,0.1c0-0.1,0.1-0.2,0.2-0.2
		c0,0.1,0,0.2-0.1,0.3h0.1c0,0,0,0.1-0.1,0.1c0-0.1-0.1-0.1-0.1,0c0,0,0,0.1,0.1,0.1s0.1,0.1,0.2,0h-0.1l0.1-0.1c0,0,0,0.1,0.1,0.1
		c0-0.1,0-0.1,0-0.2l0.1,0.1c0,0-0.2,0.2-0.3,0.3L129.9,24z M131.2,27.3c-0.1,0.1-0.1,0.1-0.2,0.1c-0.1,0-0.1-0.1,0-0.2
		s0.1-0.1,0.2-0.1C131.3,27.2,131.3,27.3,131.2,27.3 M131.6,26.7c-0.1,0.1-0.1,0.1-0.2,0.1c-0.1,0-0.1-0.1,0-0.2s0.1-0.1,0.2-0.1
		C131.7,26.6,131.7,26.7,131.6,26.7"/>
</g>
<line class="st20" x1="21.5" y1="129.4" x2="21.5" y2="138"/>
<g>
	<rect x="124.8" y="125.3" class="st0" width="8.1" height="5"/>
	<rect x="124.9" y="125.4" class="st0" width="7.8" height="4.8"/>
	<g>
		<g>
			<defs>
				<rect id="SVGID_11_" x="124.4" y="123.5" width="8.9" height="7.2"/>
			</defs>
			<clipPath id="SVGID_12_">
				<use xlink:href="#SVGID_11_"  style="overflow:visible;"/>
			</clipPath>
			<path class="st21" d="M132.7,125.4v4.4c0,0.1-0.1,0.3-0.3,0.3h-7.1c-0.1,0-0.3-0.1-0.3-0.3v-4.4H132.7z"/>
		</g>
		<g>
			<defs>
				<rect id="SVGID_13_" x="124.4" y="123.5" width="8.9" height="7.2"/>
			</defs>
			<clipPath id="SVGID_14_">
				<use xlink:href="#SVGID_13_"  style="overflow:visible;"/>
			</clipPath>
			<path class="st22" d="M132.7,129.8c0,0.1-0.1,0.3-0.3,0.3h-7.1c-0.1,0-0.3-0.1-0.3-0.3v-4.4h7.7V129.8z M132.4,123.8h-7.1
				c-0.4,0-0.6,0.3-0.6,0.6v5.4c0,0.4,0.3,0.6,0.6,0.6h7.1c0.4,0,0.6-0.3,0.6-0.6l0,0v-5.4C133.1,124.1,132.8,123.8,132.4,123.8
				L132.4,123.8"/>
		</g>
		<g>
			<defs>
				<rect id="SVGID_15_" x="124.4" y="123.5" width="8.9" height="7.2"/>
			</defs>
			<clipPath id="SVGID_16_">
				<use xlink:href="#SVGID_15_"  style="overflow:visible;"/>
			</clipPath>
			<path class="st23" d="M125.5,124.4c0.2,0,0.3,0.1,0.3,0.3c0,0.2-0.1,0.3-0.3,0.3c-0.2,0-0.3-0.1-0.3-0.3
				C125.2,124.6,125.4,124.4,125.5,124.4"/>
		</g>
		<g>
			<defs>
				<rect id="SVGID_17_" x="124.4" y="123.5" width="8.9" height="7.2"/>
			</defs>
			<clipPath id="SVGID_18_">
				<use xlink:href="#SVGID_17_"  style="overflow:visible;"/>
			</clipPath>
			<path class="st24" d="M126.4,124.4c0.2,0,0.3,0.1,0.3,0.3c0,0.2-0.1,0.3-0.3,0.3c-0.2,0-0.3-0.1-0.3-0.3
				C126.1,124.6,126.3,124.4,126.4,124.4"/>
		</g>
		<g>
			<defs>
				<rect id="SVGID_19_" x="124.4" y="123.5" width="8.9" height="7.2"/>
			</defs>
			<clipPath id="SVGID_20_">
				<use xlink:href="#SVGID_19_"  style="overflow:visible;"/>
			</clipPath>
			<path class="st25" d="M127.3,124.4c0.2,0,0.3,0.1,0.3,0.3c0,0.2-0.1,0.3-0.3,0.3c-0.2,0-0.3-0.1-0.3-0.3
				C127,124.6,127.2,124.4,127.3,124.4"/>
		</g>
		<g>
			<defs>
				<rect id="SVGID_21_" x="124.4" y="123.5" width="8.9" height="7.2"/>
			</defs>
			<clipPath id="SVGID_22_">
				<use xlink:href="#SVGID_21_"  style="overflow:visible;"/>
			</clipPath>
			<path class="st26" d="M125.8,127.1h1.5c0.1,0,0.1,0,0.1,0.1v1c0,0.1,0,0.1-0.1,0.1h-1.5c-0.1,0-0.1,0-0.1-0.1L125.8,127.1
				L125.8,127.1"/>
		</g>
		<g>
			<defs>
				<rect id="SVGID_23_" x="124.4" y="123.5" width="8.9" height="7.2"/>
			</defs>
			<clipPath id="SVGID_24_">
				<use xlink:href="#SVGID_23_"  style="overflow:visible;"/>
			</clipPath>
			<path class="st27" d="M128.1,127.1h1.5c0.1,0,0.1,0,0.1,0.1v1c0,0.1,0,0.1-0.1,0.1h-1.5c-0.1,0-0.1,0-0.1-0.1v-1
				C128,127.2,128,127.1,128.1,127.1"/>
		</g>
		<g>
			<defs>
				<rect id="SVGID_25_" x="124.4" y="123.5" width="8.9" height="7.2"/>
			</defs>
			<clipPath id="SVGID_26_">
				<use xlink:href="#SVGID_25_"  style="overflow:visible;"/>
			</clipPath>
			<path class="st28" d="M130.3,127.1h1.5c0.1,0,0.1,0,0.1,0.1v1c0,0.1,0,0.1-0.1,0.1h-1.5c-0.1,0-0.1,0-0.1-0.1v-1L130.3,127.1"/>
		</g>
	</g>
	<rect x="124.7" y="116.8" class="st0" width="8.3" height="5.1"/>
	<rect x="124.8" y="116.8" class="st0" width="7.9" height="4.9"/>
	<g>
		<g>
			<defs>
				<rect id="SVGID_27_" x="124.3" y="115" width="9" height="7.3"/>
			</defs>
			<clipPath id="SVGID_28_">
				<use xlink:href="#SVGID_27_"  style="overflow:visible;"/>
			</clipPath>
			<path class="st29" d="M132.7,116.9v4.5c0,0.1-0.1,0.3-0.3,0.3h-7.3c-0.1,0-0.3-0.1-0.3-0.3v-4.5H132.7z"/>
		</g>
		<g>
			<defs>
				<rect id="SVGID_29_" x="124.3" y="115" width="9" height="7.3"/>
			</defs>
			<clipPath id="SVGID_30_">
				<use xlink:href="#SVGID_29_"  style="overflow:visible;"/>
			</clipPath>
			<path class="st30" d="M132.7,121.4c0,0.1-0.1,0.3-0.3,0.3h-7.3c-0.1,0-0.3-0.1-0.3-0.3v-4.5h7.8v4.5H132.7z M132.4,115.2h-7.3
				c-0.4,0-0.7,0.3-0.7,0.7v5.5c0,0.4,0.3,0.6,0.6,0.6h7.3c0.4,0,0.7-0.3,0.7-0.6l0,0v-5.5C133.1,115.5,132.8,115.2,132.4,115.2
				L132.4,115.2"/>
		</g>
		<g>
			<defs>
				<rect id="SVGID_31_" x="124.3" y="115" width="9" height="7.3"/>
			</defs>
			<clipPath id="SVGID_32_">
				<use xlink:href="#SVGID_31_"  style="overflow:visible;"/>
			</clipPath>
			<path class="st31" d="M125.4,115.9c0.2,0,0.3,0.1,0.3,0.3s-0.1,0.3-0.3,0.3c-0.2,0-0.3-0.1-0.3-0.3S125.2,115.9,125.4,115.9"/>
		</g>
		<g>
			<defs>
				<rect id="SVGID_33_" x="124.3" y="115" width="9" height="7.3"/>
			</defs>
			<clipPath id="SVGID_34_">
				<use xlink:href="#SVGID_33_"  style="overflow:visible;"/>
			</clipPath>
			<path class="st32" d="M126.3,115.9c0.2,0,0.3,0.1,0.3,0.3s-0.1,0.3-0.3,0.3c-0.2,0-0.3-0.1-0.3-0.3S126.2,115.9,126.3,115.9"/>
		</g>
		<g>
			<defs>
				<rect id="SVGID_35_" x="124.3" y="115" width="9" height="7.3"/>
			</defs>
			<clipPath id="SVGID_36_">
				<use xlink:href="#SVGID_35_"  style="overflow:visible;"/>
			</clipPath>
			<path class="st33" d="M127.2,115.9c0.2,0,0.3,0.1,0.3,0.3s-0.1,0.3-0.3,0.3c-0.2,0-0.3-0.1-0.3-0.3S127.1,115.9,127.2,115.9"/>
		</g>
	</g>
	<rect x="125.4" y="118.3" class="st34" width="6.8" height="2.3"/>
	<g>
		<g>
			<defs>
				<rect id="SVGID_37_" x="124.3" y="115" width="9" height="7.3"/>
			</defs>
			<clipPath id="SVGID_38_">
				<use xlink:href="#SVGID_37_"  style="overflow:visible;"/>
			</clipPath>
			<path class="st35" d="M126.5,119.5c0,0.1,0,0.1-0.1,0.2c-0.1,0-0.1,0.1-0.2,0.1s-0.2,0-0.2,0v-0.1h0.1h0.1h0.1v-0.1v-0.1
				c0,0-0.1-0.1-0.2-0.1s-0.1-0.1-0.2-0.1c0,0-0.1-0.1,0-0.2c0-0.1,0-0.1,0.1-0.2c0.1,0,0.1-0.1,0.2-0.1s0.2,0,0.2,0.1v0.1
				c-0.1,0-0.1,0-0.2,0h-0.1c0,0,0,0,0,0.1c0,0,0,0,0,0.1l0,0c0,0,0.1,0,0.1,0.1c0,0,0.1,0,0.1,0.1
				C126.3,119.4,126.4,119.4,126.5,119.5C126.5,119.5,126.5,119.5,126.5,119.5"/>
		</g>
		<g>
			<defs>
				<rect id="SVGID_39_" x="124.3" y="115" width="9" height="7.3"/>
			</defs>
			<clipPath id="SVGID_40_">
				<use xlink:href="#SVGID_39_"  style="overflow:visible;"/>
			</clipPath>
			<path class="st36" d="M126.9,119.7L126.9,119.7L126.9,119.7C127,119.8,127,119.8,126.9,119.7L126.9,119.7c-0.2,0.1-0.3,0-0.3-0.1
				v-0.4h-0.1v-0.1l0.1-0.1v-0.1h0.1v0.2h0.2v0.1h-0.2L126.9,119.7C126.8,119.6,126.8,119.6,126.9,119.7
				C126.8,119.7,126.8,119.7,126.9,119.7"/>
		</g>
		<g>
			<defs>
				<rect id="SVGID_41_" x="124.3" y="115" width="9" height="7.3"/>
			</defs>
			<clipPath id="SVGID_42_">
				<use xlink:href="#SVGID_41_"  style="overflow:visible;"/>
			</clipPath>
			<path class="st37" d="M127.3,119.7L127.3,119.7L127.3,119.7l0.1-0.2h-0.1c-0.1,0-0.1,0-0.1,0L127.3,119.7
				C127.2,119.6,127.2,119.6,127.3,119.7C127.2,119.7,127.3,119.7,127.3,119.7 M127.5,119.8L127.5,119.8
				C127.4,119.7,127.4,119.8,127.5,119.8h-0.2c-0.1,0-0.1,0-0.2-0.1c0,0-0.1-0.1-0.1-0.2s0-0.1,0.1-0.2c0.1,0,0.2-0.1,0.2-0.1h0.1
				l0,0v-0.1h-0.1h-0.1h-0.1V119h0.1h0.1c0.1,0,0.1,0,0.2,0.1c0,0,0.1,0.1,0.1,0.2L127.5,119.8L127.5,119.8z"/>
		</g>
		<g>
			<defs>
				<rect id="SVGID_43_" x="124.3" y="115" width="9" height="7.3"/>
			</defs>
			<clipPath id="SVGID_44_">
				<use xlink:href="#SVGID_43_"  style="overflow:visible;"/>
			</clipPath>
			<path class="st38" d="M128.1,119.1C128.2,119.1,128.2,119.1,128.1,119.1l0.1,0.1C128.2,119.2,128.2,119.2,128.1,119.1
				c-0.1,0.1-0.1,0.1-0.1,0.2l-0.1,0.1v0.3h-0.1V119h0.1v0.1l0,0c0,0,0-0.1,0.1-0.1C128.1,119.1,128.1,119.1,128.1,119.1"/>
		</g>
		<g>
			<defs>
				<rect id="SVGID_45_" x="124.3" y="115" width="9" height="7.3"/>
			</defs>
			<clipPath id="SVGID_46_">
				<use xlink:href="#SVGID_45_"  style="overflow:visible;"/>
			</clipPath>
			<path class="st39" d="M128.6,119.7h0.1v0.1C128.7,119.8,128.7,119.8,128.6,119.7l-0.1,0.1c-0.1,0-0.2-0.1-0.2-0.2v-0.4h-0.1v-0.1
				l0.1-0.1v-0.1h0.1v0.2h0.2v0.1h-0.2L128.6,119.7C128.5,119.6,128.5,119.6,128.6,119.7C128.5,119.7,128.6,119.7,128.6,119.7"/>
		</g>
		<g>
			<defs>
				<rect id="SVGID_47_" x="124.3" y="115" width="9" height="7.3"/>
			</defs>
			<clipPath id="SVGID_48_">
				<use xlink:href="#SVGID_47_"  style="overflow:visible;"/>
			</clipPath>
			<path class="st40" d="M129.9,119.8h-0.2l-0.4-0.7l0,0c0,0.1,0,0.1,0,0.2v0.5h-0.1v-0.9h0.2l0.4,0.7v-0.1v-0.1v-0.5h0.1V119.8z"/>
		</g>
		<g>
			<defs>
				<rect id="SVGID_49_" x="124.3" y="115" width="9" height="7.3"/>
			</defs>
			<clipPath id="SVGID_50_">
				<use xlink:href="#SVGID_49_"  style="overflow:visible;"/>
			</clipPath>
			<path class="st41" d="M130.2,119.4c0,0.2,0.1,0.2,0.2,0.2c0.1,0,0.2-0.1,0.2-0.2s-0.1-0.2-0.2-0.2
				C130.3,119.2,130.3,119.2,130.2,119.4C130.2,119.3,130.2,119.4,130.2,119.4 M130.7,119.4c0,0.1,0,0.2-0.1,0.3
				c-0.1,0.1-0.1,0.1-0.2,0.1c-0.1,0-0.1,0-0.2,0l-0.1-0.1c0-0.1,0-0.1,0-0.2s0-0.2,0.1-0.3c0.1-0.1,0.1-0.1,0.2-0.1
				c0.1,0,0.2,0,0.2,0.1C130.7,119.3,130.7,119.4,130.7,119.4"/>
		</g>
		<g>
			<defs>
				<rect id="SVGID_51_" x="124.3" y="115" width="9" height="7.3"/>
			</defs>
			<clipPath id="SVGID_52_">
				<use xlink:href="#SVGID_51_"  style="overflow:visible;"/>
			</clipPath>
			<path class="st42" d="M131.4,119.8l-0.1-0.3c0,0,0-0.1-0.1-0.2c0,0.1,0,0.2-0.1,0.2l-0.1,0.3h-0.2l-0.2-0.7h0.1l0.1,0.3
				c0,0.1,0,0.2,0,0.2v-0.1v-0.1l0.1-0.3h0.2l0.1,0.3c0,0,0,0,0,0.1v0.1c0-0.1,0-0.1,0-0.2l0.1-0.3h0.1l-0.2,0.7H131.4z"/>
		</g>
	</g>
	<rect x="125" y="138.4" class="st0" width="7.9" height="4.9"/>
	<rect x="125.1" y="138.5" class="st0" width="7.6" height="4.7"/>
	<g>
		<g>
			<defs>
				<rect id="SVGID_53_" x="124.6" y="136.7" width="8.7" height="7"/>
			</defs>
			<clipPath id="SVGID_54_">
				<use xlink:href="#SVGID_53_"  style="overflow:visible;"/>
			</clipPath>
			<path class="st43" d="M132.7,138.6v4.3c0,0.1-0.1,0.3-0.3,0.3h-7c-0.1,0-0.3-0.1-0.3-0.3v-4.3H132.7z"/>
		</g>
		<g>
			<defs>
				<rect id="SVGID_55_" x="124.6" y="136.7" width="8.7" height="7"/>
			</defs>
			<clipPath id="SVGID_56_">
				<use xlink:href="#SVGID_55_"  style="overflow:visible;"/>
			</clipPath>
			<path class="st44" d="M132.7,142.9c0,0.1-0.1,0.3-0.3,0.3h-7c-0.1,0-0.3-0.1-0.3-0.3v-4.3h7.5v4.3H132.7z M132.4,136.9h-7
				c-0.3,0-0.6,0.3-0.6,0.6v5.3c0,0.3,0.3,0.6,0.6,0.6h7c0.3,0,0.6-0.3,0.6-0.6l0,0v-5.3C133.1,137.2,132.8,136.9,132.4,136.9
				L132.4,136.9"/>
		</g>
		<g>
			<defs>
				<rect id="SVGID_57_" x="124.6" y="136.7" width="8.7" height="7"/>
			</defs>
			<clipPath id="SVGID_58_">
				<use xlink:href="#SVGID_57_"  style="overflow:visible;"/>
			</clipPath>
			<path class="st45" d="M125.7,137.6c0.2,0,0.3,0.1,0.3,0.3s-0.1,0.3-0.3,0.3c-0.2,0-0.3-0.1-0.3-0.3
				C125.4,137.7,125.6,137.6,125.7,137.6"/>
		</g>
		<g>
			<defs>
				<rect id="SVGID_59_" x="124.6" y="136.7" width="8.7" height="7"/>
			</defs>
			<clipPath id="SVGID_60_">
				<use xlink:href="#SVGID_59_"  style="overflow:visible;"/>
			</clipPath>
			<path class="st46" d="M126.6,137.6c0.2,0,0.3,0.1,0.3,0.3s-0.1,0.3-0.3,0.3c-0.2,0-0.3-0.1-0.3-0.3
				C126.3,137.7,126.4,137.6,126.6,137.6"/>
		</g>
		<g>
			<defs>
				<rect id="SVGID_61_" x="124.6" y="136.7" width="8.7" height="7"/>
			</defs>
			<clipPath id="SVGID_62_">
				<use xlink:href="#SVGID_61_"  style="overflow:visible;"/>
			</clipPath>
			<path class="st47" d="M127.5,137.6c0.2,0,0.3,0.1,0.3,0.3s-0.1,0.3-0.3,0.3c-0.2,0-0.3-0.1-0.3-0.3
				C127.2,137.7,127.3,137.6,127.5,137.6"/>
		</g>
	</g>
	<rect x="125.7" y="139.9" class="st34" width="6.6" height="2.2"/>
	<g>
		<g>
			<defs>
				<rect id="SVGID_63_" x="124.6" y="136.7" width="8.7" height="7"/>
			</defs>
			<clipPath id="SVGID_64_">
				<use xlink:href="#SVGID_63_"  style="overflow:visible;"/>
			</clipPath>
			<path class="st48" d="M127.2,141.2c0,0.1,0,0.2-0.1,0.2c-0.1,0.1-0.2,0.1-0.3,0.1c-0.1,0-0.2,0-0.3-0.1v-0.2c0,0,0.1,0,0.1,0.1
				h0.1c0.1,0,0.1,0,0.1,0c0.1,0,0.1-0.1,0-0.2l0,0c-0.1,0-0.1-0.1-0.2-0.1s-0.1-0.1-0.2-0.1c0-0.1-0.1-0.1-0.1-0.2
				c0-0.1,0-0.2,0.1-0.2c0.1-0.1,0.2-0.1,0.3-0.1c0.1,0,0.2,0,0.3,0.1l-0.1,0.1c-0.1,0-0.2-0.1-0.2-0.1h-0.1v0.1c0,0,0,0,0,0.1
				c0,0,0,0,0.1,0.1c0,0,0.1,0,0.1,0.1c0.1,0,0.1,0.1,0.2,0.1L127.2,141.2C127.2,141.1,127.2,141.1,127.2,141.2"/>
		</g>
		<g>
			<defs>
				<rect id="SVGID_65_" x="124.6" y="136.7" width="8.7" height="7"/>
			</defs>
			<clipPath id="SVGID_66_">
				<use xlink:href="#SVGID_65_"  style="overflow:visible;"/>
			</clipPath>
			<path class="st49" d="M127.9,141.5v-0.1l0,0V141.5h-0.2c-0.1,0-0.2,0-0.2-0.1c-0.1-0.1-0.1-0.1-0.1-0.2v-0.5h0.2v0.5v0.1h0.1
				c0.1,0,0.1,0,0.2-0.1c0-0.1,0.1-0.1,0-0.2v-0.4h0.2v0.8L127.9,141.5L127.9,141.5z"/>
		</g>
		<g>
			<defs>
				<rect id="SVGID_67_" x="124.6" y="136.7" width="8.7" height="7"/>
			</defs>
			<clipPath id="SVGID_68_">
				<use xlink:href="#SVGID_67_"  style="overflow:visible;"/>
			</clipPath>
			<path class="st50" d="M128.7,140.8c-0.1,0-0.1,0-0.1,0.1s-0.1,0.1,0,0.2l0,0c0,0.1,0,0.1,0,0.2l0.1,0.1c0.1,0,0.1,0,0.1-0.1
				s0-0.1,0-0.2C128.9,140.9,128.8,140.8,128.7,140.8L128.7,140.8z M128.7,140.7c0.1,0,0.2,0,0.2,0.1c0.1,0.1,0.1,0.2,0.1,0.3
				s0,0.2-0.1,0.3s-0.3,0.1-0.4,0l0,0l0,0v0.1h-0.1v-1.1h0.2v0.3v0.1v0.1C128.5,140.7,128.6,140.7,128.7,140.7"/>
		</g>
		<g>
			<defs>
				<rect id="SVGID_69_" x="124.6" y="136.7" width="8.7" height="7"/>
			</defs>
			<clipPath id="SVGID_70_">
				<use xlink:href="#SVGID_69_"  style="overflow:visible;"/>
			</clipPath>
			<path class="st51" d="M129.9,141.5h-0.2V141v-0.1h-0.1c-0.1,0-0.1,0-0.1,0.1s0,0.1,0,0.2v0.4h-0.2v-0.8h0.1v0.1l0,0l0.1-0.1h0.1
				c0.1,0,0.2,0,0.2,0.1l0,0l0.1-0.1h0.1c0.1,0,0.2,0,0.2,0.1s0.1,0.1,0.1,0.2v0.5h-0.2V141v-0.1H130c-0.1,0-0.1,0-0.1,0.1
				s0,0.1,0,0.2L129.9,141.5L129.9,141.5z"/>
		</g>
		<g>
			<defs>
				<rect id="SVGID_71_" x="124.6" y="136.7" width="8.7" height="7"/>
			</defs>
			<clipPath id="SVGID_72_">
				<use xlink:href="#SVGID_71_"  style="overflow:visible;"/>
			</clipPath>
			<path class="st52" d="M130.8,141.5h-0.2v-0.8h0.2V141.5z M130.6,140.5C130.6,140.4,130.6,140.4,130.6,140.5
				c0.1-0.1,0.1-0.1,0.2-0.1c0,0,0,0,0,0.1c0,0,0,0,0,0.1C130.8,140.6,130.7,140.6,130.6,140.5C130.7,140.6,130.7,140.6,130.6,140.5
				L130.6,140.5"/>
		</g>
		<g>
			<defs>
				<rect id="SVGID_73_" x="124.6" y="136.7" width="8.7" height="7"/>
			</defs>
			<clipPath id="SVGID_74_">
				<use xlink:href="#SVGID_73_"  style="overflow:visible;"/>
			</clipPath>
			<path class="st53" d="M131.3,141.4h0.1v0.1c0,0,0,0-0.1,0h-0.1c-0.2,0-0.2-0.1-0.2-0.3v-0.4h-0.1v-0.1l0.1-0.1l0.1-0.2h0.1v0.2
				h0.2v0.1h-0.2v0.4C131.2,141.3,131.2,141.3,131.3,141.4C131.3,141.3,131.3,141.4,131.3,141.4"/>
		</g>
	</g>
</g>
<g>
	<path class="st54" d="M21.4,141.1"/>
	<path class="st54" d="M21.4,120.2"/>
	<path class="st54" d="M21.4,141.4L21.4,141.4 M21.4,119.7L21.4,119.7"/>
	<path class="st0" d="M21.5,121.4c1.7,0,3.1-1.4,3.1-3.1s-1.4-3.1-3.1-3.1s-3.1,1.4-3.1,3.1C18.4,120.1,19.8,121.4,21.5,121.4"/>
	<circle class="st55" cx="21.5" cy="118.4" r="3.1"/>
	<text transform="matrix(1 0 0 1 20.3365 119.8244)" class="st56 st57 st58">1</text>
	<path class="st0" d="M21.5,129.4c1.7,0,3.1-1.4,3.1-3.1s-1.4-3.1-3.1-3.1s-3.1,1.4-3.1,3.1C18.4,128.1,19.8,129.4,21.5,129.4"/>
	<circle class="st55" cx="21.5" cy="126.4" r="3.1"/>
	<path class="st0" d="M21.5,144.1c1.7,0,3.1-1.4,3.1-3.1c0-1.7-1.4-3.1-3.1-3.1s-3.1,1.4-3.1,3.1C18.4,142.7,19.8,144.1,21.5,144.1"
		/>
	<circle class="st55" cx="21.5" cy="141" r="3.1"/>
	<text transform="matrix(1 0 0 1 20.3365 127.7824)" class="st56 st57 st58">2</text>
	<text transform="matrix(1 0 0 1 20.3365 142.4533)" class="st56 st57 st58">3 </text>
</g>
<line class="st20" x1="21.5" y1="121.4" x2="21.5" y2="123.3"/>
<path class="st0" d="M233,95.8c-0.2,0-0.4,0.8-0.4,1.9v23c0,1,0.2,1.9,0.4,1.9h58.6c0.2,0,0.4-0.8,0.4-1.9v-23c0-1-0.2-1.9-0.4-1.9
	H233z"/>
<path class="st16" d="M231.5,95.8c-0.2,0-0.4,0.8-0.4,1.9v23c0,1,0.2,1.9,0.4,1.9h58.6c0.2,0,0.4-0.8,0.4-1.9v-23
	c0-1-0.2-1.9-0.4-1.9H231.5z"/>
<path class="st0" d="M357.7,95.8c-0.2,0-0.4,0.8-0.4,1.9v23c0,1,0.2,1.9,0.4,1.9h58.6c0.2,0,0.4-0.8,0.4-1.9v-23
	c0-1-0.2-1.9-0.4-1.9H357.7z"/>
<path class="st16" d="M357.7,95.8c-0.2,0-0.4,0.8-0.4,1.9v23c0,1,0.2,1.9,0.4,1.9h58.6c0.2,0,0.4-0.8,0.4-1.9v-23
	c0-1-0.2-1.9-0.4-1.9H357.7z"/>
<path class="st0" d="M294.6,95.8c-0.2,0-0.4,0.8-0.4,1.9v23c0,1,0.2,1.9,0.4,1.9h58.6c0.2,0,0.4-0.8,0.4-1.9v-23
	c0-1-0.2-1.9-0.4-1.9H294.6z"/>
<path class="st16" d="M294.6,95.8c-0.2,0-0.4,0.8-0.4,1.9v23c0,1,0.2,1.9,0.4,1.9h58.6c0.2,0,0.4-0.8,0.4-1.9v-23
	c0-1-0.2-1.9-0.4-1.9H294.6z"/>
<rect x="231.2" y="95.8" class="st59" width="59.1" height="26.7"/>
<text transform="matrix(1 0 0 1 236.166 115.4445)" class="st57 st60 st61">1234</text>
<rect x="295.8" y="95.8" class="st59" width="59.1" height="26.7"/>
<rect x="358.9" y="95.8" class="st59" width="59.1" height="26.7"/>
<rect x="32.9" y="130.4" class="st59" width="22.6" height="7.4"/>
<text transform="matrix(1 0 0 1 36.3102 136.0792)"><tspan x="0" y="0" class="st57 st62 st63">1234</tspan><tspan x="17" y="0" class="st57 st62"> </tspan></text>
<rect x="56.8" y="130.4" class="st59" width="22.6" height="7.4"/>
<rect x="80.7" y="130.4" class="st59" width="22.6" height="7.4"/>
<rect x="28.4" y="117.7" class="st15" width="79.2" height="1.4"/>
<rect x="18.7" y="110.3" class="st15" width="64.5" height="1.9"/>
<rect x="18.6" y="158.9" class="st15" width="42.4" height="1.9"/>
<rect x="18.7" y="105.9" class="st15" width="42.3" height="1.9"/>
<rect x="28.4" y="125.7" class="st15" width="79.2" height="1.4"/>
<rect x="28.4" y="140.7" class="st15" width="79.2" height="1.4"/>
<g>
	<defs>
		<rect id="SVGID_75_" x="18.8" y="20.6" width="28.2" height="5.5"/>
	</defs>
	<clipPath id="SVGID_76_">
		<use xlink:href="#SVGID_75_"  style="overflow:visible;"/>
	</clipPath>
	<path class="st64" d="M18.8,23.9c0.1-0.2,0.2-0.3,0.3-0.5c-0.1-0.3-0.2-0.5-0.3-0.8C18.8,23.1,18.8,23.6,18.8,23.9 M19.3,20.6
		c0,0-0.5,0-0.5,0.6c0,0,0,0.2,0,0.3c0,0.6,0.2,1.2,0.4,1.7c0.3-0.5,0.6-0.9,1.1-1.2c0.8-0.7,2-1.2,3.5-1.4H19.3z"/>
	<path class="st65" d="M24.2,20.9c-1.7,0.2-2.9,0.7-3.8,1.4c-0.5,0.4-0.8,0.9-1.1,1.4c0.7,1.3,1.9,2.3,4.1,2.4l0.2,0
		c0,0,0.7,0,0.7-0.7L24.2,20.9C24.3,20.9,24.3,20.9,24.2,20.9 M19.8,24.6c-0.2-0.2-0.4-0.5-0.5-0.8c-0.2,0.4-0.3,0.7-0.5,1.1v1.1
		l3.5,0C21.2,25.8,20.3,25.3,19.8,24.6"/>
	<path class="st65" d="M26.4,23.1c-0.5,0-0.8-0.4-0.8-1c0-0.5,0.2-1,0.8-1c0.5,0,0.8,0.4,0.8,1C27.1,22.6,26.9,23.1,26.4,23.1
		 M26.4,21.2c-0.4,0-0.5,0.4-0.5,0.8c0,0.4,0.1,0.8,0.5,0.8c0.4,0,0.5-0.4,0.5-0.8C26.9,21.7,26.8,21.2,26.4,21.2"/>
	<path class="st65" d="M27.8,21.7V23h-0.2v-1.4h-0.2v-0.1h0.2v-0.2c0-0.3,0.2-0.5,0.5-0.5c0,0,0.1,0,0.1,0V21h0
		c-0.1,0-0.3,0.1-0.3,0.3v0.2h0.3v0.1H27.8z"/>
	<path class="st65" d="M28.7,21.7V23h-0.2v-1.4h-0.2v-0.1h0.2v-0.2c0-0.3,0.2-0.5,0.5-0.5c0,0,0.1,0,0.1,0V21h0
		c-0.1,0-0.3,0.1-0.3,0.3v0.2H29v0.1H28.7z"/>
	<path class="st65" d="M29.4,21.3c-0.1,0-0.1-0.1-0.1-0.1c0-0.1,0.1-0.1,0.1-0.1c0.1,0,0.1,0.1,0.1,0.1
		C29.5,21.2,29.4,21.3,29.4,21.3 M29.3,21.5h0.2V23h-0.2V21.5z"/>
	<path class="st65" d="M30.4,23.1c-0.4,0-0.6-0.3-0.6-0.8c0-0.5,0.3-0.8,0.6-0.8c0.2,0,0.3,0,0.4,0.1l-0.1,0.1c0,0-0.1-0.1-0.3-0.1
		c-0.3,0-0.5,0.3-0.5,0.6c0,0.4,0.2,0.6,0.4,0.6c0.1,0,0.2,0,0.3-0.1l0.1,0.1C30.7,23,30.6,23.1,30.4,23.1"/>
	<path class="st65" d="M31.1,22.4c0,0.4,0.2,0.5,0.5,0.5c0.2,0,0.3,0,0.4-0.1l0.1,0.2c-0.1,0.1-0.3,0.1-0.5,0.1
		c-0.4,0-0.7-0.2-0.7-0.8c0-0.5,0.3-0.8,0.6-0.8c0.4,0,0.6,0.2,0.6,0.7L31.1,22.4z M31.6,21.6c-0.2,0-0.4,0.2-0.4,0.6l0.8-0.1
		C32,21.8,31.8,21.6,31.6,21.6"/>
	<path class="st65" d="M33.6,21.7V23h-0.2v-1.4h-0.2v-0.1h0.2v-0.2c0-0.3,0.2-0.5,0.5-0.5c0,0,0.1,0,0.1,0V21h0
		c-0.1,0-0.3,0.1-0.3,0.3v0.2h0.3v0.1H33.6z"/>
	<path class="st65" d="M34.7,23.1c-0.4,0-0.6-0.3-0.6-0.8c0-0.4,0.2-0.8,0.6-0.8c0.4,0,0.6,0.3,0.6,0.8
		C35.3,22.7,35.1,23.1,34.7,23.1 M34.7,21.6c-0.3,0-0.4,0.3-0.4,0.6c0,0.3,0.1,0.6,0.4,0.6c0.3,0,0.4-0.3,0.4-0.6
		C35.1,22,35,21.6,34.7,21.6"/>
	<path class="st65" d="M36.2,21.7c-0.1,0-0.3,0-0.4,0V23h-0.2v-1.4c0.2-0.1,0.3-0.1,0.6-0.1c0,0,0.1,0,0.1,0L36.2,21.7z"/>
	<path class="st65" d="M26.9,26L26,24.7c-0.1-0.1-0.1-0.2-0.1-0.2h0c0,0,0,0.1,0,0.2V26h-0.3v-1.9H26l0.8,1.2
		c0.1,0.1,0.1,0.2,0.1,0.2h0c0,0,0-0.1,0-0.2v-1.2h0.3V26H26.9z"/>
	<path class="st65" d="M28.1,26.1c-0.4,0-0.6-0.2-0.6-0.5c0-0.4,0.4-0.5,0.9-0.6V25c0-0.2-0.1-0.3-0.3-0.3c-0.1,0-0.3,0-0.4,0.1
		l-0.1-0.2c0.1,0,0.3-0.1,0.5-0.1c0.3,0,0.6,0.1,0.6,0.5V26C28.5,26,28.3,26.1,28.1,26.1 M28.3,25.2c-0.4,0-0.6,0.1-0.6,0.4
		c0,0.2,0.1,0.3,0.4,0.3c0.1,0,0.2,0,0.2,0V25.2z"/>
	<path class="st65" d="M29.5,26.1c-0.3,0-0.4-0.2-0.4-0.4v-0.9h-0.2v-0.2h0.2v-0.3l0.3-0.1v0.4h0.3v0.2h-0.3v0.9
		c0,0.1,0.1,0.2,0.2,0.2c0,0,0.1,0,0.1,0V26C29.6,26.1,29.6,26.1,29.5,26.1"/>
	<path class="st65" d="M30.1,24.3c-0.1,0-0.2-0.1-0.2-0.2c0-0.1,0.1-0.2,0.2-0.2c0.1,0,0.2,0.1,0.2,0.2
		C30.3,24.2,30.2,24.3,30.1,24.3 M29.9,24.5h0.3V26h-0.3V24.5z"/>
	<path class="st65" d="M31.2,26.1c-0.5,0-0.7-0.3-0.7-0.8c0-0.4,0.2-0.8,0.7-0.8c0.5,0,0.7,0.3,0.7,0.8
		C31.9,25.7,31.6,26.1,31.2,26.1 M31.2,24.7c-0.3,0-0.4,0.3-0.4,0.6c0,0.3,0.1,0.6,0.4,0.6c0.3,0,0.4-0.3,0.4-0.6
		C31.5,25,31.5,24.7,31.2,24.7"/>
	<path class="st65" d="M33,26V25c0-0.2-0.2-0.3-0.3-0.3c-0.1,0-0.2,0-0.3,0V26h-0.3v-1.4c0.1-0.1,0.4-0.1,0.6-0.1
		c0.4,0,0.6,0.1,0.6,0.5V26H33z"/>
	<path class="st65" d="M34.3,26.1c-0.4,0-0.6-0.2-0.6-0.5c0-0.4,0.4-0.5,0.9-0.6V25c0-0.2-0.1-0.3-0.3-0.3c-0.1,0-0.3,0-0.4,0.1
		l-0.1-0.2c0.1,0,0.3-0.1,0.5-0.1c0.3,0,0.6,0.1,0.6,0.5V26C34.7,26,34.5,26.1,34.3,26.1 M34.5,25.2c-0.4,0-0.6,0.1-0.6,0.4
		c0,0.2,0.1,0.3,0.4,0.3c0.1,0,0.2,0,0.2,0V25.2z"/>
	<polygon class="st65" points="35.2,26 35.2,23.9 35.5,23.9 35.5,25 35.5,26 	"/>
	<path class="st65" d="M37,26.1c-0.2,0-0.4-0.1-0.5-0.1l0.1-0.2c0.1,0,0.2,0.1,0.4,0.1c0.2,0,0.4-0.1,0.4-0.3c0-0.4-0.8-0.3-0.8-0.8
		c0-0.3,0.2-0.6,0.6-0.6c0.2,0,0.4,0.1,0.5,0.1l-0.1,0.2c-0.1,0-0.2-0.1-0.3-0.1c-0.2,0-0.3,0.1-0.3,0.3c0,0.4,0.8,0.2,0.8,0.9
		C37.7,25.8,37.4,26.1,37,26.1"/>
	<path class="st65" d="M38.5,26.1c-0.3,0-0.4-0.2-0.4-0.4v-0.9h-0.2v-0.2H38v-0.3l0.3-0.1v0.4h0.3v0.2h-0.3v0.9
		c0,0.1,0.1,0.2,0.2,0.2c0,0,0.1,0,0.1,0V26C38.6,26.1,38.5,26.1,38.5,26.1"/>
	<path class="st65" d="M39.5,26.1c-0.4,0-0.6-0.2-0.6-0.5c0-0.4,0.4-0.5,0.9-0.6V25c0-0.2-0.1-0.3-0.3-0.3c-0.1,0-0.3,0-0.4,0.1
		l-0.1-0.2c0.1,0,0.3-0.1,0.5-0.1c0.3,0,0.6,0.1,0.6,0.5V26C39.9,26,39.7,26.1,39.5,26.1 M39.7,25.2c-0.4,0-0.6,0.1-0.6,0.4
		c0,0.2,0.1,0.3,0.4,0.3c0.1,0,0.2,0,0.2,0V25.2z"/>
	<path class="st65" d="M40.9,26.1c-0.3,0-0.4-0.2-0.4-0.4v-0.9h-0.2v-0.2h0.2v-0.3l0.3-0.1v0.4h0.3v0.2h-0.3v0.9
		c0,0.1,0.1,0.2,0.2,0.2c0,0,0.1,0,0.1,0V26C41,26.1,41,26.1,40.9,26.1"/>
	<path class="st65" d="M41.5,24.3c-0.1,0-0.2-0.1-0.2-0.2c0-0.1,0.1-0.2,0.2-0.2c0.1,0,0.2,0.1,0.2,0.2
		C41.7,24.2,41.6,24.3,41.5,24.3 M41.3,24.5h0.3V26h-0.3V24.5z"/>
	<path class="st65" d="M42.3,26.1c-0.2,0-0.4-0.1-0.4-0.1l0.1-0.2c0.1,0,0.2,0.1,0.3,0.1c0.2,0,0.3-0.1,0.3-0.2
		c0-0.4-0.7-0.2-0.7-0.7c0-0.2,0.2-0.4,0.5-0.4c0.2,0,0.3,0,0.4,0.1l-0.1,0.2c0,0-0.1-0.1-0.3-0.1c-0.2,0-0.3,0.1-0.3,0.2
		c0,0.3,0.7,0.2,0.7,0.7C42.9,25.9,42.7,26.1,42.3,26.1"/>
	<path class="st65" d="M43.7,26.1c-0.3,0-0.4-0.2-0.4-0.4v-0.9h-0.2v-0.2h0.2v-0.3l0.3-0.1v0.4h0.3v0.2h-0.3v0.9
		c0,0.1,0.1,0.2,0.2,0.2c0,0,0.1,0,0.1,0V26C43.9,26.1,43.8,26.1,43.7,26.1"/>
	<path class="st65" d="M44.3,24.3c-0.1,0-0.2-0.1-0.2-0.2c0-0.1,0.1-0.2,0.2-0.2c0.1,0,0.2,0.1,0.2,0.2
		C44.5,24.2,44.4,24.3,44.3,24.3 M44.1,24.5h0.3V26h-0.3V24.5z"/>
	<path class="st65" d="M45.4,26.1c-0.4,0-0.6-0.3-0.6-0.8c0-0.5,0.3-0.8,0.6-0.8c0.2,0,0.3,0.1,0.4,0.1l-0.1,0.2
		c0,0-0.1-0.1-0.2-0.1c-0.3,0-0.4,0.2-0.4,0.6c0,0.3,0.2,0.6,0.4,0.6c0.1,0,0.2,0,0.2-0.1l0.1,0.2C45.7,26,45.6,26.1,45.4,26.1"/>
	<path class="st65" d="M46.4,26.1c-0.2,0-0.4-0.1-0.4-0.1l0.1-0.2c0.1,0,0.2,0.1,0.3,0.1c0.2,0,0.3-0.1,0.3-0.2
		c0-0.4-0.7-0.2-0.7-0.7c0-0.2,0.2-0.4,0.5-0.4c0.2,0,0.3,0,0.4,0.1l-0.1,0.2c0,0-0.1-0.1-0.3-0.1c-0.2,0-0.3,0.1-0.3,0.2
		c0,0.3,0.7,0.2,0.7,0.7C46.9,25.9,46.7,26.1,46.4,26.1"/>
</g>
<rect x="294.2" y="95.8" class="st59" width="59.1" height="26.7"/>
<text transform="matrix(1 0 0 1 299.116 115.4445)" class="st57 st60 st61">1234</text>
<rect x="357.5" y="95.8" class="st59" width="59.1" height="26.7"/>
<text transform="matrix(1 0 0 1 362.366 115.4945)" class="st57 st60 st61">1234</text>
<rect x="56.9" y="130.3" class="st59" width="22.6" height="7.4"/>
<text transform="matrix(1 0 0 1 60.2602 135.9587)"><tspan x="0" y="0" class="st57 st62 st63">1234</tspan><tspan x="17" y="0" class="st57 st62"> </tspan></text>
<rect x="80.8" y="130.4" class="st59" width="22.6" height="7.4"/>
<text transform="matrix(1 0 0 1 84.1602 136.1292)"><tspan x="0" y="0" class="st57 st62 st63">1234</tspan><tspan x="17" y="0" class="st57 st62"> </tspan></text>
</svg>
